<svg width="22" height="22" fill="none" xmlns="http://www.w3.org/2000/svg"><path d="M12.13 0a94.95 94.95 0 0 1 2.409.025l.213.008c.246.009.49.02.783.033 1.17.055 1.969.24 2.67.511.726.28 1.337.658 1.949 1.269a5.39 5.39 0 0 1 1.268 1.949c.272.7.456 1.5.511 2.67.014.293.025.536.034.784l.006.213c.017.541.023 1.17.025 2.407l.002.82v1.441c.002.803-.006 1.605-.026 2.407l-.006.214-.033.783c-.055 1.171-.242 1.969-.513 2.67a5.39 5.39 0 0 1-1.268 1.95 5.39 5.39 0 0 1-1.95 1.268c-.7.272-1.498.456-2.669.511l-.783.034-.213.006c-.543.015-1.17.023-2.408.025l-.82.002H9.87a85.896 85.896 0 0 1-2.408-.026l-.214-.006c-.26-.01-.522-.022-.783-.035-1.17-.055-1.969-.24-2.67-.511a5.39 5.39 0 0 1-1.949-1.268 5.39 5.39 0 0 1-1.269-1.95c-.272-.7-.456-1.499-.511-2.67l-.033-.783-.006-.214c-.02-.802-.03-1.604-.027-2.407V9.87a86.9 86.9 0 0 1 .024-2.407l.008-.213c.008-.248.02-.49.033-.783.055-1.172.24-1.97.511-2.671a5.39 5.39 0 0 1 1.272-1.95A5.39 5.39 0 0 1 3.795.578c.702-.271 1.5-.456 2.671-.511.293-.013.537-.024.783-.033l.214-.007c.802-.02 1.604-.028 2.406-.025L12.131 0zM11 5.5a5.5 5.5 0 1 0 0 11 5.5 5.5 0 0 0 0-11zm0 2.2A3.3 3.3 0 1 1 11 14.3 3.3 3.3 0 0 1 11 7.7m5.775-3.85a1.375 1.375 0 1 0 0 2.75 1.375 1.375 0 0 0 0-2.75z" fill="#E8E8E8" style="mix-blend-mode:plus-lighter"/></svg>