<svg width="22" height="22" fill="none" xmlns="http://www.w3.org/2000/svg"><path fill-rule="evenodd" clip-rule="evenodd" d="M10.997 0C16.997-.005 22 5.01 22 11c0 5.995-5.003 10.995-11.003 10.991-1.577.001-3.136-.336-4.571-.99l-5.446.985a.83.83 0 0 1-.927-1.109l1.561-4.149a11.035 11.035 0 0 1-1.61-5.73C.004 5.008 5.002.003 10.996 0zm5.52 15.672c-1.223.99-3.118 1.99-4.93.827-2.373-1.526-4.476-3.531-6-5.908-.895-1.392-.053-3.62 1.206-4.979.501-.543 1.328-.457 1.874.042l1.15 1.05c.348.318.361.873.144 1.295-.344.66-.547 1.55-.122 2.212.535.83 1.193 1.65 2.763 2.126.475.146 1.085.083 1.603-.126.433-.176.982-.175 1.303.167l1.07 1.138c.589.628.609 1.614-.06 2.156z" fill="#E8E8E8" style="mix-blend-mode:plus-lighter"/></svg>