<svg width="50" height="50" fill="none" xmlns="http://www.w3.org/2000/svg"><g clip-path="url(#a)"><path d="M0 25v25h50V0H0v25zm40.294-1.992c1.27.317 2.237.882 3.127 1.802.46.492 1.144 1.388 1.198 1.605.016.062-2.159 1.52-3.475 2.34-.048.03-.24-.176-.452-.492-.646-.938-1.32-1.342-2.35-1.413-1.517-.104-2.492.69-2.484 2.015-.014.325.06.649.213.937.333.69.954 1.104 2.896 1.944 3.58 1.542 5.112 2.556 6.064 4 1.063 1.61 1.302 4.183.58 6.096-.792 2.079-2.761 3.491-5.532 3.958-.856.152-2.887.13-3.808-.037-2.008-.359-3.913-1.35-5.088-2.653-.46-.506-1.358-1.833-1.302-1.927.023-.033.23-.16.459-.293.225-.127 1.064-.613 1.858-1.073l1.437-.834.303.446c.42.642 1.34 1.523 1.895 1.817 1.596.841 3.786.723 4.865-.246a1.84 1.84 0 0 0 .652-1.5c0-.58-.073-.833-.375-1.27-.388-.555-1.181-1.022-3.435-2-2.58-1.111-3.69-1.8-4.707-2.897a6.595 6.595 0 0 1-1.373-2.5c-.19-.706-.237-2.477-.087-3.19.531-2.493 2.412-4.228 5.127-4.745.881-.167 2.93-.104 3.794.11zm-11.738 2.088.017 2.048h-6.51v18.491h-4.605V27.144h-6.504v-2.009c0-1.112.023-2.041.054-2.062.025-.033 3.986-.05 8.786-.042l8.74.025.022 2.04z" fill="#e8e8e8"/></g><defs><clipPath id="a"><rect width="50" height="50" rx="25"/></clipPath></defs></svg>