<svg viewBox="0 0 33 38" fill="none"><path d="m16.5 1.267.302-1.218a.961.961 0 0 0-.604 0l.302 1.218zM1.1 6.333.798 5.115c-.516.17-.85.744-.791 1.358l1.093-.14zm2.2 22.8-1.093.14c.041.427.267.801.601.993l.492-1.133zm13.2 7.6-.492 1.133c.31.179.674.179.984 0l-.492-1.133zm13.2-7.6.492 1.133c.334-.192.56-.566.601-.993l-1.093-.14zm2.2-22.8 1.093.14c.06-.614-.275-1.188-.79-1.358L31.9 6.333zM16.5 7.6l1.008-.508L16.5 4.44l-1.008 2.652L16.5 7.6zM16.198.049.798 5.115l.604 2.436 15.4-5.066-.604-2.436zM.007 6.473l2.2 22.8 2.186-.28-2.2-22.8-2.186.28zm2.801 23.793 13.2 7.6.984-2.266-13.2-7.6-.984 2.266zm14.184 7.6 13.2-7.6L29.208 28l-13.2 7.6.984 2.266zm13.801-8.593 2.2-22.8-2.186-.28-2.2 22.8 2.186.28zm1.41-24.158L16.802.05l-.605 2.436 15.4 5.066.604-2.436zM9.807 28.375l7.7-20.267-2.016-1.016-7.7 20.267 2.016 1.015zm5.684-20.267 7.7 20.266 2.016-1.015-7.7-20.267-2.016 1.016zM11 22.8h11v-2.533H11V22.8z" fill="#E8E8E8"/></svg>