<svg width="40" height="40" fill="none" xmlns="http://www.w3.org/2000/svg"><path d="M38.81 27.28c-.68 1.68-1.603 3.188-2.677 4.604-1.483 1.955-3.197 3.674-5.34 4.968-2.416 1.459-4.999 2.435-7.802 2.901-3.277.545-6.436.17-9.548-.93-1.994-.704-3.862-1.637-5.532-2.884-3.327-2.484-5.783-5.593-6.975-9.594-.686-2.303-1.02-4.63-.918-7.018.067-1.578.417-3.146.79-4.645.165-.66.267-1.205.384-1.799.098-.498.196-1.644.59-1.525.368.14.081 1.124.025 1.642-.237 2.18-.437 4.367.345 6.489.962 2.609 2.524 4.846 4.588 6.74 2.644 2.428 5.77 3.948 9.315 4.686 2.039.425 4.05.39 6.084-.065 1.669-.373 3.23-.998 4.685-1.834 2.628-1.509 4.397-3.768 5.649-6.453 1.06-2.275 1.421-4.667 1.173-7.121-.283-2.803-1.464-5.251-3.382-7.372-1.057-1.168-2.395-1.902-3.78-2.591-.478-.239-1.47-.582-1.386-.82.13-.188.322-.093.463-.058 2.781.683 5.439 1.657 7.855 3.197 1.515.966 2.805 2.151 3.753 3.672.244.392.543.75.785 1.143 1.256 2.032 1.859 4.242 2.003 6.61.118 1.925-.004 3.822-.414 5.699-.172.789-.477 1.55-.733 2.358z" fill="#5431FF"/><path d="M18.076 3.743c-2.632.676-4.857 1.98-6.73 3.831-2.197 2.17-3.43 4.823-3.863 7.833-.365 2.54.048 4.985 1.178 7.281.682 1.385 1.703 2.562 2.853 3.618.17.157.359.296.542.44.224.178.215.384.1.616-.131.27-.34.16-.523.1-1.18-.387-2.207-1.046-3.102-1.863-1.447-1.32-2.724-2.79-3.646-4.521-1.305-2.45-1.769-5.027-1.338-7.774.266-1.694.663-3.337 1.499-4.847 1.128-2.037 2.697-3.701 4.6-5.08C11.824 1.797 14.27.815 16.9.27c1.774-.366 3.582-.328 5.375-.083a20.59 20.59 0 0 1 6.747 2.164c1.197.624 2.355 1.342 3.334 2.286.257.249.553.507.391.915-.135.068-.222.022-.291-.038-1.037-.903-2.34-1.324-3.61-1.71-2.39-.728-4.864-.951-7.373-.7-1.14.115-2.241.414-3.398.638z" fill="#5431FF"/><path d="M23.443 24.803c-3.249.964-6.253.69-8.915-1.478-.906-.738-1.52-1.704-2.027-2.73-.847-1.71-1.104-3.513-.639-5.36.684-2.712 2.203-4.786 4.815-6.114 2.622-1.333 7.142-.895 9.532 1.802 2.17 2.449 3.043 5.238 2.149 8.43-.227.81-.58 1.603-1.096 2.275-1.015 1.323-2.118 2.572-3.819 3.175zm-6.604-2.525c.388.297.82.506 1.298.62 1.008.238 2.014.372 3.064.224 1.676-.236 3.045-.988 4.007-2.315 2.093-2.889 1.396-7.145-1.392-9.081-1.886-1.31-4.374-1.755-6.475-.475-.82.5-1.66.98-2.213 1.807-.494.741-.752 1.564-.992 2.404-.756 2.637.28 5.316 2.703 6.816z" fill="#5431FF"/></svg>