<svg width="1366" height="2251" fill="none" xmlns="http://www.w3.org/2000/svg"><style>*{opacity:.8}</style><path d="m52 2134.5 25.5-10.5 24.5 10.5 25.5-10.5 24.5 10.5 25.5-10.5 24.5 10.5 25.5-10.5 24.5 10.5" stroke="#765AFF" stroke-opacity=".5" stroke-dasharray="1 8"/><path d="M452 1944c-56.333 0-102-45.67-102-102s45.667-102 102-102" stroke="#FAB84D" stroke-opacity=".5" stroke-width="20" stroke-linecap="round"/><path d="M498 1853c41.421 0 75 33.58 75 75s-33.579 75-75 75" stroke="#FF4456" stroke-opacity=".5" stroke-width="40"/><path d="M579 1733c0 16.57-13.655 30-30.5 30s-30.5-13.43-30.5-30" stroke="#765AFF" stroke-opacity=".5" stroke-width="30"/><path d="m647.5 1381.96 34.8 20.09c4.95 2.86 8 8.14 8 13.86v40.18c0 5.72-3.05 11-8 13.86l-34.8 20.09a15.99 15.99 0 0 1-16 0l-34.8-20.09c-4.95-2.86-8-8.14-8-13.86v-40.18c0-5.72 3.05-11 8-13.86l34.8-20.09a15.99 15.99 0 0 1 16 0z" fill="#765AFF" fill-opacity=".5"/><path fill-rule="evenodd" clip-rule="evenodd" d="M649.5 1362.68a20.013 20.013 0 0 0-20 0l-48.5 28a20.002 20.002 0 0 0-10 17.32v56a19.99 19.99 0 0 0 10 17.32l48.5 28.01a20.013 20.013 0 0 0 20 0l48.5-28.01a19.99 19.99 0 0 0 10-17.32v-56c0-7.14-3.812-13.75-10-17.32l-48.5-28zm-20 15.82a20.013 20.013 0 0 1 20 0l34.8 20.09c6.188 3.57 10 10.18 10 17.32v40.18c0 7.15-3.812 13.75-10 17.33l-34.8 20.09a20.013 20.013 0 0 1-20 0l-34.8-20.09a20.019 20.019 0 0 1-10-17.33v-40.18c0-7.14 3.812-13.75 10-17.32l34.8-20.09z" fill="#765AFF" fill-opacity=".5"/><path d="M680.967 1597.65a10.022 10.022 0 0 1-2.588-4.48l1.449-.39c-.19-.71-.29-1.45-.29-2.2v-2.02h-1.5v-4.04h1.5v-4.03h-1.5v-4.04h1.5v-4.04h-1.5v-4.04h1.5v-4.04h-1.5v-4.03h1.5v-4.04h-1.5v-4.04h1.5v-4.04h-1.5v-4.03h1.5v-2.02c0-.76.1-1.49.29-2.2l-1.449-.39a9.968 9.968 0 0 1 2.588-4.48l1.061 1.06a8.214 8.214 0 0 1 1.76-1.35l1.749-1.01-.75-1.3 3.497-2.02.75 1.3 3.496-2.02-.75-1.3 3.497-2.02.75 1.3 3.497-2.02-.75-1.3 3.497-2.02.75 1.3 3.497-2.02-.75-1.3 3.496-2.01.75 1.29 3.497-2.01-.75-1.3 3.497-2.02.75 1.3 3.497-2.02-.75-1.3 3.497-2.02.75 1.3 1.748-1.01a8.372 8.372 0 0 1 2.05-.85l-.388-1.45c1.695-.45 3.481-.45 5.176 0l-.388 1.45c.708.19 1.398.47 2.05.85l1.748 1.01.75-1.3 3.497 2.02-.75 1.3 3.497 2.02.75-1.3 3.497 2.02-.75 1.3 3.497 2.01.75-1.29 3.496 2.01-.75 1.3 3.497 2.02.75-1.3 3.497 2.02-.75 1.3 3.497 2.02.75-1.3 3.497 2.02-.75 1.3 3.496 2.02.75-1.3 3.497 2.02-.75 1.3 1.749 1.01c.652.37 1.242.83 1.76 1.35l1.061-1.06a9.968 9.968 0 0 1 2.588 4.48l-1.449.39c.19.71.29 1.44.29 2.2v2.02h1.5v4.03h-1.5v4.04h1.5v4.04h-1.5v4.04h1.5v4.03h-1.5v4.04h1.5v4.04h-1.5v4.04h1.5v4.04h-1.5v4.03h1.5v4.04h-1.5v2.02c0 .75-.1 1.49-.29 2.2l1.449.39a10.022 10.022 0 0 1-2.588 4.48l-1.061-1.06a8.55 8.55 0 0 1-1.76 1.35l-1.749 1.01.75 1.3-3.497 2.02-.75-1.3-3.496 2.02.75 1.3-3.497 2.02-.75-1.3-3.497 2.02.75 1.3-3.497 2.01-.75-1.29-3.497 2.01.75 1.3-3.496 2.02-.75-1.3-3.497 2.02.75 1.3-3.497 2.02-.75-1.3-3.497 2.02.75 1.3-3.497 2.02-.75-1.3-1.748 1.01a8.78 8.78 0 0 1-2.05.85l.388 1.45c-1.695.45-3.481.45-5.176 0l.388-1.45a8.78 8.78 0 0 1-2.05-.85l-1.748-1.01-.75 1.3-3.497-2.02.75-1.3-3.497-2.02-.75 1.3-3.497-2.02.75-1.3-3.497-2.02-.75 1.3-3.496-2.02.75-1.3-3.497-2.01-.75 1.29-3.497-2.01.75-1.3-3.497-2.02-.75 1.3-3.497-2.02.75-1.3-3.496-2.02-.75 1.3-3.497-2.02.75-1.3-1.749-1.01a8.55 8.55 0 0 1-1.76-1.35l-1.061 1.06z" stroke="#FAB84D" stroke-opacity=".5" stroke-width="3" stroke-dasharray="4 4"/><path d="M817 1454.09a5.96 5.96 0 0 1 6 0l19.981 11.53c1.856 1.07 3 3.05 3 5.2v23.07c0 2.14-1.144 4.12-3 5.2L823 1510.62a6.009 6.009 0 0 1-6 0l-19.981-11.53a6.021 6.021 0 0 1-3-5.2v-23.07c0-2.15 1.144-4.13 3-5.2L817 1454.09z" fill="#FF4456" fill-opacity=".5"/><path d="M1003 1287.65v12.32l60.64-34.97h-21.36l-39.28 22.65zM1100.09 1265l-97.09 55.99v12.31l118.45-68.3h-21.36zM1157.9 1265l-154.9 89.32v12.32L1179.26 1265h-21.36zM1215.7 1265 1003 1387.65v12.32L1237.06 1265h-21.36zM1270 1267.03l-267 153.96v12.31l267-153.96v-12.31zM1270 1300.36l-267 153.96v12.32l267-153.96v-12.32zM1270 1333.69l-267 153.96v12.32l267-153.96v-12.32zM1270 1367.03l-267 153.96v12.31l267-153.96v-12.31zM1270 1400.36l-267 153.96v12.32l267-153.96v-12.32zM1270 1433.69l-267 153.96v12.32l267-153.96v-12.32zM1270 1467.03l-267 153.96v12.31l267-153.96v-12.31zM1270 1500.36l-267 153.96V1665h2.84L1270 1512.68v-12.32zM1270 1533.69 1042.28 1665h21.36L1270 1546.01v-12.32zM1270 1567.03 1100.09 1665h21.36l148.55-85.66v-12.31zM1270 1600.36 1157.9 1665h21.36l90.74-52.32v-12.32zM1270 1633.69l-54.3 31.31h21.36l32.94-18.99v-12.32z" fill="#765AFF" fill-opacity=".5"/><path fill-rule="evenodd" clip-rule="evenodd" d="M200.118 1433.76 199 1436l1.118 2.24 35 70a4.993 4.993 0 0 0 6.708 2.23 5 5 0 0 0 2.236-6.71L210.18 1436l33.882-67.76 1.118-2.24-1.118-2.24L210.18 1296l33.882-67.76a5 5 0 0 0-2.236-6.71 4.993 4.993 0 0 0-6.708 2.23l-35 70L199 1296l1.118 2.24L234 1366l-33.882 67.76zm55 0L254 1436l1.118 2.24 35 70a4.993 4.993 0 0 0 6.708 2.23 5 5 0 0 0 2.236-6.71L265.18 1436l33.882-67.76 1.118-2.24-1.118-2.24L265.18 1296l33.882-67.76a5 5 0 0 0-2.236-6.71 4.993 4.993 0 0 0-6.708 2.23l-35 70L254 1296l1.118 2.24L289 1366l-33.882 67.76z" fill="#FF4456" fill-opacity=".5"/><path d="M525 1030.02s24.347 11.28 41.071 12.46c14.982 1.05 36.348.7 53.012-2.83m0 0c18.542-3.93 31.262-11.81 22.881-26.09-13.839-23.578-45.089-15.57-53.125 3.11-5.751 13.38 10.453 19.84 30.244 22.98zm0 0c12.158 1.92 25.669 2.59 36.274 2.83 25.447.56 44.643-8.9 44.643-8.9" stroke="#765AFF" stroke-opacity=".5" stroke-width="2" stroke-linecap="round"/><path d="M711.632 1108.09s-29.695 4.75-45.962 14.13c-30.786 17.75-84.096 59.19-52.281 74.48 27.671 13.3 51.65-13.74 47.364-36.18-4.952-25.93-51.713.75-77.977 17.63-23.981 15.41-35.854 36.26-35.854 36.26" stroke="#FAB84D" stroke-opacity=".5" stroke-width="6" stroke-linecap="round"/><path d="M667.2 1284.86a.99.99 0 0 0 .485 1.32l8.162 3.8c.5.23 1.095.01 1.328-.49.233-.5.015-1.09-.485-1.33l-7.255-3.37 3.373-7.25a1.002 1.002 0 0 0-1.814-.85l-3.794 8.17zm56.107-72.94-.253.97.253-.97zm-25.76 57.66.655.75-.655-.75zm49.067-49.07.691.72-.691-.72zm-50.784 22.33.928-.38-.928.38zm-27.723 42.44.343.94h.003c.001 0 .004-.01.007-.01.006 0 .014 0 .026-.01.023 0 .057-.02.101-.03.088-.04.218-.09.387-.15l1.45-.56-.732-1.86c-.612.24-1.095.43-1.425.55-.165.06-.292.11-.377.14-.042.02-.074.03-.096.04-.01 0-.018 0-.023.01h-.007l.343.94zm6.22-1.42a134.23 134.23 0 0 0 3.857-1.69l-.828-1.82c-1.365.62-2.651 1.18-3.81 1.67l.781 1.84zm7.674-3.49c1.234-.6 2.497-1.24 3.763-1.91l-.937-1.77c-1.244.66-2.488 1.29-3.704 1.88l.878 1.8zm7.46-3.97a77.135 77.135 0 0 0 3.608-2.23l-1.101-1.67c-1.13.74-2.31 1.47-3.515 2.18l1.008 1.72zm7.083-4.71c.576-.45 1.13-.9 1.658-1.36l-1.311-1.51c-.498.43-1.025.86-1.575 1.29l1.228 1.58zm1.658-1.36c.51-.44 1.028-.9 1.554-1.37l-1.332-1.49c-.519.47-1.03.92-1.533 1.35l1.311 1.51zm4.612-4.16c.986-.93 1.988-1.89 3-2.88l-1.401-1.43c-1 .98-1.992 1.93-2.967 2.85l1.368 1.46zm5.926-5.81c.957-.99 1.915-1.99 2.868-3.01l-1.462-1.36c-.942 1.01-1.89 2-2.837 2.97l1.431 1.4zm5.664-6.07c.921-1.04 1.83-2.08 2.723-3.14l-1.527-1.29a160.34 160.34 0 0 1-2.689 3.1l1.493 1.33zm5.364-6.35c.873-1.09 1.722-2.19 2.541-3.29l-1.603-1.19c-.805 1.08-1.641 2.16-2.501 3.23l1.563 1.25zm4.968-6.68a81.955 81.955 0 0 0 2.274-3.5l-1.705-1.04a88.378 88.378 0 0 1-2.219 3.41l1.65 1.13zm4.358-7.14a46.342 46.342 0 0 0 1.802-3.81l-1.847-.77c-.49 1.18-1.068 2.4-1.725 3.65l1.77.93zm3.176-7.85c.384-1.49.606-2.93.631-4.3l-1.999-.04c-.022 1.19-.215 2.47-.569 3.84l1.937.5zm-.112-8.73c-.558-1.4-1.438-2.64-2.667-3.7l-1.301 1.52c.986.85 1.673 1.83 2.11 2.92l1.858-.74zm-6.522-5.92c-.647-.25-1.339-.47-2.076-.66l-.506 1.93c.671.18 1.292.38 1.864.6l.718-1.87zm-2.076-.66c-.725-.19-1.441-.35-2.149-.48l-.354 1.97c.656.12 1.321.26 1.997.44l.506-1.93zm-6.546-.88c-1.524-.01-2.994.14-4.405.41l.383 1.96a20.2 20.2 0 0 1 4.018-.37l.004-2zm-8.652 1.7a22.546 22.546 0 0 0-3.897 2.11l1.121 1.65a20.632 20.632 0 0 1 3.547-1.92l-.771-1.84zm-7.308 4.92a24.872 24.872 0 0 0-2.84 3.38l1.636 1.15a23.61 23.61 0 0 1 2.615-3.11l-1.411-1.42zm-5.063 7.18a26.475 26.475 0 0 0-1.571 4.11l1.921.56c.378-1.3.864-2.58 1.453-3.81l-1.803-.86zm-2.441 8.43a24.191 24.191 0 0 0-.105 4.41l1.995-.14c-.092-1.33-.058-2.69.097-4.05l-1.987-.22zm.638 8.78c.199.72.437 1.43.713 2.12l1.857-.75c-.249-.62-.463-1.25-.643-1.9l-1.927.53zm.713 2.12c.277.69.591 1.33.94 1.91l1.713-1.04c-.289-.48-.555-1.01-.796-1.62l-1.857.75zm3.934 5.04c1.243.78 2.64 1.21 4.136 1.34l.176-1.99c-1.226-.11-2.309-.45-3.246-1.04l-1.066 1.69zm8.303 1.05c1.263-.25 2.572-.64 3.915-1.15l-.706-1.87c-1.262.48-2.466.83-3.602 1.06l.393 1.96zm7.588-2.76a64.858 64.858 0 0 0 3.496-1.9l-1.011-1.73a53.195 53.195 0 0 1-3.375 1.83l.89 1.8zm6.858-3.99a97.123 97.123 0 0 0 3.262-2.24l-1.16-1.63c-1.071.77-2.139 1.5-3.198 2.19l1.096 1.68zm6.441-4.58c1.039-.79 2.075-1.6 3.103-2.42l-1.25-1.56a176.09 176.09 0 0 1-3.063 2.39l1.21 1.59zm6.148-4.92c1.011-.84 2.009-1.69 2.992-2.55l-1.311-1.51c-.974.85-1.964 1.69-2.964 2.53l1.283 1.53zm5.941-5.15c.993-.89 1.963-1.77 2.905-2.64l-1.356-1.47c-.936.86-1.899 1.74-2.885 2.62l1.336 1.49zm5.771-5.32c.483-.45.957-.91 1.42-1.35l-1.382-1.44c-.461.44-.931.88-1.412 1.34l1.374 1.45zm1.42-1.35a66.97 66.97 0 0 0 1.611-1.58l-1.424-1.41a96.13 96.13 0 0 1-1.569 1.55l1.382 1.44zm4.689-4.89a81.961 81.961 0 0 0 2.889-3.46l-1.57-1.24a81.94 81.94 0 0 1-2.82 3.38l1.501 1.32zm5.586-7.08a87.356 87.356 0 0 0 2.504-3.75l-1.691-1.07a81.18 81.18 0 0 1-2.447 3.67l1.634 1.15zm4.812-7.63a78.875 78.875 0 0 0 2.101-3.99l-1.795-.88a89.346 89.346 0 0 1-2.05 3.9l1.744.97zm3.968-8.1a42.84 42.84 0 0 0 .774-1.99c.017-.05.03-.08.039-.11a.118.118 0 0 0 .01-.03c.002 0 .003 0 .003-.01h.002l-.948-.32-.947-.32h-.002a12.806 12.806 0 0 1-.184.51c-.128.35-.325.86-.594 1.51l1.847.76zM1095 789l47.55 34.549-18.16 55.902h-58.78l-18.16-55.902L1095 789z" fill="#FF4456" fill-opacity=".5"/><path fill-rule="evenodd" clip-rule="evenodd" d="M1124.74 956.792 1103 941l-47.55 34.549 18.16 55.901h30.94l26.98 15.58 43.68-39.33-23.91-53.7-26.56 2.792zm3.62 2.635-3.62-2.635-31.9 3.352-12.22 57.496 23.93 13.81h6l20.59 11.89 40.44-36.41-22.13-49.719-21.09 2.216zm0 0 22.19 16.122-18.16 55.901h-21.84l-26.54-15.32 11.32-53.23 33.03-3.473z" fill="#FAB84D" fill-opacity=".5"/><path d="m1223.51 846.992 1.63-3.661.91.406.52-1.167 1.27.134.1-.995 3.99.419-.1.995 3.98.419.11-.995 3.98.419-.1.995 3.98.419.11-.995 3.98.419-.1.995 3.98.418.11-.994 3.98.419-.1.994 3.99.419.1-.994 3.99.419-.11.994 3.99.419.1-.994 3.99.418-.11.995 3.99.419.1-.995 3.99.419-.11.995 3.99.419.1-.995 3.99.419-.1.995 3.98.419.11-.995 3.98.419-.1.994 3.98.419.11-.994 3.98.419-.1.994 3.98.419.11-.994 3.98.419-.1.994 1.27.134.27 1.249.97-.208.84 3.92-.98.208.83 3.92.98-.208.83 3.92-.98.208.84 3.92.98-.208.83 3.92-.98.208.83 3.92.98-.208.84 3.92-.98.208.83 3.92.98-.208.83 3.921-.98.207.84 3.92.98-.207.83 3.92-.98.208.83 3.92.98-.208.84 3.92-.98.208.83 3.92.98-.208.83 3.92-.98.208.84 3.92.98-.208.83 3.92-.98.208.83 3.92.98-.208.83 3.92-.97.208.83 3.92.98-.208.83 3.92-.98.208.27 1.249-1.11.639.5.866-3.47 2.004-.5-.866-3.47 2.004.5.866-3.47 2.003-.5-.866-3.47 2.004.5.866-3.47 2.004-.5-.866-3.47 2.004.5.866-3.47 2.004-.5-.866-3.47 2.004.5.866-3.47 2.003-.5-.866-3.47 2.004.5.866-3.48 2.004-.5-.866-3.47 2.004.5.866-3.47 2.004-.5-.866-3.47 2.003.5.866-3.47 2.004-.5-.866-3.47 2.004.5.866-3.47 2.004-.5-.866-3.47 2.004.5.866-3.47 2.004-.5-.867-3.47 2.004.5.866-3.47 2.004-.5-.866-1.11.639-.95-.855-.67.743-2.98-2.681.67-.744-2.97-2.681-.67.743-2.98-2.682.67-.743-2.98-2.681-.67.743-2.98-2.682.67-.743-2.98-2.682-.67.743-2.97-2.681.66-.743-2.97-2.682-.67.743-2.98-2.681.67-.744-2.98-2.681-.67.743-2.98-2.682.67-.743-2.98-2.681-.67.743-2.97-2.682.67-.743-2.98-2.682-.67.743-2.98-2.681.67-.743-2.98-2.682-.67.743-2.98-2.681.67-.744-2.98-2.681-.67.743-2.97-2.682.67-.743-2.98-2.681-.67.743-2.98-2.682.67-.743-.95-.855.52-1.167-.91-.406 1.63-3.661.91.406 1.63-3.661-.91-.407 1.63-3.661.91.407 1.63-3.661-.91-.407 1.63-3.661.91.407 1.63-3.661-.91-.407 1.63-3.661.91.406 1.63-3.661-.91-.406 1.63-3.662.91.407 1.63-3.661-.91-.407 1.63-3.661.91.407 1.63-3.661-.91-.407 1.63-3.661.91.407 1.63-3.662-.91-.406 1.63-3.662.91.407 1.63-3.661-.91-.407 1.63-3.661.91.407 1.63-3.661-.91-.407 1.63-3.661.91.407 1.63-3.662-.91-.406z" stroke="#765AFF" stroke-opacity=".5" stroke-width="2" stroke-dasharray="4 4"/><path d="M60 933c0 82.84 67.157 150 150 150s150-67.16 150-150c0-82.843-67.157-150-150-150" stroke="#FAB84D" stroke-opacity=".5" stroke-width="4" stroke-linecap="round"/><circle cx="998" cy="352" r="30" fill="#765AFF" fill-opacity=".5"/><path d="M1088 518c0 33.137-26.86 60-60 60-33.137 0-60-26.863-60-60s26.863-60 60-60c33.14 0 60 26.863 60 60z" stroke="#FAB84D" stroke-opacity=".5" stroke-width="30"/><g clip-path="url(#clip0_171_198)"><path d="m428 477 51.962 90H376.039L428 477z" fill="#765AFF" fill-opacity=".5"/><path d="m606.059 574.106 41.017-153.077L494 462.046l6.937 6.937 134.124-35.938-35.939 134.124 6.937 6.937z" fill="#FF4456" fill-opacity=".5"/><path d="m590.957 559.004 29.962-111.816-111.817 29.961 81.855 81.855z" fill="#FAB84D" fill-opacity=".5"/><path d="m618.466 697.751-48.99-48.99 66.922-17.932-17.932 66.922z" stroke="#765AFF" stroke-opacity=".5" stroke-width="5"/></g><path d="M11.613 9.147c0 3.395-2.6 6.147-5.807 6.147C2.6 15.294 0 12.542 0 9.147 0 5.752 2.6 3 5.806 3c3.207 0 5.807 2.752 5.807 6.147z" fill="url(#paint0_linear_171_198)" fill-opacity=".5"/><path d="M46.452 9.147c0 3.395-2.6 6.147-5.807 6.147-3.207 0-5.806-2.752-5.806-6.147 0-3.395 2.6-6.147 5.806-6.147 3.207 0 5.807 2.752 5.807 6.147z" fill="url(#paint1_linear_171_198)" fill-opacity=".5"/><path d="M81.29 9.147c0 3.395-2.6 6.147-5.806 6.147-3.207 0-5.807-2.752-5.807-6.147 0-3.395 2.6-6.147 5.807-6.147 3.207 0 5.806 2.752 5.806 6.147z" fill="url(#paint2_linear_171_198)" fill-opacity=".5"/><path d="M116.129 9.147c0 3.395-2.6 6.147-5.806 6.147-3.207 0-5.807-2.752-5.807-6.147 0-3.395 2.6-6.147 5.807-6.147 3.206 0 5.806 2.752 5.806 6.147z" fill="url(#paint3_linear_171_198)" fill-opacity=".5"/><path d="M150.968 9.147c0 3.395-2.6 6.147-5.807 6.147-3.207 0-5.806-2.752-5.806-6.147 0-3.395 2.599-6.147 5.806-6.147s5.807 2.752 5.807 6.147z" fill="url(#paint4_linear_171_198)" fill-opacity=".5"/><path d="M185.806 9.147c0 3.395-2.599 6.147-5.806 6.147s-5.806-2.752-5.806-6.147C174.194 5.752 176.793 3 180 3s5.806 2.752 5.806 6.147z" fill="url(#paint5_linear_171_198)" fill-opacity=".5"/><path d="M220.645 9.147c0 3.395-2.599 6.147-5.806 6.147s-5.807-2.752-5.807-6.147c0-3.395 2.6-6.147 5.807-6.147 3.207 0 5.806 2.752 5.806 6.147z" fill="url(#paint6_linear_171_198)" fill-opacity=".5"/><path d="M255.484 9.147c0 3.395-2.6 6.147-5.807 6.147-3.206 0-5.806-2.752-5.806-6.147 0-3.395 2.6-6.147 5.806-6.147 3.207 0 5.807 2.752 5.807 6.147z" fill="url(#paint7_linear_171_198)" fill-opacity=".5"/><path d="M290.323 9.147c0 3.395-2.6 6.147-5.807 6.147-3.207 0-5.806-2.752-5.806-6.147 0-3.395 2.599-6.147 5.806-6.147s5.807 2.752 5.807 6.147z" fill="url(#paint8_linear_171_198)" fill-opacity=".5"/><path d="M325.161 9.147c0 3.395-2.599 6.147-5.806 6.147s-5.807-2.752-5.807-6.147c0-3.395 2.6-6.147 5.807-6.147 3.207 0 5.806 2.752 5.806 6.147z" fill="url(#paint9_linear_171_198)" fill-opacity=".5"/><path d="M360 9.147c0 3.395-2.6 6.147-5.806 6.147-3.207 0-5.807-2.752-5.807-6.147 0-3.395 2.6-6.147 5.807-6.147C357.4 3 360 5.752 360 9.147z" fill="url(#paint10_linear_171_198)" fill-opacity=".5"/><path d="M11.613 46.03c0 3.394-2.6 6.146-5.807 6.146C2.6 52.176 0 49.424 0 46.03c0-3.395 2.6-6.147 5.806-6.147 3.207 0 5.807 2.753 5.807 6.147z" fill="url(#paint11_linear_171_198)" fill-opacity=".5"/><path d="M46.452 46.03c0 3.394-2.6 6.146-5.807 6.146-3.207 0-5.806-2.752-5.806-6.147 0-3.395 2.6-6.147 5.806-6.147 3.207 0 5.807 2.753 5.807 6.147z" fill="url(#paint12_linear_171_198)" fill-opacity=".5"/><path d="M81.29 46.03c0 3.394-2.6 6.146-5.806 6.146-3.207 0-5.807-2.752-5.807-6.147 0-3.395 2.6-6.147 5.807-6.147 3.207 0 5.806 2.753 5.806 6.147z" fill="url(#paint13_linear_171_198)" fill-opacity=".5"/><path d="M116.129 46.03c0 3.394-2.6 6.146-5.806 6.146-3.207 0-5.807-2.752-5.807-6.147 0-3.395 2.6-6.147 5.807-6.147 3.206 0 5.806 2.753 5.806 6.147z" fill="url(#paint14_linear_171_198)" fill-opacity=".5"/><path d="M150.968 46.03c0 3.394-2.6 6.146-5.807 6.146-3.207 0-5.806-2.752-5.806-6.147 0-3.395 2.599-6.147 5.806-6.147s5.807 2.753 5.807 6.147z" fill="url(#paint15_linear_171_198)" fill-opacity=".5"/><path d="M185.806 46.03c0 3.394-2.599 6.146-5.806 6.146s-5.806-2.752-5.806-6.147c0-3.395 2.599-6.147 5.806-6.147s5.806 2.753 5.806 6.147z" fill="url(#paint16_linear_171_198)" fill-opacity=".5"/><path d="M220.645 46.03c0 3.394-2.599 6.146-5.806 6.146s-5.807-2.752-5.807-6.147c0-3.395 2.6-6.147 5.807-6.147 3.207 0 5.806 2.753 5.806 6.147z" fill="url(#paint17_linear_171_198)" fill-opacity=".5"/><path d="M255.484 46.03c0 3.394-2.6 6.146-5.807 6.146-3.206 0-5.806-2.752-5.806-6.147 0-3.395 2.6-6.147 5.806-6.147 3.207 0 5.807 2.753 5.807 6.147z" fill="url(#paint18_linear_171_198)" fill-opacity=".5"/><path d="M290.323 46.03c0 3.394-2.6 6.146-5.807 6.146-3.207 0-5.806-2.752-5.806-6.147 0-3.395 2.599-6.147 5.806-6.147s5.807 2.753 5.807 6.147z" fill="url(#paint19_linear_171_198)" fill-opacity=".5"/><path d="M325.161 46.03c0 3.394-2.599 6.146-5.806 6.146s-5.807-2.752-5.807-6.147c0-3.395 2.6-6.147 5.807-6.147 3.207 0 5.806 2.753 5.806 6.147z" fill="url(#paint20_linear_171_198)" fill-opacity=".5"/><path d="M360 46.03c0 3.394-2.6 6.146-5.806 6.146-3.207 0-5.807-2.752-5.807-6.147 0-3.395 2.6-6.147 5.807-6.147 3.206 0 5.806 2.753 5.806 6.147z" fill="url(#paint21_linear_171_198)" fill-opacity=".5"/><path d="M11.613 82.912c0 3.395-2.6 6.147-5.807 6.147C2.6 89.059 0 86.307 0 82.912c0-3.395 2.6-6.147 5.806-6.147 3.207 0 5.807 2.752 5.807 6.147z" fill="url(#paint22_linear_171_198)" fill-opacity=".5"/><path d="M46.452 82.912c0 3.395-2.6 6.147-5.807 6.147-3.207 0-5.806-2.752-5.806-6.147 0-3.395 2.6-6.147 5.806-6.147 3.207 0 5.807 2.752 5.807 6.147z" fill="url(#paint23_linear_171_198)" fill-opacity=".5"/><path d="M81.29 82.912c0 3.395-2.6 6.147-5.806 6.147-3.207 0-5.807-2.752-5.807-6.147 0-3.395 2.6-6.147 5.807-6.147 3.207 0 5.806 2.752 5.806 6.147z" fill="url(#paint24_linear_171_198)" fill-opacity=".5"/><path d="M116.129 82.912c0 3.395-2.6 6.147-5.806 6.147-3.207 0-5.807-2.752-5.807-6.147 0-3.395 2.6-6.147 5.807-6.147 3.206 0 5.806 2.752 5.806 6.147z" fill="url(#paint25_linear_171_198)" fill-opacity=".5"/><path d="M150.968 82.912c0 3.395-2.6 6.147-5.807 6.147-3.207 0-5.806-2.752-5.806-6.147 0-3.395 2.599-6.147 5.806-6.147s5.807 2.752 5.807 6.147z" fill="url(#paint26_linear_171_198)" fill-opacity=".5"/><path d="M185.806 82.912c0 3.395-2.599 6.147-5.806 6.147s-5.806-2.752-5.806-6.147c0-3.395 2.599-6.147 5.806-6.147s5.806 2.752 5.806 6.147z" fill="url(#paint27_linear_171_198)" fill-opacity=".5"/><path d="M220.645 82.912c0 3.395-2.599 6.147-5.806 6.147s-5.807-2.752-5.807-6.147c0-3.395 2.6-6.147 5.807-6.147 3.207 0 5.806 2.752 5.806 6.147z" fill="url(#paint28_linear_171_198)" fill-opacity=".5"/><path d="M255.484 82.912c0 3.395-2.6 6.147-5.807 6.147-3.206 0-5.806-2.752-5.806-6.147 0-3.395 2.6-6.147 5.806-6.147 3.207 0 5.807 2.752 5.807 6.147z" fill="url(#paint29_linear_171_198)" fill-opacity=".5"/><path d="M290.323 82.912c0 3.395-2.6 6.147-5.807 6.147-3.207 0-5.806-2.752-5.806-6.147 0-3.395 2.599-6.147 5.806-6.147s5.807 2.752 5.807 6.147z" fill="url(#paint30_linear_171_198)" fill-opacity=".5"/><path d="M325.161 82.912c0 3.395-2.599 6.147-5.806 6.147s-5.807-2.752-5.807-6.147c0-3.395 2.6-6.147 5.807-6.147 3.207 0 5.806 2.752 5.806 6.147z" fill="url(#paint31_linear_171_198)" fill-opacity=".5"/><path d="M360 82.912c0 3.395-2.6 6.147-5.806 6.147-3.207 0-5.807-2.752-5.807-6.147 0-3.395 2.6-6.147 5.807-6.147 3.206 0 5.806 2.752 5.806 6.147z" fill="url(#paint32_linear_171_198)" fill-opacity=".5"/><path d="M11.613 119.794c0 3.395-2.6 6.147-5.807 6.147-3.206 0-5.806-2.752-5.806-6.147 0-3.395 2.6-6.147 5.806-6.147 3.207 0 5.807 2.752 5.807 6.147z" fill="url(#paint33_linear_171_198)" fill-opacity=".5"/><path d="M46.452 119.794c0 3.395-2.6 6.147-5.807 6.147-3.207 0-5.806-2.752-5.806-6.147 0-3.395 2.6-6.147 5.806-6.147 3.207 0 5.807 2.752 5.807 6.147z" fill="url(#paint34_linear_171_198)" fill-opacity=".5"/><path d="M81.29 119.794c0 3.395-2.6 6.147-5.806 6.147-3.207 0-5.807-2.752-5.807-6.147 0-3.395 2.6-6.147 5.807-6.147 3.207 0 5.806 2.752 5.806 6.147z" fill="url(#paint35_linear_171_198)" fill-opacity=".5"/><path d="M116.129 119.794c0 3.395-2.6 6.147-5.806 6.147-3.207 0-5.807-2.752-5.807-6.147 0-3.395 2.6-6.147 5.807-6.147 3.206 0 5.806 2.752 5.806 6.147z" fill="url(#paint36_linear_171_198)" fill-opacity=".5"/><path d="M150.968 119.794c0 3.395-2.6 6.147-5.807 6.147-3.207 0-5.806-2.752-5.806-6.147 0-3.395 2.599-6.147 5.806-6.147s5.807 2.752 5.807 6.147z" fill="url(#paint37_linear_171_198)" fill-opacity=".5"/><path d="M185.806 119.794c0 3.395-2.599 6.147-5.806 6.147s-5.806-2.752-5.806-6.147c0-3.395 2.599-6.147 5.806-6.147s5.806 2.752 5.806 6.147z" fill="url(#paint38_linear_171_198)" fill-opacity=".5"/><path d="M220.645 119.794c0 3.395-2.599 6.147-5.806 6.147s-5.807-2.752-5.807-6.147c0-3.395 2.6-6.147 5.807-6.147 3.207 0 5.806 2.752 5.806 6.147z" fill="url(#paint39_linear_171_198)" fill-opacity=".5"/><path d="M255.484 119.794c0 3.395-2.6 6.147-5.807 6.147-3.206 0-5.806-2.752-5.806-6.147 0-3.395 2.6-6.147 5.806-6.147 3.207 0 5.807 2.752 5.807 6.147z" fill="url(#paint40_linear_171_198)" fill-opacity=".5"/><path d="M290.323 119.794c0 3.395-2.6 6.147-5.807 6.147-3.207 0-5.806-2.752-5.806-6.147 0-3.395 2.599-6.147 5.806-6.147s5.807 2.752 5.807 6.147z" fill="url(#paint41_linear_171_198)" fill-opacity=".5"/><path d="M325.161 119.794c0 3.395-2.599 6.147-5.806 6.147s-5.807-2.752-5.807-6.147c0-3.395 2.6-6.147 5.807-6.147 3.207 0 5.806 2.752 5.806 6.147z" fill="url(#paint42_linear_171_198)" fill-opacity=".5"/><path d="M360 119.794c0 3.395-2.6 6.147-5.806 6.147-3.207 0-5.807-2.752-5.807-6.147 0-3.395 2.6-6.147 5.807-6.147 3.206 0 5.806 2.752 5.806 6.147z" fill="url(#paint43_linear_171_198)" fill-opacity=".5"/><path d="M11.613 156.676c0 3.395-2.6 6.148-5.807 6.148-3.206 0-5.806-2.753-5.806-6.148 0-3.394 2.6-6.147 5.806-6.147 3.207 0 5.807 2.753 5.807 6.147z" fill="url(#paint44_linear_171_198)" fill-opacity=".5"/><path d="M46.452 156.676c0 3.395-2.6 6.148-5.807 6.148-3.207 0-5.806-2.753-5.806-6.148 0-3.394 2.6-6.147 5.806-6.147 3.207 0 5.807 2.753 5.807 6.147z" fill="url(#paint45_linear_171_198)" fill-opacity=".5"/><path d="M81.29 156.676c0 3.395-2.6 6.148-5.806 6.148-3.207 0-5.807-2.753-5.807-6.148 0-3.394 2.6-6.147 5.807-6.147 3.207 0 5.806 2.753 5.806 6.147z" fill="url(#paint46_linear_171_198)" fill-opacity=".5"/><path d="M116.129 156.676c0 3.395-2.6 6.148-5.806 6.148-3.207 0-5.807-2.753-5.807-6.148 0-3.394 2.6-6.147 5.807-6.147 3.206 0 5.806 2.753 5.806 6.147z" fill="url(#paint47_linear_171_198)" fill-opacity=".5"/><path d="M150.968 156.676c0 3.395-2.6 6.148-5.807 6.148-3.207 0-5.806-2.753-5.806-6.148 0-3.394 2.599-6.147 5.806-6.147s5.807 2.753 5.807 6.147z" fill="url(#paint48_linear_171_198)" fill-opacity=".5"/><path d="M185.806 156.676c0 3.395-2.599 6.148-5.806 6.148s-5.806-2.753-5.806-6.148c0-3.394 2.599-6.147 5.806-6.147s5.806 2.753 5.806 6.147z" fill="url(#paint49_linear_171_198)" fill-opacity=".5"/><path d="M220.645 156.676c0 3.395-2.599 6.148-5.806 6.148s-5.807-2.753-5.807-6.148c0-3.394 2.6-6.147 5.807-6.147 3.207 0 5.806 2.753 5.806 6.147z" fill="url(#paint50_linear_171_198)" fill-opacity=".5"/><path d="M255.484 156.676c0 3.395-2.6 6.148-5.807 6.148-3.206 0-5.806-2.753-5.806-6.148 0-3.394 2.6-6.147 5.806-6.147 3.207 0 5.807 2.753 5.807 6.147z" fill="url(#paint51_linear_171_198)" fill-opacity=".5"/><path d="M290.323 156.676c0 3.395-2.6 6.148-5.807 6.148-3.207 0-5.806-2.753-5.806-6.148 0-3.394 2.599-6.147 5.806-6.147s5.807 2.753 5.807 6.147z" fill="url(#paint52_linear_171_198)" fill-opacity=".5"/><path d="M325.161 156.676c0 3.395-2.599 6.148-5.806 6.148s-5.807-2.753-5.807-6.148c0-3.394 2.6-6.147 5.807-6.147 3.207 0 5.806 2.753 5.806 6.147z" fill="url(#paint53_linear_171_198)" fill-opacity=".5"/><path d="M360 156.676c0 3.395-2.6 6.148-5.806 6.148-3.207 0-5.807-2.753-5.807-6.148 0-3.394 2.6-6.147 5.807-6.147 3.206 0 5.806 2.753 5.806 6.147z" fill="url(#paint54_linear_171_198)" fill-opacity=".5"/><path d="M11.613 193.559c0 3.395-2.6 6.147-5.807 6.147-3.206 0-5.806-2.752-5.806-6.147 0-3.395 2.6-6.147 5.806-6.147 3.207 0 5.807 2.752 5.807 6.147z" fill="url(#paint55_linear_171_198)" fill-opacity=".5"/><path d="M46.452 193.559c0 3.395-2.6 6.147-5.807 6.147-3.207 0-5.806-2.752-5.806-6.147 0-3.395 2.6-6.147 5.806-6.147 3.207 0 5.807 2.752 5.807 6.147z" fill="url(#paint56_linear_171_198)" fill-opacity=".5"/><path d="M81.29 193.559c0 3.395-2.6 6.147-5.806 6.147-3.207 0-5.807-2.752-5.807-6.147 0-3.395 2.6-6.147 5.807-6.147 3.207 0 5.806 2.752 5.806 6.147z" fill="url(#paint57_linear_171_198)" fill-opacity=".5"/><path d="M116.129 193.559c0 3.395-2.6 6.147-5.806 6.147-3.207 0-5.807-2.752-5.807-6.147 0-3.395 2.6-6.147 5.807-6.147 3.206 0 5.806 2.752 5.806 6.147z" fill="url(#paint58_linear_171_198)" fill-opacity=".5"/><path d="M150.968 193.559c0 3.395-2.6 6.147-5.807 6.147-3.207 0-5.806-2.752-5.806-6.147 0-3.395 2.599-6.147 5.806-6.147s5.807 2.752 5.807 6.147z" fill="url(#paint59_linear_171_198)" fill-opacity=".5"/><path d="M185.806 193.559c0 3.395-2.599 6.147-5.806 6.147s-5.806-2.752-5.806-6.147c0-3.395 2.599-6.147 5.806-6.147s5.806 2.752 5.806 6.147z" fill="url(#paint60_linear_171_198)" fill-opacity=".5"/><path d="M220.645 193.559c0 3.395-2.599 6.147-5.806 6.147s-5.807-2.752-5.807-6.147c0-3.395 2.6-6.147 5.807-6.147 3.207 0 5.806 2.752 5.806 6.147z" fill="url(#paint61_linear_171_198)" fill-opacity=".5"/><path d="M255.484 193.559c0 3.395-2.6 6.147-5.807 6.147-3.206 0-5.806-2.752-5.806-6.147 0-3.395 2.6-6.147 5.806-6.147 3.207 0 5.807 2.752 5.807 6.147z" fill="url(#paint62_linear_171_198)" fill-opacity=".5"/><path d="M290.323 193.559c0 3.395-2.6 6.147-5.807 6.147-3.207 0-5.806-2.752-5.806-6.147 0-3.395 2.599-6.147 5.806-6.147s5.807 2.752 5.807 6.147z" fill="url(#paint63_linear_171_198)" fill-opacity=".5"/><path d="M325.161 193.559c0 3.395-2.599 6.147-5.806 6.147s-5.807-2.752-5.807-6.147c0-3.395 2.6-6.147 5.807-6.147 3.207 0 5.806 2.752 5.806 6.147z" fill="url(#paint64_linear_171_198)" fill-opacity=".5"/><path d="M360 193.559c0 3.395-2.6 6.147-5.806 6.147-3.207 0-5.807-2.752-5.807-6.147 0-3.395 2.6-6.147 5.807-6.147 3.206 0 5.806 2.752 5.806 6.147z" fill="url(#paint65_linear_171_198)" fill-opacity=".5"/><path d="M11.613 230.441c0 3.395-2.6 6.147-5.807 6.147-3.206 0-5.806-2.752-5.806-6.147 0-3.395 2.6-6.147 5.806-6.147 3.207 0 5.807 2.752 5.807 6.147z" fill="url(#paint66_linear_171_198)" fill-opacity=".5"/><path d="M46.452 230.441c0 3.395-2.6 6.147-5.807 6.147-3.207 0-5.806-2.752-5.806-6.147 0-3.395 2.6-6.147 5.806-6.147 3.207 0 5.807 2.752 5.807 6.147z" fill="url(#paint67_linear_171_198)" fill-opacity=".5"/><path d="M81.29 230.441c0 3.395-2.6 6.147-5.806 6.147-3.207 0-5.807-2.752-5.807-6.147 0-3.395 2.6-6.147 5.807-6.147 3.207 0 5.806 2.752 5.806 6.147z" fill="url(#paint68_linear_171_198)" fill-opacity=".5"/><path d="M116.129 230.441c0 3.395-2.6 6.147-5.806 6.147-3.207 0-5.807-2.752-5.807-6.147 0-3.395 2.6-6.147 5.807-6.147 3.206 0 5.806 2.752 5.806 6.147z" fill="url(#paint69_linear_171_198)" fill-opacity=".5"/><path d="M150.968 230.441c0 3.395-2.6 6.147-5.807 6.147-3.207 0-5.806-2.752-5.806-6.147 0-3.395 2.599-6.147 5.806-6.147s5.807 2.752 5.807 6.147z" fill="url(#paint70_linear_171_198)" fill-opacity=".5"/><path d="M185.806 230.441c0 3.395-2.599 6.147-5.806 6.147s-5.806-2.752-5.806-6.147c0-3.395 2.599-6.147 5.806-6.147s5.806 2.752 5.806 6.147z" fill="url(#paint71_linear_171_198)" fill-opacity=".5"/><path d="M220.645 230.441c0 3.395-2.599 6.147-5.806 6.147s-5.807-2.752-5.807-6.147c0-3.395 2.6-6.147 5.807-6.147 3.207 0 5.806 2.752 5.806 6.147z" fill="url(#paint72_linear_171_198)" fill-opacity=".5"/><path d="M255.484 230.441c0 3.395-2.6 6.147-5.807 6.147-3.206 0-5.806-2.752-5.806-6.147 0-3.395 2.6-6.147 5.806-6.147 3.207 0 5.807 2.752 5.807 6.147z" fill="url(#paint73_linear_171_198)" fill-opacity=".5"/><path d="M290.323 230.441c0 3.395-2.6 6.147-5.807 6.147-3.207 0-5.806-2.752-5.806-6.147 0-3.395 2.599-6.147 5.806-6.147s5.807 2.752 5.807 6.147z" fill="url(#paint74_linear_171_198)" fill-opacity=".5"/><path d="M325.161 230.441c0 3.395-2.599 6.147-5.806 6.147s-5.807-2.752-5.807-6.147c0-3.395 2.6-6.147 5.807-6.147 3.207 0 5.806 2.752 5.806 6.147z" fill="url(#paint75_linear_171_198)" fill-opacity=".5"/><path d="M360 230.441c0 3.395-2.6 6.147-5.806 6.147-3.207 0-5.807-2.752-5.807-6.147 0-3.395 2.6-6.147 5.807-6.147 3.206 0 5.806 2.752 5.806 6.147z" fill="url(#paint76_linear_171_198)" fill-opacity=".5"/><path d="M11.613 267.324c0 3.394-2.6 6.147-5.807 6.147-3.206 0-5.806-2.753-5.806-6.147 0-3.395 2.6-6.148 5.806-6.148 3.207 0 5.807 2.753 5.807 6.148z" fill="url(#paint77_linear_171_198)" fill-opacity=".5"/><path d="M46.452 267.324c0 3.394-2.6 6.147-5.807 6.147-3.207 0-5.806-2.753-5.806-6.147 0-3.395 2.6-6.148 5.806-6.148 3.207 0 5.807 2.753 5.807 6.148z" fill="url(#paint78_linear_171_198)" fill-opacity=".5"/><path d="M81.29 267.324c0 3.394-2.6 6.147-5.806 6.147-3.207 0-5.807-2.753-5.807-6.147 0-3.395 2.6-6.148 5.807-6.148 3.207 0 5.806 2.753 5.806 6.148z" fill="url(#paint79_linear_171_198)" fill-opacity=".5"/><path d="M116.129 267.324c0 3.394-2.6 6.147-5.806 6.147-3.207 0-5.807-2.753-5.807-6.147 0-3.395 2.6-6.148 5.807-6.148 3.206 0 5.806 2.753 5.806 6.148z" fill="url(#paint80_linear_171_198)" fill-opacity=".5"/><path d="M150.968 267.324c0 3.394-2.6 6.147-5.807 6.147-3.207 0-5.806-2.753-5.806-6.147 0-3.395 2.599-6.148 5.806-6.148s5.807 2.753 5.807 6.148z" fill="url(#paint81_linear_171_198)" fill-opacity=".5"/><path d="M185.806 267.324c0 3.394-2.599 6.147-5.806 6.147s-5.806-2.753-5.806-6.147c0-3.395 2.599-6.148 5.806-6.148s5.806 2.753 5.806 6.148z" fill="url(#paint82_linear_171_198)" fill-opacity=".5"/><path d="M220.645 267.324c0 3.394-2.599 6.147-5.806 6.147s-5.807-2.753-5.807-6.147c0-3.395 2.6-6.148 5.807-6.148 3.207 0 5.806 2.753 5.806 6.148z" fill="url(#paint83_linear_171_198)" fill-opacity=".5"/><path d="M255.484 267.324c0 3.394-2.6 6.147-5.807 6.147-3.206 0-5.806-2.753-5.806-6.147 0-3.395 2.6-6.148 5.806-6.148 3.207 0 5.807 2.753 5.807 6.148z" fill="url(#paint84_linear_171_198)" fill-opacity=".5"/><path d="M290.323 267.324c0 3.394-2.6 6.147-5.807 6.147-3.207 0-5.806-2.753-5.806-6.147 0-3.395 2.599-6.148 5.806-6.148s5.807 2.753 5.807 6.148z" fill="url(#paint85_linear_171_198)" fill-opacity=".5"/><path d="M325.161 267.324c0 3.394-2.599 6.147-5.806 6.147s-5.807-2.753-5.807-6.147c0-3.395 2.6-6.148 5.807-6.148 3.207 0 5.806 2.753 5.806 6.148z" fill="url(#paint86_linear_171_198)" fill-opacity=".5"/><path d="M360 267.324c0 3.394-2.6 6.147-5.806 6.147-3.207 0-5.807-2.753-5.807-6.147 0-3.395 2.6-6.148 5.807-6.148 3.206 0 5.806 2.753 5.806 6.148z" fill="url(#paint87_linear_171_198)" fill-opacity=".5"/><path d="M11.613 304.206c0 3.395-2.6 6.147-5.807 6.147-3.206 0-5.806-2.752-5.806-6.147 0-3.395 2.6-6.147 5.806-6.147 3.207 0 5.807 2.752 5.807 6.147z" fill="url(#paint88_linear_171_198)" fill-opacity=".5"/><path d="M46.452 304.206c0 3.395-2.6 6.147-5.807 6.147-3.207 0-5.806-2.752-5.806-6.147 0-3.395 2.6-6.147 5.806-6.147 3.207 0 5.807 2.752 5.807 6.147z" fill="url(#paint89_linear_171_198)" fill-opacity=".5"/><path d="M81.29 304.206c0 3.395-2.6 6.147-5.806 6.147-3.207 0-5.807-2.752-5.807-6.147 0-3.395 2.6-6.147 5.807-6.147 3.207 0 5.806 2.752 5.806 6.147z" fill="url(#paint90_linear_171_198)" fill-opacity=".5"/><path d="M116.129 304.206c0 3.395-2.6 6.147-5.806 6.147-3.207 0-5.807-2.752-5.807-6.147 0-3.395 2.6-6.147 5.807-6.147 3.206 0 5.806 2.752 5.806 6.147z" fill="url(#paint91_linear_171_198)" fill-opacity=".5"/><path d="M150.968 304.206c0 3.395-2.6 6.147-5.807 6.147-3.207 0-5.806-2.752-5.806-6.147 0-3.395 2.599-6.147 5.806-6.147s5.807 2.752 5.807 6.147z" fill="url(#paint92_linear_171_198)" fill-opacity=".5"/><path d="M185.806 304.206c0 3.395-2.599 6.147-5.806 6.147s-5.806-2.752-5.806-6.147c0-3.395 2.599-6.147 5.806-6.147s5.806 2.752 5.806 6.147z" fill="url(#paint93_linear_171_198)" fill-opacity=".5"/><path d="M220.645 304.206c0 3.395-2.599 6.147-5.806 6.147s-5.807-2.752-5.807-6.147c0-3.395 2.6-6.147 5.807-6.147 3.207 0 5.806 2.752 5.806 6.147z" fill="url(#paint94_linear_171_198)" fill-opacity=".5"/><path d="M255.484 304.206c0 3.395-2.6 6.147-5.807 6.147-3.206 0-5.806-2.752-5.806-6.147 0-3.395 2.6-6.147 5.806-6.147 3.207 0 5.807 2.752 5.807 6.147z" fill="url(#paint95_linear_171_198)" fill-opacity=".5"/><path d="M290.323 304.206c0 3.395-2.6 6.147-5.807 6.147-3.207 0-5.806-2.752-5.806-6.147 0-3.395 2.599-6.147 5.806-6.147s5.807 2.752 5.807 6.147z" fill="url(#paint96_linear_171_198)" fill-opacity=".5"/><path d="M325.161 304.206c0 3.395-2.599 6.147-5.806 6.147s-5.807-2.752-5.807-6.147c0-3.395 2.6-6.147 5.807-6.147 3.207 0 5.806 2.752 5.806 6.147z" fill="url(#paint97_linear_171_198)" fill-opacity=".5"/><path d="M360 304.206c0 3.395-2.6 6.147-5.806 6.147-3.207 0-5.807-2.752-5.807-6.147 0-3.395 2.6-6.147 5.807-6.147 3.206 0 5.806 2.752 5.806 6.147z" fill="url(#paint98_linear_171_198)" fill-opacity=".5"/><path d="M11.613 341.088c0 3.395-2.6 6.147-5.807 6.147-3.206 0-5.806-2.752-5.806-6.147 0-3.395 2.6-6.147 5.806-6.147 3.207 0 5.807 2.752 5.807 6.147z" fill="url(#paint99_linear_171_198)" fill-opacity=".5"/><path d="M46.452 341.088c0 3.395-2.6 6.147-5.807 6.147-3.207 0-5.806-2.752-5.806-6.147 0-3.395 2.6-6.147 5.806-6.147 3.207 0 5.807 2.752 5.807 6.147z" fill="url(#paint100_linear_171_198)" fill-opacity=".5"/><path d="M81.29 341.088c0 3.395-2.6 6.147-5.806 6.147-3.207 0-5.807-2.752-5.807-6.147 0-3.395 2.6-6.147 5.807-6.147 3.207 0 5.806 2.752 5.806 6.147z" fill="url(#paint101_linear_171_198)" fill-opacity=".5"/><path d="M116.129 341.088c0 3.395-2.6 6.147-5.806 6.147-3.207 0-5.807-2.752-5.807-6.147 0-3.395 2.6-6.147 5.807-6.147 3.206 0 5.806 2.752 5.806 6.147z" fill="url(#paint102_linear_171_198)" fill-opacity=".5"/><path d="M150.968 341.088c0 3.395-2.6 6.147-5.807 6.147-3.207 0-5.806-2.752-5.806-6.147 0-3.395 2.599-6.147 5.806-6.147s5.807 2.752 5.807 6.147z" fill="url(#paint103_linear_171_198)" fill-opacity=".5"/><path d="M185.806 341.088c0 3.395-2.599 6.147-5.806 6.147s-5.806-2.752-5.806-6.147c0-3.395 2.599-6.147 5.806-6.147s5.806 2.752 5.806 6.147z" fill="url(#paint104_linear_171_198)" fill-opacity=".5"/><path d="M220.645 341.088c0 3.395-2.599 6.147-5.806 6.147s-5.807-2.752-5.807-6.147c0-3.395 2.6-6.147 5.807-6.147 3.207 0 5.806 2.752 5.806 6.147z" fill="url(#paint105_linear_171_198)" fill-opacity=".5"/><path d="M255.484 341.088c0 3.395-2.6 6.147-5.807 6.147-3.206 0-5.806-2.752-5.806-6.147 0-3.395 2.6-6.147 5.806-6.147 3.207 0 5.807 2.752 5.807 6.147z" fill="url(#paint106_linear_171_198)" fill-opacity=".5"/><path d="M290.323 341.088c0 3.395-2.6 6.147-5.807 6.147-3.207 0-5.806-2.752-5.806-6.147 0-3.395 2.599-6.147 5.806-6.147s5.807 2.752 5.807 6.147z" fill="url(#paint107_linear_171_198)" fill-opacity=".5"/><path d="M325.161 341.088c0 3.395-2.599 6.147-5.806 6.147s-5.807-2.752-5.807-6.147c0-3.395 2.6-6.147 5.807-6.147 3.207 0 5.806 2.752 5.806 6.147z" fill="url(#paint108_linear_171_198)" fill-opacity=".5"/><path d="M360 341.088c0 3.395-2.6 6.147-5.806 6.147-3.207 0-5.807-2.752-5.807-6.147 0-3.395 2.6-6.147 5.807-6.147 3.206 0 5.806 2.752 5.806 6.147z" fill="url(#paint109_linear_171_198)" fill-opacity=".5"/><path d="M11.613 377.971c0 3.395-2.6 6.147-5.807 6.147-3.206 0-5.806-2.752-5.806-6.147 0-3.395 2.6-6.147 5.806-6.147 3.207 0 5.807 2.752 5.807 6.147z" fill="url(#paint110_linear_171_198)" fill-opacity=".5"/><path d="M46.452 377.971c0 3.395-2.6 6.147-5.807 6.147-3.207 0-5.806-2.752-5.806-6.147 0-3.395 2.6-6.147 5.806-6.147 3.207 0 5.807 2.752 5.807 6.147z" fill="url(#paint111_linear_171_198)" fill-opacity=".5"/><path d="M81.29 377.971c0 3.395-2.6 6.147-5.806 6.147-3.207 0-5.807-2.752-5.807-6.147 0-3.395 2.6-6.147 5.807-6.147 3.207 0 5.806 2.752 5.806 6.147z" fill="url(#paint112_linear_171_198)" fill-opacity=".5"/><path d="M116.129 377.971c0 3.395-2.6 6.147-5.806 6.147-3.207 0-5.807-2.752-5.807-6.147 0-3.395 2.6-6.147 5.807-6.147 3.206 0 5.806 2.752 5.806 6.147z" fill="url(#paint113_linear_171_198)" fill-opacity=".5"/><path d="M150.968 377.971c0 3.395-2.6 6.147-5.807 6.147-3.207 0-5.806-2.752-5.806-6.147 0-3.395 2.599-6.147 5.806-6.147s5.807 2.752 5.807 6.147z" fill="url(#paint114_linear_171_198)" fill-opacity=".5"/><path d="M185.806 377.971c0 3.395-2.599 6.147-5.806 6.147s-5.806-2.752-5.806-6.147c0-3.395 2.599-6.147 5.806-6.147s5.806 2.752 5.806 6.147z" fill="url(#paint115_linear_171_198)" fill-opacity=".5"/><path d="M220.645 377.971c0 3.395-2.599 6.147-5.806 6.147s-5.807-2.752-5.807-6.147c0-3.395 2.6-6.147 5.807-6.147 3.207 0 5.806 2.752 5.806 6.147z" fill="url(#paint116_linear_171_198)" fill-opacity=".5"/><path d="M255.484 377.971c0 3.395-2.6 6.147-5.807 6.147-3.206 0-5.806-2.752-5.806-6.147 0-3.395 2.6-6.147 5.806-6.147 3.207 0 5.807 2.752 5.807 6.147z" fill="url(#paint117_linear_171_198)" fill-opacity=".5"/><path d="M290.323 377.971c0 3.395-2.6 6.147-5.807 6.147-3.207 0-5.806-2.752-5.806-6.147 0-3.395 2.599-6.147 5.806-6.147s5.807 2.752 5.807 6.147z" fill="url(#paint118_linear_171_198)" fill-opacity=".5"/><path d="M325.161 377.971c0 3.395-2.599 6.147-5.806 6.147s-5.807-2.752-5.807-6.147c0-3.395 2.6-6.147 5.807-6.147 3.207 0 5.806 2.752 5.806 6.147z" fill="url(#paint119_linear_171_198)" fill-opacity=".5"/><path d="M360 377.971c0 3.395-2.6 6.147-5.806 6.147-3.207 0-5.807-2.752-5.807-6.147 0-3.395 2.6-6.147 5.807-6.147 3.206 0 5.806 2.752 5.806 6.147z" fill="url(#paint120_linear_171_198)" fill-opacity=".5"/><path d="M11.613 414.853c0 3.395-2.6 6.147-5.807 6.147C2.6 421 0 418.248 0 414.853c0-3.395 2.6-6.147 5.806-6.147 3.207 0 5.807 2.752 5.807 6.147z" fill="url(#paint121_linear_171_198)" fill-opacity=".5"/><path d="M46.452 414.853c0 3.395-2.6 6.147-5.807 6.147-3.207 0-5.806-2.752-5.806-6.147 0-3.395 2.6-6.147 5.806-6.147 3.207 0 5.807 2.752 5.807 6.147z" fill="url(#paint122_linear_171_198)" fill-opacity=".5"/><path d="M81.29 414.853c0 3.395-2.6 6.147-5.806 6.147-3.207 0-5.807-2.752-5.807-6.147 0-3.395 2.6-6.147 5.807-6.147 3.207 0 5.806 2.752 5.806 6.147z" fill="url(#paint123_linear_171_198)" fill-opacity=".5"/><path d="M116.129 414.853c0 3.395-2.6 6.147-5.806 6.147-3.207 0-5.807-2.752-5.807-6.147 0-3.395 2.6-6.147 5.807-6.147 3.206 0 5.806 2.752 5.806 6.147z" fill="url(#paint124_linear_171_198)" fill-opacity=".5"/><path d="M150.968 414.853c0 3.395-2.6 6.147-5.807 6.147-3.207 0-5.806-2.752-5.806-6.147 0-3.395 2.599-6.147 5.806-6.147s5.807 2.752 5.807 6.147z" fill="url(#paint125_linear_171_198)" fill-opacity=".5"/><path d="M185.806 414.853c0 3.395-2.599 6.147-5.806 6.147s-5.806-2.752-5.806-6.147c0-3.395 2.599-6.147 5.806-6.147s5.806 2.752 5.806 6.147z" fill="url(#paint126_linear_171_198)" fill-opacity=".5"/><path d="M220.645 414.853c0 3.395-2.599 6.147-5.806 6.147s-5.807-2.752-5.807-6.147c0-3.395 2.6-6.147 5.807-6.147 3.207 0 5.806 2.752 5.806 6.147z" fill="url(#paint127_linear_171_198)" fill-opacity=".5"/><path d="M255.484 414.853c0 3.395-2.6 6.147-5.807 6.147-3.206 0-5.806-2.752-5.806-6.147 0-3.395 2.6-6.147 5.806-6.147 3.207 0 5.807 2.752 5.807 6.147z" fill="url(#paint128_linear_171_198)" fill-opacity=".5"/><path d="M290.323 414.853c0 3.395-2.6 6.147-5.807 6.147-3.207 0-5.806-2.752-5.806-6.147 0-3.395 2.599-6.147 5.806-6.147s5.807 2.752 5.807 6.147z" fill="url(#paint129_linear_171_198)" fill-opacity=".5"/><path d="M325.161 414.853c0 3.395-2.599 6.147-5.806 6.147s-5.807-2.752-5.807-6.147c0-3.395 2.6-6.147 5.807-6.147 3.207 0 5.806 2.752 5.806 6.147z" fill="url(#paint130_linear_171_198)" fill-opacity=".5"/><path d="M360 414.853c0 3.395-2.6 6.147-5.806 6.147-3.207 0-5.807-2.752-5.807-6.147 0-3.395 2.6-6.147 5.807-6.147 3.206 0 5.806 2.752 5.806 6.147z" fill="url(#paint131_linear_171_198)" fill-opacity=".5"/><circle cx="1150" cy="554" r="20" fill="#FF4456" fill-opacity=".5"/><path d="M1105.33 31.943a3.992 3.992 0 0 0 4.61-3.266v-.003l.01-.02a.63.63 0 0 1 .03-.147c.02-.139.07-.357.13-.643.14-.574.35-1.416.66-2.435.64-2.052 1.66-4.749 3.22-7.409C1117.1 12.704 1122 8 1130 8c8.33 0 14.77 4.957 22.51 11.127l.41.329c4.04 3.228 8.49 6.776 13.61 9.273C1170.56 30.689 1175 32 1180 32c4.98 0 9.4-1.3 13.41-3.245 5.15-2.498 9.61-6.06 13.67-9.299l.42-.329C1215.23 12.957 1221.67 8 1230 8s14.77 4.957 22.51 11.127l.41.329c4.1 3.27 8.6 6.868 13.81 9.37C1270.71 30.73 1275.08 32 1280 32c4.89 0 9.26-1.257 13.21-3.15 5.24-2.501 9.76-6.113 13.87-9.394l.42-.329C1315.23 12.957 1321.67 8 1330 8c8.07 0 13.36 4.775 16.86 10.174 1.74 2.687 2.94 5.405 3.71 7.468.38 1.024.64 1.87.81 2.448.09.288.15.508.18.649.02.07.03.12.04.148v.02l.01.004v.003a3.997 3.997 0 0 0 4.8 2.982 4.003 4.003 0 0 0 2.99-4.803l-3.9.907c3.9-.907 3.9-.909 3.9-.91l-.01-.004v-.035l-.02-.076c-.02-.062-.04-.147-.07-.253-.05-.211-.13-.507-.24-.875-.21-.735-.54-1.763-.99-2.989-.91-2.437-2.35-5.72-4.49-9.032C1349.3 7.225 1341.85 0 1330 0c-11.37 0-19.86 6.782-27.08 12.544l-.41.329C1294.77 19.043 1288.33 24 1280 24c-8.33 0-14.77-4.957-22.5-11.127l-.42-.329C1249.86 6.782 1241.37 0 1230 0c-11.37 0-19.86 6.782-27.08 12.544l-.41.329C1194.77 19.043 1188.33 24 1180 24c-8.33 0-14.77-4.957-22.5-11.127l-.42-.329C1149.86 6.782 1141.37 0 1130 0c-11.91 0-19.01 7.296-22.92 13.98-1.95 3.34-3.2 6.643-3.95 9.09a42.565 42.565 0 0 0-.81 3.004c-.09.37-.15.667-.19.88-.02.106-.04.192-.05.255l-.02.077v.039c0 .002 0 .003 3.94.675l-3.94-.672a3.998 3.998 0 0 0 3.27 4.615zM1109.94 62.677a3.998 3.998 0 0 1-7.88-1.348L1106 62c-3.94-.672-3.94-.673-3.94-.675v-.039l.02-.078c.01-.062.03-.148.05-.254.04-.213.1-.51.19-.88.17-.739.43-1.772.81-3.003.75-2.448 2-5.751 3.95-9.091C1110.99 41.296 1118.09 34 1130 34c11.37 0 19.86 6.782 27.08 12.544l.42.329C1165.23 53.043 1171.67 58 1180 58s14.77-4.957 22.51-11.127l.41-.329C1210.14 40.782 1218.63 34 1230 34c11.37 0 19.86 6.782 27.08 12.544l.42.329C1265.23 53.043 1271.67 58 1280 58s14.77-4.957 22.51-11.127l.41-.329C1310.14 40.782 1318.63 34 1330 34c11.85 0 19.3 7.225 23.58 13.826 2.14 3.313 3.58 6.595 4.49 9.032.45 1.226.78 2.254.99 2.99.11.367.19.663.24.874.03.106.05.19.07.253l.02.076V61.086l.01.004c0 .002 0 .003-3.9.91l3.9-.907a4.003 4.003 0 0 1-2.99 4.803c-2.15.5-4.3-.834-4.8-2.982v-.003l-.01-.004v-.02c-.01-.028-.02-.078-.04-.148-.03-.14-.09-.36-.18-.649-.17-.577-.43-1.424-.81-2.448-.77-2.063-1.97-4.78-3.71-7.468C1343.36 46.775 1338.07 42 1330 42c-8.33 0-14.77 4.957-22.5 11.127l-.42.329c-4.11 3.281-8.63 6.893-13.87 9.395-3.95 1.892-8.32 3.149-13.21 3.149-4.92 0-9.29-1.269-13.27-3.175-5.21-2.5-9.71-6.099-13.81-9.369l-.41-.329C1244.77 46.957 1238.33 42 1230 42c-8.33 0-14.77 4.957-22.5 11.127l-.42.329c-4.06 3.24-8.52 6.801-13.67 9.299C1189.4 64.7 1184.98 66 1180 66c-5 0-9.44-1.311-13.47-3.271-5.12-2.497-9.57-6.045-13.61-9.273l-.41-.329C1144.77 46.957 1138.33 42 1130 42c-8 0-12.9 4.704-16.01 10.02-1.56 2.66-2.58 5.357-3.22 7.41-.31 1.018-.52 1.86-.66 2.434-.06.286-.11.504-.13.643a.63.63 0 0 0-.03.147l-.01.02v.003zM1109.94 96.674v.001a3.998 3.998 0 1 1-7.88-1.347L1106 96c-3.94-.671-3.94-.673-3.94-.675v-.039l.02-.078c.01-.062.03-.148.05-.254.04-.213.1-.51.19-.88.17-.739.43-1.772.81-3.003.75-2.448 2-5.751 3.95-9.091C1110.99 75.296 1118.09 68 1130 68c11.37 0 19.86 6.782 27.08 12.544l.42.329C1165.23 87.043 1171.67 92 1180 92s14.77-4.957 22.51-11.127l.41-.329C1210.14 74.782 1218.63 68 1230 68c11.37 0 19.86 6.782 27.08 12.544l.42.329C1265.23 87.043 1271.67 92 1280 92s14.77-4.957 22.51-11.127l.41-.329C1310.14 74.782 1318.63 68 1330 68c11.85 0 19.3 7.225 23.58 13.826 2.14 3.313 3.58 6.595 4.49 9.032.45 1.226.78 2.254.99 2.99.11.367.19.663.24.874.03.106.05.19.07.253l.02.076V95.086l.01.004c0 .001 0 .003-3.9.91l3.9-.907a4.003 4.003 0 0 1-2.99 4.803c-2.15.5-4.3-.834-4.8-2.982v-.003l-.01-.004v-.02c0-.013-.01-.03-.01-.052a.936.936 0 0 1-.03-.096c-.03-.14-.09-.36-.18-.649-.17-.577-.43-1.424-.81-2.448-.77-2.063-1.97-4.78-3.71-7.468C1343.36 80.775 1338.07 76 1330 76c-8.33 0-14.77 4.957-22.5 11.127l-.42.329c-4.11 3.281-8.63 6.893-13.87 9.395-3.95 1.892-8.32 3.149-13.21 3.149-4.92 0-9.29-1.269-13.27-3.175-5.21-2.5-9.71-6.099-13.81-9.369l-.41-.329C1244.77 80.957 1238.33 76 1230 76c-8.33 0-14.77 4.957-22.5 11.127l-.42.329c-4.06 3.24-8.52 6.801-13.67 9.299C1189.4 98.7 1184.98 100 1180 100c-5 0-9.44-1.311-13.47-3.271-5.12-2.497-9.57-6.045-13.61-9.273l-.41-.329C1144.77 80.957 1138.33 76 1130 76c-8 0-12.9 4.704-16.01 10.02-1.56 2.66-2.58 5.357-3.22 7.41-.31 1.018-.52 1.86-.66 2.434-.06.286-.11.504-.13.643a.63.63 0 0 0-.03.147l-.01.02z" fill="#765AFF" fill-opacity=".5"/><path fill-rule="evenodd" clip-rule="evenodd" d="M861.981 81 836 126h51.962l-25.981-45zm0 8-19.053 33h38.105l-19.052-33zM861.981 141 836 186h51.962l-25.981-45zm0 8-19.053 33h38.105l-19.052-33zM861.981 201l25.981 45H836l25.981-45zm-19.053 41 19.053-33 19.052 33h-38.105zM861.981 261 836 306h51.962l-25.981-45zm0 8-19.053 33h38.105l-19.052-33zM861.981 321 836 366h51.962l-25.981-45zm0 8-19.053 33h38.105l-19.052-33zM861.981 381l25.981 45H836l25.981-45zm-19.053 41 19.053-33 19.052 33h-38.105z" fill="#FF4456" fill-opacity=".5"/><path d="M944.161 1842c10.293-10.76 3.14-38-11.809-38-20.768 0-19.954 38-40.315 38-14.949 0-18.437-27.24-8.144-38" stroke="#FF4456" stroke-opacity=".5" stroke-width="10" stroke-linecap="round"/><path d="M901.081 1725.3c14.466 3.53 34.478-16.28 27.004-29.23-10.384-17.99-42.886 1.72-53.066-15.91-7.475-12.95 14.37-29.59 28.837-26.06" stroke="#FF4456" stroke-opacity=".5" stroke-width="2" stroke-linecap="round" stroke-dasharray="1 9"/><path d="M1026.15 1751.46c-14.29 4.17-21.72 31.34-8.77 38.81 17.98 10.39 36.28-22.93 53.91-12.75 12.95 7.48 2.35 32.81-11.95 36.98" stroke="#FF4456" stroke-opacity=".5" stroke-linecap="round" stroke-dasharray="6 10"/><path d="M1022.5 1931h60l-19.5 70 19.5 70h-60l-19.5-70 19.5-70z" fill="#FF4456" fill-opacity=".5"/><path fill-rule="evenodd" clip-rule="evenodd" d="m1142.5 2001 19.5-70h-60l-19.5 70 19.5 70h60l-19.5-70zm16.87 68-18.95-68 18.95-68h-55.85l-18.94 68 18.94 68h55.85z" fill="#FF4456" fill-opacity=".5"/><path d="m1180.05 1938-1.67 6h60l1.67-6h-60zM1177.26 1948l-1.67 6h60l1.67-6h-60zM1174.48 1958l-1.67 6h60l1.67-6h-60zM1171.69 1968l-1.67 6h60l1.67-6h-60zM1168.91 1978l-1.67 6h60l1.67-6h-60zM1166.12 1988l-1.67 6h60l1.67-6h-60zM1162.5 2001l.84 3h60l-.84-3 .84-3h-60l-.84 3zM1164.45 2008l1.67 6h60l-1.67-6h-60zM1167.24 2018l1.67 6h60l-1.67-6h-60zM1170.02 2028l1.67 6h60l-1.67-6h-60zM1172.81 2038l1.67 6h60l-1.67-6h-60zM1175.59 2048l1.67 6h60l-1.67-6h-60zM1178.38 2058l1.67 6h60l-1.67-6h-60zM1242 2071l-.84-3h-60l.84 3h60zM1181.16 1934h60l.84-3h-60l-.84 3zM1101.5 2250.5v-30.19l-40-24.81-40 24.81v30.19l40-24.81 40 24.81z" fill="#FF4456" fill-opacity=".5"/><path d="M1101.5 2175.31v30.19l-40-24.81-40 24.81v-30.19l40-24.81 40 24.81z" fill="#FF4456" fill-opacity=".5"/><path d="M1101.5 2130.31v30.19l-40-24.81-40 24.81v-30.19l40-24.81 40 24.81zM1163.89 2226.86a4.007 4.007 0 0 1-1.89-3.4v-20.77c0-3.14 3.44-5.05 6.11-3.4l31.78 19.71c1.29.8 2.93.8 4.22 0l31.78-19.71c2.67-1.65 6.11.26 6.11 3.4v20.77c0 1.39-.72 2.67-1.89 3.4l-36 22.33c-1.29.8-2.93.8-4.22 0l-36-22.33z" fill="#FF4456" fill-opacity=".5"/><path d="M1163.89 2181.86a4.007 4.007 0 0 1-1.89-3.4v-20.77c0-3.14 3.44-5.05 6.11-3.4l31.78 19.71c1.29.8 2.93.8 4.22 0l31.78-19.71c2.67-1.65 6.11.26 6.11 3.4v20.77c0 1.39-.72 2.67-1.89 3.4l-36 22.33c-1.29.8-2.93.8-4.22 0l-36-22.33z" fill="#FF4456" fill-opacity=".5"/><path d="M1163.89 2136.86a4.007 4.007 0 0 1-1.89-3.4v-20.77c0-3.14 3.44-5.05 6.11-3.4l31.78 19.71c1.29.8 2.93.8 4.22 0l31.78-19.71c2.67-1.65 6.11.26 6.11 3.4v20.77c0 1.39-.72 2.67-1.89 3.4l-36 22.33c-1.29.8-2.93.8-4.22 0l-36-22.33z" fill="#FF4456" fill-opacity=".5"/><path d="m45 2001 37.5-15 37.5 15 37.5-15" stroke="#765AFF" stroke-opacity=".5" stroke-width="2"/><path d="m234 2053-15-37.5 15-37.5-15-37.5 15-37.5" stroke="#765AFF" stroke-opacity=".5" stroke-width="2" stroke-dasharray="6 6"/><path d="M133 956c0-56.333 45.667-102 102-102" stroke="#FAB84D" stroke-opacity=".5" stroke-width="80"/><path d="M25 947c0-108.248 87.752-196 196-196" stroke="#FAB84D" stroke-opacity=".5" stroke-width="20"/><defs><linearGradient id="paint66_linear_171_198" x1="180" y1="3" x2="180" y2="421" gradientUnits="userSpaceOnUse"><stop stop-color="#5431FF"/><stop offset=".4" stop-color="#F9A620"/><stop offset=".6" stop-color="#F9A620"/><stop offset="1" stop-color="#FF152C"/></linearGradient><linearGradient id="paint0_linear_171_198" x1="180" y1="3" x2="180" y2="421" gradientUnits="userSpaceOnUse"><stop stop-color="#5431FF"/><stop offset=".4" stop-color="#F9A620"/><stop offset=".6" stop-color="#F9A620"/><stop offset="1" stop-color="#FF152C"/></linearGradient><linearGradient id="paint2_linear_171_198" x1="180" y1="3" x2="180" y2="421" gradientUnits="userSpaceOnUse"><stop stop-color="#5431FF"/><stop offset=".4" stop-color="#F9A620"/><stop offset=".6" stop-color="#F9A620"/><stop offset="1" stop-color="#FF152C"/></linearGradient><linearGradient id="paint3_linear_171_198" x1="180" y1="3" x2="180" y2="421" gradientUnits="userSpaceOnUse"><stop stop-color="#5431FF"/><stop offset=".4" stop-color="#F9A620"/><stop offset=".6" stop-color="#F9A620"/><stop offset="1" stop-color="#FF152C"/></linearGradient><linearGradient id="paint4_linear_171_198" x1="180" y1="3" x2="180" y2="421" gradientUnits="userSpaceOnUse"><stop stop-color="#5431FF"/><stop offset=".4" stop-color="#F9A620"/><stop offset=".6" stop-color="#F9A620"/><stop offset="1" stop-color="#FF152C"/></linearGradient><linearGradient id="paint5_linear_171_198" x1="180" y1="3" x2="180" y2="421" gradientUnits="userSpaceOnUse"><stop stop-color="#5431FF"/><stop offset=".4" stop-color="#F9A620"/><stop offset=".6" stop-color="#F9A620"/><stop offset="1" stop-color="#FF152C"/></linearGradient><linearGradient id="paint6_linear_171_198" x1="180" y1="3" x2="180" y2="421" gradientUnits="userSpaceOnUse"><stop stop-color="#5431FF"/><stop offset=".4" stop-color="#F9A620"/><stop offset=".6" stop-color="#F9A620"/><stop offset="1" stop-color="#FF152C"/></linearGradient><linearGradient id="paint7_linear_171_198" x1="180" y1="3" x2="180" y2="421" gradientUnits="userSpaceOnUse"><stop stop-color="#5431FF"/><stop offset=".4" stop-color="#F9A620"/><stop offset=".6" stop-color="#F9A620"/><stop offset="1" stop-color="#FF152C"/></linearGradient><linearGradient id="paint8_linear_171_198" x1="180" y1="3" x2="180" y2="421" gradientUnits="userSpaceOnUse"><stop stop-color="#5431FF"/><stop offset=".4" stop-color="#F9A620"/><stop offset=".6" stop-color="#F9A620"/><stop offset="1" stop-color="#FF152C"/></linearGradient><linearGradient id="paint9_linear_171_198" x1="180" y1="3" x2="180" y2="421" gradientUnits="userSpaceOnUse"><stop stop-color="#5431FF"/><stop offset=".4" stop-color="#F9A620"/><stop offset=".6" stop-color="#F9A620"/><stop offset="1" stop-color="#FF152C"/></linearGradient><linearGradient id="paint10_linear_171_198" x1="180" y1="3" x2="180" y2="421" gradientUnits="userSpaceOnUse"><stop stop-color="#5431FF"/><stop offset=".4" stop-color="#F9A620"/><stop offset=".6" stop-color="#F9A620"/><stop offset="1" stop-color="#FF152C"/></linearGradient><linearGradient id="paint11_linear_171_198" x1="180" y1="3" x2="180" y2="421" gradientUnits="userSpaceOnUse"><stop stop-color="#5431FF"/><stop offset=".4" stop-color="#F9A620"/><stop offset=".6" stop-color="#F9A620"/><stop offset="1" stop-color="#FF152C"/></linearGradient><linearGradient id="paint12_linear_171_198" x1="180" y1="3" x2="180" y2="421" gradientUnits="userSpaceOnUse"><stop stop-color="#5431FF"/><stop offset=".4" stop-color="#F9A620"/><stop offset=".6" stop-color="#F9A620"/><stop offset="1" stop-color="#FF152C"/></linearGradient><linearGradient id="paint13_linear_171_198" x1="180" y1="3" x2="180" y2="421" gradientUnits="userSpaceOnUse"><stop stop-color="#5431FF"/><stop offset=".4" stop-color="#F9A620"/><stop offset=".6" stop-color="#F9A620"/><stop offset="1" stop-color="#FF152C"/></linearGradient><linearGradient id="paint14_linear_171_198" x1="180" y1="3" x2="180" y2="421" gradientUnits="userSpaceOnUse"><stop stop-color="#5431FF"/><stop offset=".4" stop-color="#F9A620"/><stop offset=".6" stop-color="#F9A620"/><stop offset="1" stop-color="#FF152C"/></linearGradient><linearGradient id="paint15_linear_171_198" x1="180" y1="3" x2="180" y2="421" gradientUnits="userSpaceOnUse"><stop stop-color="#5431FF"/><stop offset=".4" stop-color="#F9A620"/><stop offset=".6" stop-color="#F9A620"/><stop offset="1" stop-color="#FF152C"/></linearGradient><linearGradient id="paint16_linear_171_198" x1="180" y1="3" x2="180" y2="421" gradientUnits="userSpaceOnUse"><stop stop-color="#5431FF"/><stop offset=".4" stop-color="#F9A620"/><stop offset=".6" stop-color="#F9A620"/><stop offset="1" stop-color="#FF152C"/></linearGradient><linearGradient id="paint17_linear_171_198" x1="180" y1="3" x2="180" y2="421" gradientUnits="userSpaceOnUse"><stop stop-color="#5431FF"/><stop offset=".4" stop-color="#F9A620"/><stop offset=".6" stop-color="#F9A620"/><stop offset="1" stop-color="#FF152C"/></linearGradient><linearGradient id="paint18_linear_171_198" x1="180" y1="3" x2="180" y2="421" gradientUnits="userSpaceOnUse"><stop stop-color="#5431FF"/><stop offset=".4" stop-color="#F9A620"/><stop offset=".6" stop-color="#F9A620"/><stop offset="1" stop-color="#FF152C"/></linearGradient><linearGradient id="paint19_linear_171_198" x1="180" y1="3" x2="180" y2="421" gradientUnits="userSpaceOnUse"><stop stop-color="#5431FF"/><stop offset=".4" stop-color="#F9A620"/><stop offset=".6" stop-color="#F9A620"/><stop offset="1" stop-color="#FF152C"/></linearGradient><linearGradient id="paint20_linear_171_198" x1="180" y1="3" x2="180" y2="421" gradientUnits="userSpaceOnUse"><stop stop-color="#5431FF"/><stop offset=".4" stop-color="#F9A620"/><stop offset=".6" stop-color="#F9A620"/><stop offset="1" stop-color="#FF152C"/></linearGradient><linearGradient id="paint21_linear_171_198" x1="180" y1="3" x2="180" y2="421" gradientUnits="userSpaceOnUse"><stop stop-color="#5431FF"/><stop offset=".4" stop-color="#F9A620"/><stop offset=".6" stop-color="#F9A620"/><stop offset="1" stop-color="#FF152C"/></linearGradient><linearGradient id="paint22_linear_171_198" x1="180" y1="3" x2="180" y2="421" gradientUnits="userSpaceOnUse"><stop stop-color="#5431FF"/><stop offset=".4" stop-color="#F9A620"/><stop offset=".6" stop-color="#F9A620"/><stop offset="1" stop-color="#FF152C"/></linearGradient><linearGradient id="paint23_linear_171_198" x1="180" y1="3" x2="180" y2="421" gradientUnits="userSpaceOnUse"><stop stop-color="#5431FF"/><stop offset=".4" stop-color="#F9A620"/><stop offset=".6" stop-color="#F9A620"/><stop offset="1" stop-color="#FF152C"/></linearGradient><linearGradient id="paint24_linear_171_198" x1="180" y1="3" x2="180" y2="421" gradientUnits="userSpaceOnUse"><stop stop-color="#5431FF"/><stop offset=".4" stop-color="#F9A620"/><stop offset=".6" stop-color="#F9A620"/><stop offset="1" stop-color="#FF152C"/></linearGradient><linearGradient id="paint25_linear_171_198" x1="180" y1="3" x2="180" y2="421" gradientUnits="userSpaceOnUse"><stop stop-color="#5431FF"/><stop offset=".4" stop-color="#F9A620"/><stop offset=".6" stop-color="#F9A620"/><stop offset="1" stop-color="#FF152C"/></linearGradient><linearGradient id="paint26_linear_171_198" x1="180" y1="3" x2="180" y2="421" gradientUnits="userSpaceOnUse"><stop stop-color="#5431FF"/><stop offset=".4" stop-color="#F9A620"/><stop offset=".6" stop-color="#F9A620"/><stop offset="1" stop-color="#FF152C"/></linearGradient><linearGradient id="paint27_linear_171_198" x1="180" y1="3" x2="180" y2="421" gradientUnits="userSpaceOnUse"><stop stop-color="#5431FF"/><stop offset=".4" stop-color="#F9A620"/><stop offset=".6" stop-color="#F9A620"/><stop offset="1" stop-color="#FF152C"/></linearGradient><linearGradient id="paint28_linear_171_198" x1="180" y1="3" x2="180" y2="421" gradientUnits="userSpaceOnUse"><stop stop-color="#5431FF"/><stop offset=".4" stop-color="#F9A620"/><stop offset=".6" stop-color="#F9A620"/><stop offset="1" stop-color="#FF152C"/></linearGradient><linearGradient id="paint29_linear_171_198" x1="180" y1="3" x2="180" y2="421" gradientUnits="userSpaceOnUse"><stop stop-color="#5431FF"/><stop offset=".4" stop-color="#F9A620"/><stop offset=".6" stop-color="#F9A620"/><stop offset="1" stop-color="#FF152C"/></linearGradient><linearGradient id="paint30_linear_171_198" x1="180" y1="3" x2="180" y2="421" gradientUnits="userSpaceOnUse"><stop stop-color="#5431FF"/><stop offset=".4" stop-color="#F9A620"/><stop offset=".6" stop-color="#F9A620"/><stop offset="1" stop-color="#FF152C"/></linearGradient><linearGradient id="paint31_linear_171_198" x1="180" y1="3" x2="180" y2="421" gradientUnits="userSpaceOnUse"><stop stop-color="#5431FF"/><stop offset=".4" stop-color="#F9A620"/><stop offset=".6" stop-color="#F9A620"/><stop offset="1" stop-color="#FF152C"/></linearGradient><linearGradient id="paint32_linear_171_198" x1="180" y1="3" x2="180" y2="421" gradientUnits="userSpaceOnUse"><stop stop-color="#5431FF"/><stop offset=".4" stop-color="#F9A620"/><stop offset=".6" stop-color="#F9A620"/><stop offset="1" stop-color="#FF152C"/></linearGradient><linearGradient id="paint33_linear_171_198" x1="180" y1="3" x2="180" y2="421" gradientUnits="userSpaceOnUse"><stop stop-color="#5431FF"/><stop offset=".4" stop-color="#F9A620"/><stop offset=".6" stop-color="#F9A620"/><stop offset="1" stop-color="#FF152C"/></linearGradient><linearGradient id="paint34_linear_171_198" x1="180" y1="3" x2="180" y2="421" gradientUnits="userSpaceOnUse"><stop stop-color="#5431FF"/><stop offset=".4" stop-color="#F9A620"/><stop offset=".6" stop-color="#F9A620"/><stop offset="1" stop-color="#FF152C"/></linearGradient><linearGradient id="paint35_linear_171_198" x1="180" y1="3" x2="180" y2="421" gradientUnits="userSpaceOnUse"><stop stop-color="#5431FF"/><stop offset=".4" stop-color="#F9A620"/><stop offset=".6" stop-color="#F9A620"/><stop offset="1" stop-color="#FF152C"/></linearGradient><linearGradient id="paint36_linear_171_198" x1="180" y1="3" x2="180" y2="421" gradientUnits="userSpaceOnUse"><stop stop-color="#5431FF"/><stop offset=".4" stop-color="#F9A620"/><stop offset=".6" stop-color="#F9A620"/><stop offset="1" stop-color="#FF152C"/></linearGradient><linearGradient id="paint37_linear_171_198" x1="180" y1="3" x2="180" y2="421" gradientUnits="userSpaceOnUse"><stop stop-color="#5431FF"/><stop offset=".4" stop-color="#F9A620"/><stop offset=".6" stop-color="#F9A620"/><stop offset="1" stop-color="#FF152C"/></linearGradient><linearGradient id="paint38_linear_171_198" x1="180" y1="3" x2="180" y2="421" gradientUnits="userSpaceOnUse"><stop stop-color="#5431FF"/><stop offset=".4" stop-color="#F9A620"/><stop offset=".6" stop-color="#F9A620"/><stop offset="1" stop-color="#FF152C"/></linearGradient><linearGradient id="paint39_linear_171_198" x1="180" y1="3" x2="180" y2="421" gradientUnits="userSpaceOnUse"><stop stop-color="#5431FF"/><stop offset=".4" stop-color="#F9A620"/><stop offset=".6" stop-color="#F9A620"/><stop offset="1" stop-color="#FF152C"/></linearGradient><linearGradient id="paint40_linear_171_198" x1="180" y1="3" x2="180" y2="421" gradientUnits="userSpaceOnUse"><stop stop-color="#5431FF"/><stop offset=".4" stop-color="#F9A620"/><stop offset=".6" stop-color="#F9A620"/><stop offset="1" stop-color="#FF152C"/></linearGradient><linearGradient id="paint41_linear_171_198" x1="180" y1="3" x2="180" y2="421" gradientUnits="userSpaceOnUse"><stop stop-color="#5431FF"/><stop offset=".4" stop-color="#F9A620"/><stop offset=".6" stop-color="#F9A620"/><stop offset="1" stop-color="#FF152C"/></linearGradient><linearGradient id="paint42_linear_171_198" x1="180" y1="3" x2="180" y2="421" gradientUnits="userSpaceOnUse"><stop stop-color="#5431FF"/><stop offset=".4" stop-color="#F9A620"/><stop offset=".6" stop-color="#F9A620"/><stop offset="1" stop-color="#FF152C"/></linearGradient><linearGradient id="paint43_linear_171_198" x1="180" y1="3" x2="180" y2="421" gradientUnits="userSpaceOnUse"><stop stop-color="#5431FF"/><stop offset=".4" stop-color="#F9A620"/><stop offset=".6" stop-color="#F9A620"/><stop offset="1" stop-color="#FF152C"/></linearGradient><linearGradient id="paint44_linear_171_198" x1="180" y1="3" x2="180" y2="421" gradientUnits="userSpaceOnUse"><stop stop-color="#5431FF"/><stop offset=".4" stop-color="#F9A620"/><stop offset=".6" stop-color="#F9A620"/><stop offset="1" stop-color="#FF152C"/></linearGradient><linearGradient id="paint45_linear_171_198" x1="180" y1="3" x2="180" y2="421" gradientUnits="userSpaceOnUse"><stop stop-color="#5431FF"/><stop offset=".4" stop-color="#F9A620"/><stop offset=".6" stop-color="#F9A620"/><stop offset="1" stop-color="#FF152C"/></linearGradient><linearGradient id="paint46_linear_171_198" x1="180" y1="3" x2="180" y2="421" gradientUnits="userSpaceOnUse"><stop stop-color="#5431FF"/><stop offset=".4" stop-color="#F9A620"/><stop offset=".6" stop-color="#F9A620"/><stop offset="1" stop-color="#FF152C"/></linearGradient><linearGradient id="paint47_linear_171_198" x1="180" y1="3" x2="180" y2="421" gradientUnits="userSpaceOnUse"><stop stop-color="#5431FF"/><stop offset=".4" stop-color="#F9A620"/><stop offset=".6" stop-color="#F9A620"/><stop offset="1" stop-color="#FF152C"/></linearGradient><linearGradient id="paint48_linear_171_198" x1="180" y1="3" x2="180" y2="421" gradientUnits="userSpaceOnUse"><stop stop-color="#5431FF"/><stop offset=".4" stop-color="#F9A620"/><stop offset=".6" stop-color="#F9A620"/><stop offset="1" stop-color="#FF152C"/></linearGradient><linearGradient id="paint49_linear_171_198" x1="180" y1="3" x2="180" y2="421" gradientUnits="userSpaceOnUse"><stop stop-color="#5431FF"/><stop offset=".4" stop-color="#F9A620"/><stop offset=".6" stop-color="#F9A620"/><stop offset="1" stop-color="#FF152C"/></linearGradient><linearGradient id="paint50_linear_171_198" x1="180" y1="3" x2="180" y2="421" gradientUnits="userSpaceOnUse"><stop stop-color="#5431FF"/><stop offset=".4" stop-color="#F9A620"/><stop offset=".6" stop-color="#F9A620"/><stop offset="1" stop-color="#FF152C"/></linearGradient><linearGradient id="paint51_linear_171_198" x1="180" y1="3" x2="180" y2="421" gradientUnits="userSpaceOnUse"><stop stop-color="#5431FF"/><stop offset=".4" stop-color="#F9A620"/><stop offset=".6" stop-color="#F9A620"/><stop offset="1" stop-color="#FF152C"/></linearGradient><linearGradient id="paint52_linear_171_198" x1="180" y1="3" x2="180" y2="421" gradientUnits="userSpaceOnUse"><stop stop-color="#5431FF"/><stop offset=".4" stop-color="#F9A620"/><stop offset=".6" stop-color="#F9A620"/><stop offset="1" stop-color="#FF152C"/></linearGradient><linearGradient id="paint53_linear_171_198" x1="180" y1="3" x2="180" y2="421" gradientUnits="userSpaceOnUse"><stop stop-color="#5431FF"/><stop offset=".4" stop-color="#F9A620"/><stop offset=".6" stop-color="#F9A620"/><stop offset="1" stop-color="#FF152C"/></linearGradient><linearGradient id="paint54_linear_171_198" x1="180" y1="3" x2="180" y2="421" gradientUnits="userSpaceOnUse"><stop stop-color="#5431FF"/><stop offset=".4" stop-color="#F9A620"/><stop offset=".6" stop-color="#F9A620"/><stop offset="1" stop-color="#FF152C"/></linearGradient><linearGradient id="paint55_linear_171_198" x1="180" y1="3" x2="180" y2="421" gradientUnits="userSpaceOnUse"><stop stop-color="#5431FF"/><stop offset=".4" stop-color="#F9A620"/><stop offset=".6" stop-color="#F9A620"/><stop offset="1" stop-color="#FF152C"/></linearGradient><linearGradient id="paint56_linear_171_198" x1="180" y1="3" x2="180" y2="421" gradientUnits="userSpaceOnUse"><stop stop-color="#5431FF"/><stop offset=".4" stop-color="#F9A620"/><stop offset=".6" stop-color="#F9A620"/><stop offset="1" stop-color="#FF152C"/></linearGradient><linearGradient id="paint57_linear_171_198" x1="180" y1="3" x2="180" y2="421" gradientUnits="userSpaceOnUse"><stop stop-color="#5431FF"/><stop offset=".4" stop-color="#F9A620"/><stop offset=".6" stop-color="#F9A620"/><stop offset="1" stop-color="#FF152C"/></linearGradient><linearGradient id="paint58_linear_171_198" x1="180" y1="3" x2="180" y2="421" gradientUnits="userSpaceOnUse"><stop stop-color="#5431FF"/><stop offset=".4" stop-color="#F9A620"/><stop offset=".6" stop-color="#F9A620"/><stop offset="1" stop-color="#FF152C"/></linearGradient><linearGradient id="paint59_linear_171_198" x1="180" y1="3" x2="180" y2="421" gradientUnits="userSpaceOnUse"><stop stop-color="#5431FF"/><stop offset=".4" stop-color="#F9A620"/><stop offset=".6" stop-color="#F9A620"/><stop offset="1" stop-color="#FF152C"/></linearGradient><linearGradient id="paint60_linear_171_198" x1="180" y1="3" x2="180" y2="421" gradientUnits="userSpaceOnUse"><stop stop-color="#5431FF"/><stop offset=".4" stop-color="#F9A620"/><stop offset=".6" stop-color="#F9A620"/><stop offset="1" stop-color="#FF152C"/></linearGradient><linearGradient id="paint61_linear_171_198" x1="180" y1="3" x2="180" y2="421" gradientUnits="userSpaceOnUse"><stop stop-color="#5431FF"/><stop offset=".4" stop-color="#F9A620"/><stop offset=".6" stop-color="#F9A620"/><stop offset="1" stop-color="#FF152C"/></linearGradient><linearGradient id="paint62_linear_171_198" x1="180" y1="3" x2="180" y2="421" gradientUnits="userSpaceOnUse"><stop stop-color="#5431FF"/><stop offset=".4" stop-color="#F9A620"/><stop offset=".6" stop-color="#F9A620"/><stop offset="1" stop-color="#FF152C"/></linearGradient><linearGradient id="paint63_linear_171_198" x1="180" y1="3" x2="180" y2="421" gradientUnits="userSpaceOnUse"><stop stop-color="#5431FF"/><stop offset=".4" stop-color="#F9A620"/><stop offset=".6" stop-color="#F9A620"/><stop offset="1" stop-color="#FF152C"/></linearGradient><linearGradient id="paint64_linear_171_198" x1="180" y1="3" x2="180" y2="421" gradientUnits="userSpaceOnUse"><stop stop-color="#5431FF"/><stop offset=".4" stop-color="#F9A620"/><stop offset=".6" stop-color="#F9A620"/><stop offset="1" stop-color="#FF152C"/></linearGradient><linearGradient id="paint65_linear_171_198" x1="180" y1="3" x2="180" y2="421" gradientUnits="userSpaceOnUse"><stop stop-color="#5431FF"/><stop offset=".4" stop-color="#F9A620"/><stop offset=".6" stop-color="#F9A620"/><stop offset="1" stop-color="#FF152C"/></linearGradient><linearGradient id="paint1_linear_171_198" x1="180" y1="3" x2="180" y2="421" gradientUnits="userSpaceOnUse"><stop stop-color="#5431FF"/><stop offset=".4" stop-color="#F9A620"/><stop offset=".6" stop-color="#F9A620"/><stop offset="1" stop-color="#FF152C"/></linearGradient><linearGradient id="paint67_linear_171_198" x1="180" y1="3" x2="180" y2="421" gradientUnits="userSpaceOnUse"><stop stop-color="#5431FF"/><stop offset=".4" stop-color="#F9A620"/><stop offset=".6" stop-color="#F9A620"/><stop offset="1" stop-color="#FF152C"/></linearGradient><linearGradient id="paint68_linear_171_198" x1="180" y1="3" x2="180" y2="421" gradientUnits="userSpaceOnUse"><stop stop-color="#5431FF"/><stop offset=".4" stop-color="#F9A620"/><stop offset=".6" stop-color="#F9A620"/><stop offset="1" stop-color="#FF152C"/></linearGradient><linearGradient id="paint69_linear_171_198" x1="180" y1="3" x2="180" y2="421" gradientUnits="userSpaceOnUse"><stop stop-color="#5431FF"/><stop offset=".4" stop-color="#F9A620"/><stop offset=".6" stop-color="#F9A620"/><stop offset="1" stop-color="#FF152C"/></linearGradient><linearGradient id="paint70_linear_171_198" x1="180" y1="3" x2="180" y2="421" gradientUnits="userSpaceOnUse"><stop stop-color="#5431FF"/><stop offset=".4" stop-color="#F9A620"/><stop offset=".6" stop-color="#F9A620"/><stop offset="1" stop-color="#FF152C"/></linearGradient><linearGradient id="paint71_linear_171_198" x1="180" y1="3" x2="180" y2="421" gradientUnits="userSpaceOnUse"><stop stop-color="#5431FF"/><stop offset=".4" stop-color="#F9A620"/><stop offset=".6" stop-color="#F9A620"/><stop offset="1" stop-color="#FF152C"/></linearGradient><linearGradient id="paint72_linear_171_198" x1="180" y1="3" x2="180" y2="421" gradientUnits="userSpaceOnUse"><stop stop-color="#5431FF"/><stop offset=".4" stop-color="#F9A620"/><stop offset=".6" stop-color="#F9A620"/><stop offset="1" stop-color="#FF152C"/></linearGradient><linearGradient id="paint73_linear_171_198" x1="180" y1="3" x2="180" y2="421" gradientUnits="userSpaceOnUse"><stop stop-color="#5431FF"/><stop offset=".4" stop-color="#F9A620"/><stop offset=".6" stop-color="#F9A620"/><stop offset="1" stop-color="#FF152C"/></linearGradient><linearGradient id="paint74_linear_171_198" x1="180" y1="3" x2="180" y2="421" gradientUnits="userSpaceOnUse"><stop stop-color="#5431FF"/><stop offset=".4" stop-color="#F9A620"/><stop offset=".6" stop-color="#F9A620"/><stop offset="1" stop-color="#FF152C"/></linearGradient><linearGradient id="paint75_linear_171_198" x1="180" y1="3" x2="180" y2="421" gradientUnits="userSpaceOnUse"><stop stop-color="#5431FF"/><stop offset=".4" stop-color="#F9A620"/><stop offset=".6" stop-color="#F9A620"/><stop offset="1" stop-color="#FF152C"/></linearGradient><linearGradient id="paint76_linear_171_198" x1="180" y1="3" x2="180" y2="421" gradientUnits="userSpaceOnUse"><stop stop-color="#5431FF"/><stop offset=".4" stop-color="#F9A620"/><stop offset=".6" stop-color="#F9A620"/><stop offset="1" stop-color="#FF152C"/></linearGradient><linearGradient id="paint77_linear_171_198" x1="180" y1="3" x2="180" y2="421" gradientUnits="userSpaceOnUse"><stop stop-color="#5431FF"/><stop offset=".4" stop-color="#F9A620"/><stop offset=".6" stop-color="#F9A620"/><stop offset="1" stop-color="#FF152C"/></linearGradient><linearGradient id="paint78_linear_171_198" x1="180" y1="3" x2="180" y2="421" gradientUnits="userSpaceOnUse"><stop stop-color="#5431FF"/><stop offset=".4" stop-color="#F9A620"/><stop offset=".6" stop-color="#F9A620"/><stop offset="1" stop-color="#FF152C"/></linearGradient><linearGradient id="paint79_linear_171_198" x1="180" y1="3" x2="180" y2="421" gradientUnits="userSpaceOnUse"><stop stop-color="#5431FF"/><stop offset=".4" stop-color="#F9A620"/><stop offset=".6" stop-color="#F9A620"/><stop offset="1" stop-color="#FF152C"/></linearGradient><linearGradient id="paint80_linear_171_198" x1="180" y1="3" x2="180" y2="421" gradientUnits="userSpaceOnUse"><stop stop-color="#5431FF"/><stop offset=".4" stop-color="#F9A620"/><stop offset=".6" stop-color="#F9A620"/><stop offset="1" stop-color="#FF152C"/></linearGradient><linearGradient id="paint81_linear_171_198" x1="180" y1="3" x2="180" y2="421" gradientUnits="userSpaceOnUse"><stop stop-color="#5431FF"/><stop offset=".4" stop-color="#F9A620"/><stop offset=".6" stop-color="#F9A620"/><stop offset="1" stop-color="#FF152C"/></linearGradient><linearGradient id="paint82_linear_171_198" x1="180" y1="3" x2="180" y2="421" gradientUnits="userSpaceOnUse"><stop stop-color="#5431FF"/><stop offset=".4" stop-color="#F9A620"/><stop offset=".6" stop-color="#F9A620"/><stop offset="1" stop-color="#FF152C"/></linearGradient><linearGradient id="paint83_linear_171_198" x1="180" y1="3" x2="180" y2="421" gradientUnits="userSpaceOnUse"><stop stop-color="#5431FF"/><stop offset=".4" stop-color="#F9A620"/><stop offset=".6" stop-color="#F9A620"/><stop offset="1" stop-color="#FF152C"/></linearGradient><linearGradient id="paint84_linear_171_198" x1="180" y1="3" x2="180" y2="421" gradientUnits="userSpaceOnUse"><stop stop-color="#5431FF"/><stop offset=".4" stop-color="#F9A620"/><stop offset=".6" stop-color="#F9A620"/><stop offset="1" stop-color="#FF152C"/></linearGradient><linearGradient id="paint85_linear_171_198" x1="180" y1="3" x2="180" y2="421" gradientUnits="userSpaceOnUse"><stop stop-color="#5431FF"/><stop offset=".4" stop-color="#F9A620"/><stop offset=".6" stop-color="#F9A620"/><stop offset="1" stop-color="#FF152C"/></linearGradient><linearGradient id="paint86_linear_171_198" x1="180" y1="3" x2="180" y2="421" gradientUnits="userSpaceOnUse"><stop stop-color="#5431FF"/><stop offset=".4" stop-color="#F9A620"/><stop offset=".6" stop-color="#F9A620"/><stop offset="1" stop-color="#FF152C"/></linearGradient><linearGradient id="paint87_linear_171_198" x1="180" y1="3" x2="180" y2="421" gradientUnits="userSpaceOnUse"><stop stop-color="#5431FF"/><stop offset=".4" stop-color="#F9A620"/><stop offset=".6" stop-color="#F9A620"/><stop offset="1" stop-color="#FF152C"/></linearGradient><linearGradient id="paint88_linear_171_198" x1="180" y1="3" x2="180" y2="421" gradientUnits="userSpaceOnUse"><stop stop-color="#5431FF"/><stop offset=".4" stop-color="#F9A620"/><stop offset=".6" stop-color="#F9A620"/><stop offset="1" stop-color="#FF152C"/></linearGradient><linearGradient id="paint89_linear_171_198" x1="180" y1="3" x2="180" y2="421" gradientUnits="userSpaceOnUse"><stop stop-color="#5431FF"/><stop offset=".4" stop-color="#F9A620"/><stop offset=".6" stop-color="#F9A620"/><stop offset="1" stop-color="#FF152C"/></linearGradient><linearGradient id="paint90_linear_171_198" x1="180" y1="3" x2="180" y2="421" gradientUnits="userSpaceOnUse"><stop stop-color="#5431FF"/><stop offset=".4" stop-color="#F9A620"/><stop offset=".6" stop-color="#F9A620"/><stop offset="1" stop-color="#FF152C"/></linearGradient><linearGradient id="paint91_linear_171_198" x1="180" y1="3" x2="180" y2="421" gradientUnits="userSpaceOnUse"><stop stop-color="#5431FF"/><stop offset=".4" stop-color="#F9A620"/><stop offset=".6" stop-color="#F9A620"/><stop offset="1" stop-color="#FF152C"/></linearGradient><linearGradient id="paint92_linear_171_198" x1="180" y1="3" x2="180" y2="421" gradientUnits="userSpaceOnUse"><stop stop-color="#5431FF"/><stop offset=".4" stop-color="#F9A620"/><stop offset=".6" stop-color="#F9A620"/><stop offset="1" stop-color="#FF152C"/></linearGradient><linearGradient id="paint93_linear_171_198" x1="180" y1="3" x2="180" y2="421" gradientUnits="userSpaceOnUse"><stop stop-color="#5431FF"/><stop offset=".4" stop-color="#F9A620"/><stop offset=".6" stop-color="#F9A620"/><stop offset="1" stop-color="#FF152C"/></linearGradient><linearGradient id="paint94_linear_171_198" x1="180" y1="3" x2="180" y2="421" gradientUnits="userSpaceOnUse"><stop stop-color="#5431FF"/><stop offset=".4" stop-color="#F9A620"/><stop offset=".6" stop-color="#F9A620"/><stop offset="1" stop-color="#FF152C"/></linearGradient><linearGradient id="paint95_linear_171_198" x1="180" y1="3" x2="180" y2="421" gradientUnits="userSpaceOnUse"><stop stop-color="#5431FF"/><stop offset=".4" stop-color="#F9A620"/><stop offset=".6" stop-color="#F9A620"/><stop offset="1" stop-color="#FF152C"/></linearGradient><linearGradient id="paint96_linear_171_198" x1="180" y1="3" x2="180" y2="421" gradientUnits="userSpaceOnUse"><stop stop-color="#5431FF"/><stop offset=".4" stop-color="#F9A620"/><stop offset=".6" stop-color="#F9A620"/><stop offset="1" stop-color="#FF152C"/></linearGradient><linearGradient id="paint97_linear_171_198" x1="180" y1="3" x2="180" y2="421" gradientUnits="userSpaceOnUse"><stop stop-color="#5431FF"/><stop offset=".4" stop-color="#F9A620"/><stop offset=".6" stop-color="#F9A620"/><stop offset="1" stop-color="#FF152C"/></linearGradient><linearGradient id="paint98_linear_171_198" x1="180" y1="3" x2="180" y2="421" gradientUnits="userSpaceOnUse"><stop stop-color="#5431FF"/><stop offset=".4" stop-color="#F9A620"/><stop offset=".6" stop-color="#F9A620"/><stop offset="1" stop-color="#FF152C"/></linearGradient><linearGradient id="paint99_linear_171_198" x1="180" y1="3" x2="180" y2="421" gradientUnits="userSpaceOnUse"><stop stop-color="#5431FF"/><stop offset=".4" stop-color="#F9A620"/><stop offset=".6" stop-color="#F9A620"/><stop offset="1" stop-color="#FF152C"/></linearGradient><linearGradient id="paint100_linear_171_198" x1="180" y1="3" x2="180" y2="421" gradientUnits="userSpaceOnUse"><stop stop-color="#5431FF"/><stop offset=".4" stop-color="#F9A620"/><stop offset=".6" stop-color="#F9A620"/><stop offset="1" stop-color="#FF152C"/></linearGradient><linearGradient id="paint101_linear_171_198" x1="180" y1="3" x2="180" y2="421" gradientUnits="userSpaceOnUse"><stop stop-color="#5431FF"/><stop offset=".4" stop-color="#F9A620"/><stop offset=".6" stop-color="#F9A620"/><stop offset="1" stop-color="#FF152C"/></linearGradient><linearGradient id="paint102_linear_171_198" x1="180" y1="3" x2="180" y2="421" gradientUnits="userSpaceOnUse"><stop stop-color="#5431FF"/><stop offset=".4" stop-color="#F9A620"/><stop offset=".6" stop-color="#F9A620"/><stop offset="1" stop-color="#FF152C"/></linearGradient><linearGradient id="paint103_linear_171_198" x1="180" y1="3" x2="180" y2="421" gradientUnits="userSpaceOnUse"><stop stop-color="#5431FF"/><stop offset=".4" stop-color="#F9A620"/><stop offset=".6" stop-color="#F9A620"/><stop offset="1" stop-color="#FF152C"/></linearGradient><linearGradient id="paint104_linear_171_198" x1="180" y1="3" x2="180" y2="421" gradientUnits="userSpaceOnUse"><stop stop-color="#5431FF"/><stop offset=".4" stop-color="#F9A620"/><stop offset=".6" stop-color="#F9A620"/><stop offset="1" stop-color="#FF152C"/></linearGradient><linearGradient id="paint105_linear_171_198" x1="180" y1="3" x2="180" y2="421" gradientUnits="userSpaceOnUse"><stop stop-color="#5431FF"/><stop offset=".4" stop-color="#F9A620"/><stop offset=".6" stop-color="#F9A620"/><stop offset="1" stop-color="#FF152C"/></linearGradient><linearGradient id="paint106_linear_171_198" x1="180" y1="3" x2="180" y2="421" gradientUnits="userSpaceOnUse"><stop stop-color="#5431FF"/><stop offset=".4" stop-color="#F9A620"/><stop offset=".6" stop-color="#F9A620"/><stop offset="1" stop-color="#FF152C"/></linearGradient><linearGradient id="paint107_linear_171_198" x1="180" y1="3" x2="180" y2="421" gradientUnits="userSpaceOnUse"><stop stop-color="#5431FF"/><stop offset=".4" stop-color="#F9A620"/><stop offset=".6" stop-color="#F9A620"/><stop offset="1" stop-color="#FF152C"/></linearGradient><linearGradient id="paint108_linear_171_198" x1="180" y1="3" x2="180" y2="421" gradientUnits="userSpaceOnUse"><stop stop-color="#5431FF"/><stop offset=".4" stop-color="#F9A620"/><stop offset=".6" stop-color="#F9A620"/><stop offset="1" stop-color="#FF152C"/></linearGradient><linearGradient id="paint109_linear_171_198" x1="180" y1="3" x2="180" y2="421" gradientUnits="userSpaceOnUse"><stop stop-color="#5431FF"/><stop offset=".4" stop-color="#F9A620"/><stop offset=".6" stop-color="#F9A620"/><stop offset="1" stop-color="#FF152C"/></linearGradient><linearGradient id="paint110_linear_171_198" x1="180" y1="3" x2="180" y2="421" gradientUnits="userSpaceOnUse"><stop stop-color="#5431FF"/><stop offset=".4" stop-color="#F9A620"/><stop offset=".6" stop-color="#F9A620"/><stop offset="1" stop-color="#FF152C"/></linearGradient><linearGradient id="paint111_linear_171_198" x1="180" y1="3" x2="180" y2="421" gradientUnits="userSpaceOnUse"><stop stop-color="#5431FF"/><stop offset=".4" stop-color="#F9A620"/><stop offset=".6" stop-color="#F9A620"/><stop offset="1" stop-color="#FF152C"/></linearGradient><linearGradient id="paint112_linear_171_198" x1="180" y1="3" x2="180" y2="421" gradientUnits="userSpaceOnUse"><stop stop-color="#5431FF"/><stop offset=".4" stop-color="#F9A620"/><stop offset=".6" stop-color="#F9A620"/><stop offset="1" stop-color="#FF152C"/></linearGradient><linearGradient id="paint113_linear_171_198" x1="180" y1="3" x2="180" y2="421" gradientUnits="userSpaceOnUse"><stop stop-color="#5431FF"/><stop offset=".4" stop-color="#F9A620"/><stop offset=".6" stop-color="#F9A620"/><stop offset="1" stop-color="#FF152C"/></linearGradient><linearGradient id="paint114_linear_171_198" x1="180" y1="3" x2="180" y2="421" gradientUnits="userSpaceOnUse"><stop stop-color="#5431FF"/><stop offset=".4" stop-color="#F9A620"/><stop offset=".6" stop-color="#F9A620"/><stop offset="1" stop-color="#FF152C"/></linearGradient><linearGradient id="paint115_linear_171_198" x1="180" y1="3" x2="180" y2="421" gradientUnits="userSpaceOnUse"><stop stop-color="#5431FF"/><stop offset=".4" stop-color="#F9A620"/><stop offset=".6" stop-color="#F9A620"/><stop offset="1" stop-color="#FF152C"/></linearGradient><linearGradient id="paint116_linear_171_198" x1="180" y1="3" x2="180" y2="421" gradientUnits="userSpaceOnUse"><stop stop-color="#5431FF"/><stop offset=".4" stop-color="#F9A620"/><stop offset=".6" stop-color="#F9A620"/><stop offset="1" stop-color="#FF152C"/></linearGradient><linearGradient id="paint117_linear_171_198" x1="180" y1="3" x2="180" y2="421" gradientUnits="userSpaceOnUse"><stop stop-color="#5431FF"/><stop offset=".4" stop-color="#F9A620"/><stop offset=".6" stop-color="#F9A620"/><stop offset="1" stop-color="#FF152C"/></linearGradient><linearGradient id="paint118_linear_171_198" x1="180" y1="3" x2="180" y2="421" gradientUnits="userSpaceOnUse"><stop stop-color="#5431FF"/><stop offset=".4" stop-color="#F9A620"/><stop offset=".6" stop-color="#F9A620"/><stop offset="1" stop-color="#FF152C"/></linearGradient><linearGradient id="paint119_linear_171_198" x1="180" y1="3" x2="180" y2="421" gradientUnits="userSpaceOnUse"><stop stop-color="#5431FF"/><stop offset=".4" stop-color="#F9A620"/><stop offset=".6" stop-color="#F9A620"/><stop offset="1" stop-color="#FF152C"/></linearGradient><linearGradient id="paint120_linear_171_198" x1="180" y1="3" x2="180" y2="421" gradientUnits="userSpaceOnUse"><stop stop-color="#5431FF"/><stop offset=".4" stop-color="#F9A620"/><stop offset=".6" stop-color="#F9A620"/><stop offset="1" stop-color="#FF152C"/></linearGradient><linearGradient id="paint121_linear_171_198" x1="180" y1="3" x2="180" y2="421" gradientUnits="userSpaceOnUse"><stop stop-color="#5431FF"/><stop offset=".4" stop-color="#F9A620"/><stop offset=".6" stop-color="#F9A620"/><stop offset="1" stop-color="#FF152C"/></linearGradient><linearGradient id="paint122_linear_171_198" x1="180" y1="3" x2="180" y2="421" gradientUnits="userSpaceOnUse"><stop stop-color="#5431FF"/><stop offset=".4" stop-color="#F9A620"/><stop offset=".6" stop-color="#F9A620"/><stop offset="1" stop-color="#FF152C"/></linearGradient><linearGradient id="paint123_linear_171_198" x1="180" y1="3" x2="180" y2="421" gradientUnits="userSpaceOnUse"><stop stop-color="#5431FF"/><stop offset=".4" stop-color="#F9A620"/><stop offset=".6" stop-color="#F9A620"/><stop offset="1" stop-color="#FF152C"/></linearGradient><linearGradient id="paint124_linear_171_198" x1="180" y1="3" x2="180" y2="421" gradientUnits="userSpaceOnUse"><stop stop-color="#5431FF"/><stop offset=".4" stop-color="#F9A620"/><stop offset=".6" stop-color="#F9A620"/><stop offset="1" stop-color="#FF152C"/></linearGradient><linearGradient id="paint125_linear_171_198" x1="180" y1="3" x2="180" y2="421" gradientUnits="userSpaceOnUse"><stop stop-color="#5431FF"/><stop offset=".4" stop-color="#F9A620"/><stop offset=".6" stop-color="#F9A620"/><stop offset="1" stop-color="#FF152C"/></linearGradient><linearGradient id="paint126_linear_171_198" x1="180" y1="3" x2="180" y2="421" gradientUnits="userSpaceOnUse"><stop stop-color="#5431FF"/><stop offset=".4" stop-color="#F9A620"/><stop offset=".6" stop-color="#F9A620"/><stop offset="1" stop-color="#FF152C"/></linearGradient><linearGradient id="paint127_linear_171_198" x1="180" y1="3" x2="180" y2="421" gradientUnits="userSpaceOnUse"><stop stop-color="#5431FF"/><stop offset=".4" stop-color="#F9A620"/><stop offset=".6" stop-color="#F9A620"/><stop offset="1" stop-color="#FF152C"/></linearGradient><linearGradient id="paint128_linear_171_198" x1="180" y1="3" x2="180" y2="421" gradientUnits="userSpaceOnUse"><stop stop-color="#5431FF"/><stop offset=".4" stop-color="#F9A620"/><stop offset=".6" stop-color="#F9A620"/><stop offset="1" stop-color="#FF152C"/></linearGradient><linearGradient id="paint129_linear_171_198" x1="180" y1="3" x2="180" y2="421" gradientUnits="userSpaceOnUse"><stop stop-color="#5431FF"/><stop offset=".4" stop-color="#F9A620"/><stop offset=".6" stop-color="#F9A620"/><stop offset="1" stop-color="#FF152C"/></linearGradient><linearGradient id="paint130_linear_171_198" x1="180" y1="3" x2="180" y2="421" gradientUnits="userSpaceOnUse"><stop stop-color="#5431FF"/><stop offset=".4" stop-color="#F9A620"/><stop offset=".6" stop-color="#F9A620"/><stop offset="1" stop-color="#FF152C"/></linearGradient><linearGradient id="paint131_linear_171_198" x1="180" y1="3" x2="180" y2="421" gradientUnits="userSpaceOnUse"><stop stop-color="#5431FF"/><stop offset=".4" stop-color="#F9A620"/><stop offset=".6" stop-color="#F9A620"/><stop offset="1" stop-color="#FF152C"/></linearGradient><clipPath id="clip0_171_198"><path fill="#fff" transform="translate(376 421)" d="M0 0h272v282H0z"/></clipPath></defs></svg>