<svg width="20" height="21" viewBox="0 0 20 21" fill="none" xmlns="http://www.w3.org/2000/svg">
<g clip-path="url(#clip0_22656_202630)">
<path d="M17.7778 4.25391H2.22222C0.994923 4.25391 0 5.24883 0 6.47613V18.6984C0 19.9257 0.994923 20.9206 2.22222 20.9206H17.7778C19.0051 20.9206 20 19.9257 20 18.6984V6.47613C20 5.24883 19.0051 4.25391 17.7778 4.25391Z" stroke="#FF1900" stroke-width="2"/>
<path d="M0 8.69836C0 6.6028 -6.62274e-08 5.55613 0.651111 4.90502C1.30222 4.25391 2.34889 4.25391 4.44444 4.25391H15.5556C17.6511 4.25391 18.6978 4.25391 19.3489 4.90502C20 5.55613 20 6.6028 20 8.69836H0Z" fill="#FF1900"/>
<path d="M4.44434 0.92041V4.25375M15.5554 0.92041V4.25375" stroke="#FF1900" stroke-width="2" stroke-linecap="round"/>
</g>
<defs>
<clipPath id="clip0_22656_202630">
<rect width="20" height="20" fill="white" transform="translate(0 0.92041)"/>
</clipPath>
</defs>
</svg>
