<svg width="18" height="23" fill="none" xmlns="http://www.w3.org/2000/svg"><path d="M4 2.05c0 .477-.21.935-.586 1.273A2.118 2.118 0 0 1 2 3.85c-.53 0-1.04-.19-1.414-.527A1.714 1.714 0 0 1 0 2.05c0-.477.21-.935.586-1.273A2.118 2.118 0 0 1 2 .25c.53 0 1.04.19 1.414.527.375.338.586.796.586 1.273zm0 6.3c0 .477-.21.935-.586 1.273A2.118 2.118 0 0 1 2 10.15c-.53 0-1.04-.19-1.414-.527A1.714 1.714 0 0 1 0 8.35c0-.477.21-.935.586-1.273A2.118 2.118 0 0 1 2 6.55c.53 0 1.04.19 1.414.527.375.338.586.796.586 1.273zm0 6.3c0 .477-.21.935-.586 1.273A2.118 2.118 0 0 1 2 16.45c-.53 0-1.04-.19-1.414-.527A1.714 1.714 0 0 1 0 14.65c0-.477.21-.935.586-1.273A2.118 2.118 0 0 1 2 12.85c.53 0 1.04.19 1.414.527.375.338.586.796.586 1.273zm7-12.6c0 .477-.21.935-.586 1.273A2.118 2.118 0 0 1 9 3.85c-.53 0-1.04-.19-1.414-.527A1.714 1.714 0 0 1 7 2.05c0-.477.21-.935.586-1.273A2.118 2.118 0 0 1 9 .25c.53 0 1.04.19 1.414.527.375.338.586.796.586 1.273zm0 6.3c0 .477-.21.935-.586 1.273A2.118 2.118 0 0 1 9 10.15c-.53 0-1.04-.19-1.414-.527A1.714 1.714 0 0 1 7 8.35c0-.477.21-.935.586-1.273A2.118 2.118 0 0 1 9 6.55c.53 0 1.04.19 1.414.527.375.338.586.796.586 1.273zm0 6.3c0 .477-.21.935-.586 1.273A2.118 2.118 0 0 1 9 16.45c-.53 0-1.04-.19-1.414-.527A1.714 1.714 0 0 1 7 14.65c0-.477.21-.935.586-1.273A2.118 2.118 0 0 1 9 12.85c.53 0 1.04.19 1.414.527.375.338.586.796.586 1.273zm0 6.3c0 .477-.21.935-.586 1.273A2.118 2.118 0 0 1 9 22.75c-.53 0-1.04-.19-1.414-.527A1.714 1.714 0 0 1 7 20.95c0-.477.21-.935.586-1.273A2.118 2.118 0 0 1 9 19.15c.53 0 1.04.19 1.414.527.375.338.586.796.586 1.273zm7-18.9c0 .477-.21.935-.586 1.273A2.118 2.118 0 0 1 16 3.85c-.53 0-1.04-.19-1.414-.527A1.714 1.714 0 0 1 14 2.05c0-.477.21-.935.586-1.273A2.118 2.118 0 0 1 16 .25c.53 0 1.04.19 1.414.527.375.338.586.796.586 1.273zm0 6.3c0 .477-.21.935-.586 1.273A2.118 2.118 0 0 1 16 10.15c-.53 0-1.04-.19-1.414-.527A1.714 1.714 0 0 1 14 8.35c0-.477.21-.935.586-1.273A2.118 2.118 0 0 1 16 6.55c.53 0 1.04.19 1.414.527.375.338.586.796.586 1.273zm0 6.3c0 .477-.21.935-.586 1.273A2.118 2.118 0 0 1 16 16.45c-.53 0-1.04-.19-1.414-.527A1.714 1.714 0 0 1 14 14.65c0-.477.21-.935.586-1.273A2.118 2.118 0 0 1 16 12.85c.53 0 1.04.19 1.414.527.375.338.586.796.586 1.273z" fill="#E8E8E8" style="mix-blend-mode:plus-lighter"/></svg>