<svg width="50" height="50" viewBox="0 0 50 50" fill="none" xmlns="http://www.w3.org/2000/svg">
<g clip-path="url(#clip0_22534_264336)">
<g clip-path="url(#clip1_22534_264336)">
<path fill-rule="evenodd" clip-rule="evenodd" d="M23.3335 6.83333H18.4169C15.7015 6.83333 13.5002 9.0346 13.5002 11.75C13.5002 14.4654 15.7015 16.6667 18.4169 16.6667H23.3335V6.83333ZM23.3335 3.5H26.6669H31.5835C36.14 3.5 39.8334 7.19363 39.8334 11.75C39.8334 14.4388 38.5474 16.8272 36.5564 18.3333C38.5474 19.8395 39.8334 22.2279 39.8334 24.9167C39.8334 29.473 36.14 33.1667 31.5835 33.1667C29.7412 33.1667 28.04 32.5628 26.6669 31.5422V33.1667V38.0834C26.6669 42.6397 22.9732 46.3334 18.4169 46.3334C13.8605 46.3334 10.1669 42.6397 10.1669 38.0834C10.1669 35.3944 11.4531 33.0062 13.4439 31.5C11.4531 29.9938 10.1669 27.6055 10.1669 24.9167C10.1669 22.2279 11.4532 19.8395 13.444 18.3334C11.4532 16.8272 10.1669 14.4388 10.1669 11.75C10.1669 7.19363 13.8605 3.5 18.4169 3.5H23.3335ZM26.6669 6.83333V16.6667H31.5835C34.299 16.6667 36.5 14.4654 36.5 11.75C36.5 9.0346 34.299 6.83333 31.5835 6.83333H26.6669ZM18.4169 29.8333H23.3335V24.9294V24.9167V24.904V20H18.4169C15.7015 20 13.5002 22.2013 13.5002 24.9167C13.5002 27.6256 15.6909 29.8228 18.3974 29.8333L18.4169 29.8333ZM13.5002 38.0834C13.5002 35.3744 15.6909 33.1772 18.3974 33.1667L18.4169 33.1667H23.3335V38.0834C23.3335 40.7987 21.1323 43 18.4169 43C15.7015 43 13.5002 40.7987 13.5002 38.0834ZM26.6669 24.9069C26.6722 22.196 28.8714 20 31.5835 20C34.299 20 36.5 22.2013 36.5 24.9167C36.5 27.6321 34.299 29.8334 31.5835 29.8334C28.8714 29.8334 26.6722 27.6374 26.6669 24.9265V24.9069Z" fill="#0ACF83"/>
</g>
</g>
<defs>
<clipPath id="clip0_22534_264336">
<rect width="50" height="50" fill="white"/>
</clipPath>
<clipPath id="clip1_22534_264336">
<rect width="50" height="50.0001" fill="white"/>
</clipPath>
</defs>
</svg>
