<svg width="28" height="22" fill="none" xmlns="http://www.w3.org/2000/svg"><path d="M27 6.571 14 1 1 6.571l13 5.572L27 6.57zm0 0v8.358V6.57z" fill="#e8e8e8"/><path d="M27 6.571 14 1 1 6.571l13 5.572L27 6.57zm0 0v8.358" stroke="#e8e8e8" stroke-width="2" stroke-linecap="round" stroke-linejoin="round"/><path d="M6.2 8.8v7.521c0 1.108.822 2.171 2.285 2.955C9.948 20.06 11.932 20.5 14 20.5c2.069 0 4.053-.44 5.516-1.224 1.462-.784 2.284-1.846 2.284-2.955V8.8" fill="#e8e8e8"/><path d="M6.2 8.8v7.521c0 1.108.822 2.171 2.285 2.955C9.948 20.06 11.932 20.5 14 20.5c2.069 0 4.053-.44 5.516-1.224 1.462-.784 2.284-1.846 2.284-2.955V8.8" stroke="#e8e8e8" stroke-width="2" stroke-linecap="round" stroke-linejoin="round"/></svg>