<svg width="28" height="22" viewBox="0 0 28 22" fill="none" xmlns="http://www.w3.org/2000/svg">
    <path d="M27 6.57143L14 1L1 6.57143L14 12.1429L27 6.57143ZM27 6.57143V14.9286V6.57143Z" fill="#2E2727" />
    <path d="M27 6.57143L14 1L1 6.57143L14 12.1429L27 6.57143ZM27 6.57143V14.9286" stroke="#2E2727" stroke-width="2"
        stroke-linecap="round" stroke-linejoin="round" />
    <path
        d="M6.2002 8.7998V16.3212C6.2002 17.4295 7.02198 18.4923 8.48476 19.2759C9.94755 20.0596 11.9315 20.4998 14.0002 20.4998C16.0689 20.4998 18.0528 20.0596 19.5156 19.2759C20.9784 18.4923 21.8002 17.4295 21.8002 16.3212V8.7998"
        fill="#2E2727" />
    <path
        d="M6.2002 8.7998V16.3212C6.2002 17.4295 7.02198 18.4923 8.48476 19.2759C9.94755 20.0596 11.9315 20.4998 14.0002 20.4998C16.0689 20.4998 18.0528 20.0596 19.5156 19.2759C20.9784 18.4923 21.8002 17.4295 21.8002 16.3212V8.7998"
        stroke="#2E2727" stroke-width="2" stroke-linecap="round" stroke-linejoin="round" />
</svg>