<svg xmlns="http://www.w3.org/2000/svg" viewBox="0 0 192.66 311.82"><defs><style>.cls-1{fill:#3d3d3d;}</style></defs><g id="katman_2" data-name="katman 2"><g id="Layer_2" data-name="Layer 2"><rect class="cls-1" x="103.89" y="153.5" width="1.27" height="158.31"/><rect class="cls-1" x="81.9" y="143.14" width="1.27" height="18.11"/><rect class="cls-1" x="113.37" y="101.07" width="1.27" height="95.07"/><rect class="cls-1" x="107.96" y="106.52" width="1.27" height="80.03"/><rect class="cls-1" x="140.55" y="151.11" width="1.27" height="14.99"/><rect class="cls-1" x="124.25" y="142.55" width="1.26" height="31.9"/><rect class="cls-1" x="135.14" y="170.97" width="1.26" height="140.85"/><rect class="cls-1" x="137.85" y="175.58" width="1.27" height="136.24"/><rect class="cls-1" x="132.64" y="170.97" width="1.27" height="72.73"/><rect class="cls-1" x="107.96" y="201.01" width="1.27" height="20.21"/><rect class="cls-1" x="61.19" y="138.67" width="29.13" height="1.27"/><rect class="cls-1" x="96.66" y="136.04" width="1.27" height="20.98" transform="translate(-75.12 111.71) rotate(-45)"/><rect class="cls-1" x="87.28" y="181.43" width="1.27" height="24.23" transform="translate(-111.13 118.92) rotate(-45.02)"/><rect class="cls-1" x="132.72" y="192.36" width="1.27" height="22.66" transform="translate(-105 154.09) rotate(-45.03)"/><rect class="cls-1" x="56.62" y="171.04" width="1.27" height="27.53" transform="translate(-113.89 94.57) rotate(-44.99)"/><rect class="cls-1" x="100.73" y="132.36" width="1.27" height="20.98" transform="translate(-71.32 113.51) rotate(-45)"/><rect class="cls-1" x="85.93" y="148.37" width="1.27" height="11.87" transform="translate(-83.74 106.36) rotate(-44.98)"/><rect class="cls-1" x="73.58" y="163.58" width="1.27" height="11.87" transform="translate(-98.11 102.08) rotate(-44.98)"/><rect class="cls-1" x="75.1" y="186.65" width="1.27" height="11.87" transform="translate(-113.97 109.9) rotate(-44.98)"/><rect class="cls-1" x="93.65" y="55.53" width="1.27" height="20.98" transform="translate(-19.07 86.01) rotate(-45)"/><polygon class="cls-1" points="82.99 66.31 75.12 58.48 76.02 57.58 83.88 65.42 82.99 66.31"/><rect class="cls-1" x="86.13" y="158.98" width="1.26" height="12.49" transform="translate(-91.4 109.68) rotate(-44.98)"/><rect class="cls-1" x="91.48" y="12.84" width="1.27" height="18.11"/><rect class="cls-1" x="95.71" y="28.68" width="1.27" height="12.49" transform="translate(3.51 78.32) rotate(-44.98)"/><rect class="cls-1" x="87.89" y="17.37" width="1.26" height="18.11"/><rect class="cls-1" x="77.31" y="19.89" width="1.26" height="16.21"/><rect class="cls-1" x="93.91" y="32.46" width="1.27" height="17.57" transform="translate(-1.49 78.9) rotate(-44.98)"/><rect class="cls-1" x="100.43" y="94.6" width="1.27" height="7.92" transform="translate(-40.09 100.46) rotate(-45.05)"/><rect class="cls-1" x="85.79" y="90.51" width="1.26" height="7.92" transform="translate(-41.5 88.91) rotate(-45.06)"/><rect class="cls-1" x="100.15" y="115.89" width="1.27" height="7.92" transform="translate(-55.24 106.51) rotate(-45.05)"/><rect class="cls-1" x="64.44" y="144.65" width="1.27" height="7.92" transform="translate(-86.08 89.68) rotate(-45.05)"/><rect class="cls-1" x="67.69" y="167.11" width="1.27" height="7.92" transform="translate(-101.03 98.59) rotate(-45.06)"/><rect class="cls-1" x="94.56" y="100.44" width="1.27" height="7.92" transform="translate(-45.95 98.03) rotate(-45.06)"/><polygon class="cls-1" points="124.77 88.35 113.58 77.26 114.47 76.37 125.66 87.45 124.77 88.35"/><polygon class="cls-1" points="125.08 180.78 119.62 175.35 120.51 174.45 125.97 179.88 125.08 180.78"/><polygon class="cls-1" points="104.07 191.43 98.61 186 99.51 185.1 104.96 190.54 104.07 191.43"/><polygon class="cls-1" points="94.51 264.42 89.06 258.98 89.95 258.09 95.41 263.52 94.51 264.42"/><rect class="cls-1" x="146.87" y="105.18" width="1.27" height="9.25" transform="translate(-34.44 136.44) rotate(-45)"/><rect class="cls-1" x="152.05" y="105.18" width="1.27" height="9.25" transform="translate(-32.93 140.11) rotate(-45)"/><rect class="cls-1" x="149.23" y="90.71" width="1.27" height="9.25" transform="translate(-23.52 133.88) rotate(-45)"/><polygon class="cls-1" points="119.99 96.86 110.75 87.58 111.64 86.68 120.89 95.97 119.99 96.86"/><rect class="cls-1" x="118.7" y="58.12" width="1.27" height="9.25" transform="translate(-9.42 102.76) rotate(-45)"/><rect class="cls-1" x="77.68" y="70.39" width="1.26" height="12.48" transform="translate(-31.25 77.8) rotate(-44.99)"/><rect class="cls-1" x="130.37" y="46.22" width="1.27" height="9.25" transform="translate(2.41 107.52) rotate(-45)"/><polygon class="cls-1" points="160.69 91.86 150.63 81.75 151.53 80.86 161.58 90.97 160.69 91.86"/><polygon class="cls-1" points="185.69 111.59 175.63 101.48 176.53 100.58 186.58 110.69 185.69 111.59"/><rect class="cls-1" x="129.58" y="71.37" width="1.26" height="12.69" transform="translate(-16.85 114.71) rotate(-44.95)"/><rect class="cls-1" x="127.11" y="50.74" width="1.27" height="12.69" transform="translate(-2.99 106.94) rotate(-44.95)"/><rect class="cls-1" x="153.82" y="199.83" width="1.27" height="11.12" transform="translate(-99.99 169.35) rotate(-45)"/><rect class="cls-1" x="111.71" y="219.14" width="1.27" height="11.12" transform="translate(-125.98 145.26) rotate(-45)"/><rect class="cls-1" x="107.22" y="197.94" width="8.16" height="1.27" transform="translate(-107.78 136.73) rotate(-44.97)"/><rect class="cls-1" x="111.3" y="202.55" width="1.27" height="15.61"/><rect class="cls-1" x="116.7" y="186.02" width="1.27" height="11.66"/><rect class="cls-1" x="110.55" y="199.48" width="8.16" height="1.27" transform="translate(-107.89 139.56) rotate(-44.97)"/><rect class="cls-1" x="134.4" y="167.91" width="8.16" height="1.27" transform="translate(-78.6 147.12) rotate(-44.96)"/><rect class="cls-1" x="143.25" y="155.72" width="1.27" height="14.99"/><rect class="cls-1" x="137.1" y="172.52" width="8.16" height="1.27" transform="translate(-81.07 150.41) rotate(-44.97)"/><rect class="cls-1" x="140.55" y="179.29" width="1.26" height="104.14"/><rect class="cls-1" x="139.8" y="176.23" width="8.16" height="1.27" transform="translate(-82.9 153.41) rotate(-44.97)"/><rect class="cls-1" x="110.91" y="214.2" width="8.16" height="1.27" transform="translate(-118.18 144.07) rotate(-44.96)"/><rect class="cls-1" x="109.29" y="258.29" width="8.16" height="1.27" transform="translate(-149.81 155.81) rotate(-44.96)"/><rect class="cls-1" x="126.49" y="245.5" width="8.16" height="1.27" transform="translate(-135.75 164.24) rotate(-44.96)"/><rect class="cls-1" x="147.1" y="268.16" width="8.16" height="1.27" transform="translate(-145.74 185.45) rotate(-44.97)"/><rect class="cls-1" x="127.23" y="150.21" width="1.27" height="15.9"/><rect class="cls-1" x="129.94" y="164.46" width="1.27" height="8.16" transform="translate(-80.95 141.85) rotate(-45.04)"/><rect class="cls-1" x="154.17" y="171.35" width="8.16" height="1.26" transform="translate(-75.26 162.11) rotate(-44.96)"/><rect class="cls-1" x="164.11" y="175.77" width="8.16" height="1.26" transform="translate(-75.47 170.39) rotate(-44.95)"/><rect class="cls-1" x="133.88" y="81.75" width="1.27" height="51.78"/><polygon class="cls-1" points="125.15 143.44 135.14 133.54 134.25 132.64 124.25 142.55 125.15 143.44"/><polygon class="cls-1" points="55.1 154.25 65.09 144.34 64.2 143.44 54.2 153.35 55.1 154.25"/><polygon class="cls-1" points="27.51 151.27 37.51 141.36 36.61 140.47 26.62 150.37 27.51 151.27"/><polygon class="cls-1" points="44.23 142.22 54.22 132.31 53.33 131.42 43.33 141.32 44.23 142.22"/><polygon class="cls-1" points="17.27 131.82 27.27 121.91 26.37 121.02 16.38 130.93 17.27 131.82"/><polygon class="cls-1" points="4.03 123.79 14.03 113.88 13.14 112.99 3.14 122.89 4.03 123.79"/><polygon class="cls-1" points="66.5 194.96 76.49 185.05 75.59 184.15 65.6 194.06 66.5 194.96"/><rect class="cls-1" x="130.11" y="89.62" width="1.27" height="39.2"/><polygon class="cls-1" points="124.03 136.04 131.38 128.81 130.48 127.92 123.13 135.15 124.03 136.04"/><polygon class="cls-1" points="185.74 111.59 189.85 107.51 188.96 106.61 184.84 110.69 185.74 111.59"/><polygon class="cls-1" points="90.65 153.98 98 146.75 97.1 145.86 89.75 153.09 90.65 153.98"/><polygon class="cls-1" points="128.13 151.11 138.13 141.2 137.23 140.31 127.23 150.22 128.13 151.11"/><polygon class="cls-1" points="65.97 169.61 75.96 159.7 75.07 158.81 65.07 168.72 65.97 169.61"/><polygon class="cls-1" points="89.32 168.62 99.32 158.71 98.42 157.82 88.43 167.73 89.32 168.62"/><polygon class="cls-1" points="75.11 171.16 84.16 162.15 83.26 161.25 74.21 170.27 75.11 171.16"/><polygon class="cls-1" points="55.57 182.9 68.1 170.41 67.2 169.52 54.67 182 55.57 182.9"/><polygon class="cls-1" points="150.99 133.66 160.99 123.75 160.09 122.86 150.1 132.76 150.99 133.66"/><rect class="cls-1" x="113.58" y="45.36" width="1.26" height="31.9"/><rect class="cls-1" x="132.05" y="6.82" width="1.26" height="31.95"/><rect class="cls-1" x="100" y="30.32" width="1.27" height="31.9"/><rect class="cls-1" x="91.86" y="80.38" width="1.27" height="6.42"/><polygon class="cls-1" points="114.47 46.26 119.92 40.85 119.02 39.96 113.58 45.36 114.47 46.26"/><polygon class="cls-1" points="156.49 74.71 145.3 63.62 146.19 62.73 157.38 73.81 156.49 74.71"/><polygon class="cls-1" points="132.48 44.2 121.29 33.12 122.18 32.22 133.37 43.31 132.48 44.2"/><rect class="cls-1" x="145.3" y="31.72" width="1.27" height="31.9"/><rect class="cls-1" x="159.45" y="69.88" width="1.27" height="20.21"/><rect class="cls-1" x="156.75" y="94.06" width="1.27" height="15.13"/><polygon class="cls-1" points="146.19 32.62 156.19 22.71 155.29 21.81 145.3 31.72 146.19 32.62"/><polygon class="cls-1" points="123.35 16.7 133.35 6.79 132.45 5.9 122.46 15.81 123.35 16.7"/><rect class="cls-1" x="154.91" y="142.51" width="1.26" height="31.9"/><polygon class="cls-1" points="155.81 143.4 165.8 133.49 164.91 132.6 154.91 142.51 155.81 143.4"/><rect class="cls-1" x="177.64" y="158.62" width="1.26" height="37.82"/><polygon class="cls-1" points="178.01 159.51 168.01 149.6 168.91 148.71 178.9 158.61 178.01 159.51"/><rect class="cls-1" x="53.59" y="121.58" width="1.27" height="20.98" transform="translate(-77.51 77.02) rotate(-45)"/><rect class="cls-1" x="31.19" y="116.08" width="1.27" height="20.98" transform="translate(-80.18 59.58) rotate(-45)"/><rect class="cls-1" x="19.48" y="110.36" width="1.27" height="20.98" transform="translate(-79.56 49.62) rotate(-45)"/><rect class="cls-1" x="80.1" y="106.52" width="29.13" height="1.27"/><rect class="cls-1" x="77.06" y="91.2" width="21.38" height="1.26"/><rect class="cls-1" x="150.07" y="121.87" width="1.26" height="80.03"/><rect class="cls-1" x="143.33" y="123.9" width="1.27" height="5.04"/><rect class="cls-1" x="85.85" y="201.59" width="21.74" height="1.27" transform="translate(-114.65 127.57) rotate(-44.99)"/><rect class="cls-1" x="110.03" y="222.83" width="1.27" height="44.49"/><rect class="cls-1" x="147.85" y="271.23" width="1.26" height="40.59"/><rect class="cls-1" x="145.63" y="287.98" width="1.27" height="23.84"/><rect class="cls-1" x="115.12" y="271.86" width="1.27" height="39.96"/><rect class="cls-1" x="94.14" y="204.1" width="1.27" height="87.43"/><rect class="cls-1" x="127.23" y="248.57" width="1.27" height="63.25"/><rect class="cls-1" x="142.67" y="129.58" width="1.27" height="12.39" transform="translate(-54.03 141.09) rotate(-45)"/><rect class="cls-1" x="161.97" y="155.56" width="1.27" height="12.39" transform="translate(-66.75 162.34) rotate(-45)"/><rect class="cls-1" x="160.79" y="188.75" width="1.27" height="12.39" transform="translate(-90.57 171.23) rotate(-45)"/><rect class="cls-1" x="167.17" y="107.82" width="1.27" height="12.39" transform="translate(-31.47 152.05) rotate(-45)"/><polygon class="cls-1" points="177.82 191.88 164.86 178.84 165.75 177.94 178.72 190.98 177.82 191.88"/><rect class="cls-1" x="164.28" y="135.74" width="1.27" height="12.39" transform="translate(-52.06 158.17) rotate(-45)"/><rect class="cls-1" x="146.87" y="139.71" width="1.26" height="24.64"/><rect class="cls-1" x="168.84" y="145.49" width="13.01" height="1.27"/><polygon class="cls-1" points="150.97 197.25 167.87 180.44 166.98 179.54 150.07 196.35 150.97 197.25"/><polygon class="cls-1" points="103.92 134.62 120.83 117.81 119.94 116.91 103.03 133.72 103.92 134.62"/><polygon class="cls-1" points="116.44 92.42 133.34 75.62 132.45 74.72 115.54 91.53 116.44 92.42"/><polygon class="cls-1" points="94.97 271.1 110.92 255.25 110.08 254.4 94.13 270.26 94.97 271.1"/><polygon class="cls-1" points="111.21 248.14 138.9 220.74 138.06 219.9 110.37 247.29 111.21 248.14"/><polygon class="cls-1" points="162.88 212.73 177.76 198.12 176.87 197.22 161.98 211.84 162.88 212.73"/><polygon class="cls-1" points="174.29 215.48 189.18 200.87 188.29 199.97 173.4 214.59 174.29 215.48"/><polygon class="cls-1" points="150.97 122.77 171.16 102.52 170.26 101.62 150.07 121.87 150.97 122.77"/><polygon class="cls-1" points="186.5 83.23 191.28 78.37 190.39 77.47 185.6 82.34 186.5 83.23"/><polygon class="cls-1" points="179.85 101.26 184.64 96.39 183.74 95.5 178.96 100.36 179.85 101.26"/><polygon class="cls-1" points="174.95 118.59 179.74 113.73 178.84 112.83 174.06 117.7 174.95 118.59"/><rect class="cls-1" x="141.26" y="117.66" width="17.21" height="1.27" transform="translate(-39.75 140.6) rotate(-45)"/><rect class="cls-1" x="54.04" y="143.14" width="29.13" height="1.27"/><rect class="cls-1" x="171.32" y="84.01" width="15.55" height="1.27"/><rect class="cls-1" x="97.81" y="85.83" width="1.26" height="10.38"/><rect class="cls-1" x="82.8" y="85.83" width="16.28" height="1.27"/><rect class="cls-1" x="36.58" y="150.37" width="20.98" height="1.27" transform="translate(-92.99 77.52) rotate(-45)"/><rect class="cls-1" x="44.45" y="167.91" width="20.98" height="1.26" transform="translate(-103.09 88.21) rotate(-45)"/><rect class="cls-1" x="97.48" y="113.22" width="1.27" height="18.11"/><rect class="cls-1" x="79.61" y="110.75" width="12.49" height="1.27" transform="translate(-53.62 93.4) rotate(-45.03)"/><rect class="cls-1" x="80.32" y="125.79" width="12.49" height="1.27" transform="translate(-64.05 98.31) rotate(-45.03)"/><rect class="cls-1" x="36.54" y="128.93" width="12.49" height="1.26" transform="translate(-79.11 68.25) rotate(-45.02)"/><rect class="cls-1" x="73.74" y="53.87" width="12.49" height="1.27" transform="translate(-15.11 72.55) rotate(-45.02)"/><rect class="cls-1" x="82.13" y="67.96" width="12.49" height="1.27" transform="translate(-22.62 82.63) rotate(-45.02)"/><rect class="cls-1" x="101.43" y="90.92" width="12.49" height="1.27" transform="translate(-33.19 103.01) rotate(-45.02)"/><rect class="cls-1" x="161.52" y="124.62" width="12.49" height="1.27" transform="translate(-39.42 155.38) rotate(-45.02)"/><rect class="cls-1" x="72.07" y="68.07" width="12.49" height="1.27" transform="translate(-25.64 75.54) rotate(-45.02)"/><rect class="cls-1" x="86.99" y="47.63" width="12.49" height="1.27" transform="translate(-6.8 80.1) rotate(-45.02)"/><rect class="cls-1" x="180.58" y="148.17" width="1.26" height="12.49" transform="translate(-56.12 173.28) rotate(-44.98)"/><polygon class="cls-1" points="156.03 159.86 160.81 155 159.92 154.1 155.13 158.97 156.03 159.86"/><polygon class="cls-1" points="128.42 163.91 133.2 159.04 132.31 158.15 127.52 163.01 128.42 163.91"/><rect class="cls-1" x="121.07" y="22.32" width="6.24" height="1.27" transform="translate(20.17 94.57) rotate(-45.02)"/><rect class="cls-1" x="91.01" y="20.72" width="6.24" height="1.27" transform="translate(12.49 72.85) rotate(-45.02)"/><rect class="cls-1" x="110.36" y="51.59" width="26.44" height="1.27" transform="translate(-0.72 102.7) rotate(-45.01)"/><rect class="cls-1" x="158.5" y="55.13" width="1.27" height="12.69" transform="translate(3.07 130.39) rotate(-44.95)"/><rect class="cls-1" x="181.12" y="69.36" width="1.27" height="12.69" transform="translate(-0.37 150.52) rotate(-44.95)"/><rect class="cls-1" x="145.56" y="21.3" width="0.88" height="8.83" transform="translate(24.5 110.65) rotate(-44.94)"/><rect class="cls-1" x="148.29" y="18.54" width="0.88" height="8.83" transform="translate(27.24 111.77) rotate(-44.94)"/><rect class="cls-1" x="124.28" y="17.58" width="1.27" height="21.44" transform="translate(16.54 96.56) rotate(-44.97)"/><rect class="cls-1" x="118.68" y="5.41" width="1.26" height="12.69" transform="translate(26.56 87.73) rotate(-44.95)"/><rect class="cls-1" x="83.59" y="6.98" width="1.27" height="12.69" transform="translate(15.2 63.4) rotate(-44.95)"/><rect class="cls-1" x="154.2" y="37.17" width="1.27" height="20.24"/><rect class="cls-1" x="158.82" y="41.7" width="1.27" height="20.24"/><rect class="cls-1" x="185.6" y="60.91" width="1.27" height="23.74"/><rect class="cls-1" x="171.32" y="84.03" width="1.27" height="8.18"/><rect class="cls-1" x="173.38" y="76.26" width="1.27" height="8.18"/><rect class="cls-1" x="175.53" y="59.74" width="1.27" height="8.18"/><rect class="cls-1" x="140.73" y="98.35" width="23.9" height="1.26" transform="translate(-25.29 136.87) rotate(-44.97)"/><rect class="cls-1" x="154.28" y="69.44" width="11.86" height="1.27" transform="translate(-2.67 133.68) rotate(-44.95)"/><rect class="cls-1" x="69.62" y="130.06" width="29.13" height="1.26"/><rect class="cls-1" x="119.62" y="95.96" width="1.27" height="79.39"/><rect class="cls-1" x="187.91" y="121.51" width="1.27" height="79.39"/><rect class="cls-1" x="124.4" y="87.45" width="1.27" height="38.32"/><rect class="cls-1" x="124.7" y="179.88" width="1.26" height="41.96"/><polygon class="cls-1" points="121.95 182.94 116.5 177.51 117.39 176.62 122.85 182.05 121.95 182.94"/><rect class="cls-1" x="121.58" y="182.05" width="1.27" height="129.77"/><rect class="cls-1" x="161.5" y="213.29" width="1.27" height="75.65"/><polygon class="cls-1" points="153.62 214.18 148.16 208.75 149.06 207.86 154.51 213.29 153.62 214.18"/><polygon class="cls-1" points="146 288.87 140.55 283.44 141.44 282.55 146.9 287.98 146 288.87"/><polygon class="cls-1" points="115.49 272.75 110.03 267.32 110.93 266.43 116.38 271.86 115.49 272.75"/><rect class="cls-1" x="153.25" y="213.29" width="1.26" height="53.07"/><rect class="cls-1" x="148.16" y="208.75" width="1.27" height="18.46"/><rect class="cls-1" x="145.95" y="174.41" width="1.26" height="20.24"/><rect class="cls-1" x="82.28" y="80.22" width="23.13" height="1.27"/><rect class="cls-1" x="18.51" y="150.08" width="29.13" height="1.27"/><rect class="cls-1" x="162.97" y="94.47" width="16.91" height="10.49"/><rect class="cls-1" x="171.43" y="128.16" width="10.33" height="10.49"/><path class="cls-1" d="M84.37,176v8.57h8.45V176Zm6.24,6.33h-4v-4.09h4Z"/><rect class="cls-1" x="44.62" y="160.16" width="6.04" height="6.13"/><rect class="cls-1" x="131.53" y="66.09" width="4.7" height="10.49"/><rect class="cls-1" x="175.2" y="90.61" width="4.69" height="2.49"/><rect class="cls-1" x="169.57" y="90.61" width="4.69" height="2.49"/><path class="cls-1" d="M81.51,183.08a4,4,0,1,1-4-4A4,4,0,0,1,81.51,183.08Z"/><rect class="cls-1" x="160.87" y="211.5" width="2.38" height="2.38"/><rect class="cls-1" x="16.16" y="148.8" width="3.83" height="3.83"/><rect class="cls-1" x="26.62" y="127.57" width="3.83" height="3.83"/><rect class="cls-1" x="26" y="139.34" width="2.53" height="2.53"/><rect class="cls-1" x="119.47" y="77.88" width="5.86" height="1.28"/><rect class="cls-1" x="121.76" y="75.59" width="1.28" height="5.86"/><rect class="cls-1" x="185.21" y="53.65" width="5.86" height="1.28"/><rect class="cls-1" x="187.5" y="51.36" width="1.28" height="5.86"/><rect class="cls-1" x="96.14" y="165.94" width="5.86" height="1.29"/><rect class="cls-1" x="98.43" y="163.65" width="1.28" height="5.86"/><rect class="cls-1" x="156.32" y="178.86" width="3.86" height="0.85"/><rect class="cls-1" x="157.82" y="177.36" width="0.85" height="3.86"/><polygon class="cls-1" points="155.73 220.27 158.12 217.98 160.5 220.27 155.73 220.27"/><rect class="cls-1" x="157.32" y="220" width="1.59" height="6.27"/><polygon class="cls-1" points="110.26 133.48 111.34 134.51 112.42 133.48 110.26 133.48"/><rect class="cls-1" x="110.98" y="130.77" width="0.72" height="2.83"/><polygon class="cls-1" points="148.79 74.73 149.87 75.76 150.94 74.73 148.79 74.73"/><rect class="cls-1" x="149.51" y="72.02" width="0.72" height="2.83"/><polygon class="cls-1" points="177.02 80.73 178.1 81.77 179.17 80.73 177.02 80.73"/><rect class="cls-1" x="177.74" y="78.02" width="0.72" height="2.83"/><polygon class="cls-1" points="76.87 100.51 78.83 102.38 80.78 100.51 76.87 100.51"/><rect class="cls-1" x="78.18" y="95.59" width="1.3" height="5.13"/><polygon class="cls-1" points="145.11 247.96 147.5 245.68 149.88 247.96 145.11 247.96"/><rect class="cls-1" x="146.7" y="247.7" width="1.59" height="6.27"/><rect class="cls-1" x="163.56" y="185.84" width="6.9" height="6.9" transform="translate(-84.93 173.54) rotate(-45)"/><rect class="cls-1" x="158.83" y="141.06" width="3.58" height="3.58" transform="translate(-53.97 155.41) rotate(-45)"/><rect class="cls-1" x="52.35" y="172.86" width="5.18" height="5.18" transform="translate(-107.97 90.24) rotate(-45)"/><rect class="cls-1" x="35.95" y="123.78" width="5.94" height="5.94" transform="translate(-78.23 64.65) rotate(-45)"/><rect class="cls-1" x="11.92" y="122.51" width="2.64" height="2.64" transform="translate(-83.68 45.63) rotate(-45)"/><path class="cls-1" d="M13.24,117.84l-6,6,6,6,6-6Zm0,9.48-3.5-3.49,3.5-3.5,3.5,3.5Z"/><rect class="cls-1" x="186.37" y="88.29" width="5.18" height="5.18" transform="translate(-8.92 160.24) rotate(-45)"/><rect class="cls-1" x="178.86" y="50.55" width="4.42" height="4.42" transform="translate(15.71 143.45) rotate(-44.99)"/><rect class="cls-1" x="154.78" y="26.39" width="7.33" height="7.33" transform="translate(25.14 120.82) rotate(-44.99)"/><path class="cls-1" d="M123.58,0l-4.91,4.91,4.91,4.9,4.9-4.9ZM120.4,4.91l3.18-3.18,3.18,3.18-3.18,3.18Z"/><rect class="cls-1" x="153.81" y="63.83" width="5.17" height="5.17" transform="translate(-1.17 130) rotate(-44.99)"/><rect class="cls-1" x="82.26" y="45.32" width="5.18" height="5.18" transform="translate(-9.03 74.03) rotate(-45)"/><rect class="cls-1" x="126.88" y="96.41" width="1.93" height="15.35"/><polygon class="cls-1" points="81.39 95.59 81.39 105.1 90.94 105.1 81.39 95.59"/><rect class="cls-1" x="68.32" y="145.65" width="12.4" height="3.2"/></g><g id="Layer_3" data-name="Layer 3"><path class="cls-1" d="M81.8,8.84a1.93,1.93,0,1,1-1.93-1.93A1.93,1.93,0,0,1,81.8,8.84Z"/><path class="cls-1" d="M87.55,71.81A2.53,2.53,0,1,1,85,69.29,2.52,2.52,0,0,1,87.55,71.81Z"/><path class="cls-1" d="M84.44,64.64a1.93,1.93,0,1,1-1.93-1.93A1.92,1.92,0,0,1,84.44,64.64Z"/><circle class="cls-1" cx="77.94" cy="36.1" r="1.93"/><path class="cls-1" d="M105.79,95.31a1.94,1.94,0,1,1-1.94-1.93A1.94,1.94,0,0,1,105.79,95.31Z"/><path class="cls-1" d="M165.88,129a1.94,1.94,0,1,1-1.94-1.93A1.94,1.94,0,0,1,165.88,129Z"/><path class="cls-1" d="M155.57,136.11a.84.84,0,1,1-.84-.84A.84.84,0,0,1,155.57,136.11Z"/><path class="cls-1" d="M159.65,132.86a.84.84,0,1,1-.84-.84A.84.84,0,0,1,159.65,132.86Z"/><path class="cls-1" d="M121.55,40.49a1.93,1.93,0,1,1-1.93-1.93A1.93,1.93,0,0,1,121.55,40.49Z"/><path class="cls-1" d="M134.08,61.48a1.94,1.94,0,1,1-1.94-1.93A1.93,1.93,0,0,1,134.08,61.48Z"/><path class="cls-1" d="M152.49,80.86a1.93,1.93,0,1,1-1.93-1.94A1.93,1.93,0,0,1,152.49,80.86Z"/><path class="cls-1" d="M172.36,55a1.4,1.4,0,1,1-1.4-1.4A1.4,1.4,0,0,1,172.36,55Z"/><path class="cls-1" d="M175.26,51.36a1.4,1.4,0,1,1-1.4-1.4A1.4,1.4,0,0,1,175.26,51.36Z"/><path class="cls-1" d="M178.16,47.73a1.4,1.4,0,1,1-1.4-1.4A1.4,1.4,0,0,1,178.16,47.73Z"/><path class="cls-1" d="M119.24,73.57A1.25,1.25,0,1,1,118,72.32,1.24,1.24,0,0,1,119.24,73.57Z"/><path class="cls-1" d="M159.31,109a1.93,1.93,0,1,1-1.93-1.93A1.92,1.92,0,0,1,159.31,109Z"/><path class="cls-1" d="M152.49,112.83a1.93,1.93,0,1,1-1.93-1.93A1.93,1.93,0,0,1,152.49,112.83Z"/><path class="cls-1" d="M149.43,164.35a1.93,1.93,0,1,1-1.93-1.93A1.92,1.92,0,0,1,149.43,164.35Z"/><path class="cls-1" d="M145.81,155.59a1.93,1.93,0,1,1-1.93-1.93A1.92,1.92,0,0,1,145.81,155.59Z"/><path class="cls-1" d="M125.66,135.47a1.94,1.94,0,1,1-1.93-1.93A1.93,1.93,0,0,1,125.66,135.47Z"/><path class="cls-1" d="M132.68,89.62a1.94,1.94,0,1,1-1.94-1.94A1.94,1.94,0,0,1,132.68,89.62Z"/><path class="cls-1" d="M163.18,169a1.94,1.94,0,1,1-1.93-1.93A1.94,1.94,0,0,1,163.18,169Z"/><path class="cls-1" d="M173.46,173.07a1.94,1.94,0,1,1-1.94-1.93A1.93,1.93,0,0,1,173.46,173.07Z"/><path class="cls-1" d="M180.73,196.78a3,3,0,1,1-3-3A3,3,0,0,1,180.73,196.78Z"/><path class="cls-1" d="M183,146a1.94,1.94,0,1,1-1.93-1.93A1.94,1.94,0,0,1,183,146Z"/><path class="cls-1" d="M167.1,133.24a1.93,1.93,0,1,1-1.93-1.93A1.92,1.92,0,0,1,167.1,133.24Z"/><path class="cls-1" d="M178.8,150a1.93,1.93,0,1,1-1.93-1.93A1.93,1.93,0,0,1,178.8,150Z"/><path class="cls-1" d="M186.55,157.66a2.06,2.06,0,1,1-2.06-2.06A2.06,2.06,0,0,1,186.55,157.66Z"/><circle class="cls-1" cx="168.84" cy="149.55" r="1.5"/><path class="cls-1" d="M162.29,123.42a1.94,1.94,0,1,1-1.93-1.94A1.94,1.94,0,0,1,162.29,123.42Z"/><path class="cls-1" d="M140.88,131.31a1.94,1.94,0,1,1-1.93-1.94A1.94,1.94,0,0,1,140.88,131.31Z"/><path class="cls-1" d="M124.23,65.87a1.94,1.94,0,1,1-1.94-1.94A1.94,1.94,0,0,1,124.23,65.87Z"/><path class="cls-1" d="M103.94,63.19a3.31,3.31,0,1,1-3.3-3.31A3.31,3.31,0,0,1,103.94,63.19Z"/><path class="cls-1" d="M135.9,54A1.94,1.94,0,1,1,134,52,1.94,1.94,0,0,1,135.9,54Z"/><path class="cls-1" d="M192.66,78A1.94,1.94,0,1,1,190.72,76,1.94,1.94,0,0,1,192.66,78Z"/><path class="cls-1" d="M188.17,61.38a1.94,1.94,0,1,1-1.94-1.94A1.94,1.94,0,0,1,188.17,61.38Z"/><path class="cls-1" d="M186,96a1.93,1.93,0,1,1-1.93-1.93A1.92,1.92,0,0,1,186,96Z"/><path class="cls-1" d="M191.72,107.06a2.5,2.5,0,1,1-2.49-2.5A2.49,2.49,0,0,1,191.72,107.06Z"/><path class="cls-1" d="M192.6,118.79a4.15,4.15,0,1,1-4.15-4.15A4.15,4.15,0,0,1,192.6,118.79Z"/><path class="cls-1" d="M181.76,112.83a2.2,2.2,0,1,1-2.2-2.2A2.2,2.2,0,0,1,181.76,112.83Z"/><path class="cls-1" d="M160.77,209.77a1.94,1.94,0,1,1-1.94-1.94A1.94,1.94,0,0,1,160.77,209.77Z"/><path class="cls-1" d="M126.81,174.29a1.93,1.93,0,1,1-2-1.81A1.93,1.93,0,0,1,126.81,174.29Z"/><path class="cls-1" d="M127.27,221.73a1.93,1.93,0,1,1-2-1.81A1.93,1.93,0,0,1,127.27,221.73Z"/><path class="cls-1" d="M119,177.26a1.93,1.93,0,1,1-2.05-1.81A1.94,1.94,0,0,1,119,177.26Z"/><path class="cls-1" d="M119.26,212.48a1.93,1.93,0,1,1-2-1.81A1.93,1.93,0,0,1,119.26,212.48Z"/><path class="cls-1" d="M117.64,256.57a1.93,1.93,0,1,1-2-1.81A1.93,1.93,0,0,1,117.64,256.57Z"/><path class="cls-1" d="M119.26,185.9a1.93,1.93,0,1,1-2-1.81A1.93,1.93,0,0,1,119.26,185.9Z"/><path class="cls-1" d="M77.26,159.34a1.93,1.93,0,1,1-2-1.81A1.93,1.93,0,0,1,77.26,159.34Z"/><path class="cls-1" d="M64.73,160.56a1.93,1.93,0,1,1-2-1.81A1.94,1.94,0,0,1,64.73,160.56Z"/><path class="cls-1" d="M92.56,158.39a1.93,1.93,0,1,1-2-1.82A1.92,1.92,0,0,1,92.56,158.39Z"/><path class="cls-1" d="M151.8,107a1.94,1.94,0,1,1-1.94-1.94A1.94,1.94,0,0,1,151.8,107Z"/><path class="cls-1" d="M156.77,37.17a1.94,1.94,0,1,1-1.94-1.93A1.94,1.94,0,0,1,156.77,37.17Z"/><path class="cls-1" d="M119,229.42a1.94,1.94,0,1,1-1.93-1.93A1.94,1.94,0,0,1,119,229.42Z"/><path class="cls-1" d="M100.05,113.22a1.94,1.94,0,1,1-1.93-1.94A1.94,1.94,0,0,1,100.05,113.22Z"/><path class="cls-1" d="M41.62,158.61a1.93,1.93,0,1,1-1.93-1.94A1.93,1.93,0,0,1,41.62,158.61Z"/><path class="cls-1" d="M46,141.64A1.94,1.94,0,1,1,44,139.71,1.93,1.93,0,0,1,46,141.64Z"/><path class="cls-1" d="M95.81,135.33a1.94,1.94,0,1,1-1.94-1.93A1.94,1.94,0,0,1,95.81,135.33Z"/><path class="cls-1" d="M93,152.75A1.93,1.93,0,1,1,91,150.82,1.92,1.92,0,0,1,93,152.75Z"/><path class="cls-1" d="M92.65,122.27a1.93,1.93,0,1,1-1.93-1.93A1.92,1.92,0,0,1,92.65,122.27Z"/><path class="cls-1" d="M70.26,151.85a1.94,1.94,0,1,1-1.94-1.93A1.94,1.94,0,0,1,70.26,151.85Z"/><path class="cls-1" d="M73.51,174.32a1.94,1.94,0,1,1-1.94-1.94A1.94,1.94,0,0,1,73.51,174.32Z"/><path class="cls-1" d="M94.58,101.71a1.93,1.93,0,1,1-1.93-1.94A1.93,1.93,0,0,1,94.58,101.71Z"/><path class="cls-1" d="M73.22,124.67a.81.81,0,0,1-1.62,0,.81.81,0,1,1,1.62,0Z"/><path class="cls-1" d="M91.36,97.13a1.94,1.94,0,1,1-1.93-1.94A1.94,1.94,0,0,1,91.36,97.13Z"/><path class="cls-1" d="M78.66,91.83a1.94,1.94,0,1,1-1.94-1.94A1.94,1.94,0,0,1,78.66,91.83Z"/><path class="cls-1" d="M92.28,173.29a2.5,2.5,0,1,1,2.49-2.49A2.5,2.5,0,0,1,92.28,173.29Zm0-3.87a1.38,1.38,0,1,0,1.38,1.38A1.37,1.37,0,0,0,92.28,169.42Z"/><path class="cls-1" d="M99.84,159.59a2.5,2.5,0,1,1,2.49-2.49A2.5,2.5,0,0,1,99.84,159.59Zm0-3.87a1.38,1.38,0,1,0,1.37,1.38A1.37,1.37,0,0,0,99.84,155.72Z"/><path class="cls-1" d="M79.43,177.38a2.49,2.49,0,1,1,2.5-2.49A2.49,2.49,0,0,1,79.43,177.38Zm0-3.86a1.38,1.38,0,1,0,1.38,1.37A1.37,1.37,0,0,0,79.43,173.52Z"/><path class="cls-1" d="M81,200.45A2.5,2.5,0,1,1,83.44,198,2.5,2.5,0,0,1,81,200.45Zm0-3.87A1.38,1.38,0,1,0,82.33,198,1.37,1.37,0,0,0,81,196.58Z"/><path class="cls-1" d="M53.09,157.73a2.49,2.49,0,1,1,2.49-2.49A2.49,2.49,0,0,1,53.09,157.73Zm0-3.86a1.37,1.37,0,1,0,1.37,1.37A1.37,1.37,0,0,0,53.09,153.87Z"/><path class="cls-1" d="M38.39,141.8a2.5,2.5,0,1,1,2.49-2.5A2.5,2.5,0,0,1,38.39,141.8Zm0-3.87a1.38,1.38,0,1,0,1.38,1.37A1.38,1.38,0,0,0,38.39,137.93Z"/><path class="cls-1" d="M78.59,109.64a2.49,2.49,0,1,1,2.49-2.49A2.49,2.49,0,0,1,78.59,109.64Zm0-3.86A1.37,1.37,0,1,0,80,107.15,1.37,1.37,0,0,0,78.59,105.78Z"/><path class="cls-1" d="M15.73,135a2.49,2.49,0,1,1,2.49-2.49A2.49,2.49,0,0,1,15.73,135Zm0-3.86a1.38,1.38,0,1,0,1.37,1.37A1.37,1.37,0,0,0,15.73,131.18Z"/><path class="cls-1" d="M2.49,127A2.49,2.49,0,1,1,5,124.52,2.49,2.49,0,0,1,2.49,127Zm0-3.86a1.38,1.38,0,1,0,1.38,1.37A1.37,1.37,0,0,0,2.49,123.15Z"/><path class="cls-1" d="M23.25,120.13a2.49,2.49,0,1,1,2.49-2.49A2.48,2.48,0,0,1,23.25,120.13Zm0-3.86a1.38,1.38,0,1,0,1.37,1.37A1.37,1.37,0,0,0,23.25,116.27Z"/><path class="cls-1" d="M173.2,122a2.5,2.5,0,1,1,2.5-2.5A2.5,2.5,0,0,1,173.2,122Zm0-3.87a1.38,1.38,0,1,0,1.38,1.37A1.38,1.38,0,0,0,173.2,118.08Z"/><path class="cls-1" d="M120.6,33.93a2.49,2.49,0,1,1,2.49-2.49A2.49,2.49,0,0,1,120.6,33.93Zm0-3.86A1.38,1.38,0,1,0,122,31.44,1.37,1.37,0,0,0,120.6,30.07Z"/><path class="cls-1" d="M100.64,31a2.49,2.49,0,1,1,2.49-2.49A2.5,2.5,0,0,1,100.64,31Zm0-3.86A1.37,1.37,0,1,0,102,28.46,1.37,1.37,0,0,0,100.64,27.09Z"/><path class="cls-1" d="M92.11,13.83a2.5,2.5,0,1,1,2.5-2.5A2.5,2.5,0,0,1,92.11,13.83Zm0-3.87a1.38,1.38,0,1,0,1.38,1.37A1.38,1.38,0,0,0,92.11,10Z"/><path class="cls-1" d="M113.78,8.39a2.49,2.49,0,1,1,2.49-2.49A2.5,2.5,0,0,1,113.78,8.39Zm0-3.87a1.38,1.38,0,1,0,1.38,1.38A1.38,1.38,0,0,0,113.78,4.52Z"/><path class="cls-1" d="M87.75,56.4a2.49,2.49,0,1,1,2.5-2.49A2.49,2.49,0,0,1,87.75,56.4Zm0-3.86a1.37,1.37,0,1,0,1.38,1.37A1.37,1.37,0,0,0,87.75,52.54Z"/><path class="cls-1" d="M77.94,20.56a2.49,2.49,0,1,1,2.49-2.49A2.49,2.49,0,0,1,77.94,20.56Zm0-3.87a1.38,1.38,0,1,0,1.37,1.38A1.38,1.38,0,0,0,77.94,16.69Z"/><path class="cls-1" d="M105,105a2.49,2.49,0,1,1,2.49-2.49A2.49,2.49,0,0,1,105,105Zm0-3.86a1.37,1.37,0,1,0,1.37,1.37A1.37,1.37,0,0,0,105,101.1Z"/><path class="cls-1" d="M80.31,119.58a2.49,2.49,0,1,1,2.49-2.49A2.5,2.5,0,0,1,80.31,119.58Zm0-3.86a1.37,1.37,0,1,0,1.37,1.37A1.37,1.37,0,0,0,80.31,115.72Z"/><path class="cls-1" d="M68,133.19a2.5,2.5,0,1,1,2.49-2.5A2.5,2.5,0,0,1,68,133.19Zm0-3.87a1.38,1.38,0,1,0,1.37,1.37A1.38,1.38,0,0,0,68,129.32Z"/><path class="cls-1" d="M105,126.51a2.5,2.5,0,1,1,2.49-2.5A2.49,2.49,0,0,1,105,126.51Zm0-3.87a1.38,1.38,0,1,0,1.37,1.37A1.38,1.38,0,0,0,105,122.64Z"/><path class="cls-1" d="M114,101.81a2.5,2.5,0,1,1,2.49-2.5A2.49,2.49,0,0,1,114,101.81Zm0-3.87a1.38,1.38,0,1,0,1.37,1.37A1.38,1.38,0,0,0,114,97.94Z"/><path class="cls-1" d="M125,130.06a2.49,2.49,0,1,1,2.49-2.49A2.5,2.5,0,0,1,125,130.06Zm0-3.87a1.38,1.38,0,1,0,1.37,1.38A1.37,1.37,0,0,0,125,126.19Z"/><path class="cls-1" d="M102.81,77.45A2.5,2.5,0,1,1,105.3,75,2.5,2.5,0,0,1,102.81,77.45Zm0-3.87A1.38,1.38,0,1,0,104.19,75,1.38,1.38,0,0,0,102.81,73.58Z"/><path class="cls-1" d="M81,89a2.49,2.49,0,1,1,2.49-2.49A2.49,2.49,0,0,1,81,89Zm0-3.86a1.38,1.38,0,1,0,1.37,1.37A1.38,1.38,0,0,0,81,85.09Z"/><path class="cls-1" d="M124.9,74.3a2.5,2.5,0,1,1,2.49-2.49A2.5,2.5,0,0,1,124.9,74.3Zm0-3.87a1.38,1.38,0,1,0,1.37,1.38A1.38,1.38,0,0,0,124.9,70.43Z"/><path class="cls-1" d="M176.16,72.45A2.49,2.49,0,1,1,178.65,70,2.49,2.49,0,0,1,176.16,72.45Zm0-3.86A1.38,1.38,0,1,0,177.54,70,1.37,1.37,0,0,0,176.16,68.59Z"/><path class="cls-1" d="M176.16,60.62a2.49,2.49,0,1,1,2.49-2.49A2.5,2.5,0,0,1,176.16,60.62Zm0-3.86a1.37,1.37,0,1,0,1.38,1.37A1.37,1.37,0,0,0,176.16,56.76Z"/><path class="cls-1" d="M127.57,22a2.5,2.5,0,1,1,2.49-2.49A2.49,2.49,0,0,1,127.57,22Zm0-3.87a1.38,1.38,0,1,0,1.37,1.38A1.38,1.38,0,0,0,127.57,18.13Z"/><path class="cls-1" d="M97.51,20.4A2.49,2.49,0,1,1,100,17.91,2.49,2.49,0,0,1,97.51,20.4Zm0-3.86a1.37,1.37,0,1,0,1.37,1.37A1.37,1.37,0,0,0,97.51,16.54Z"/><path class="cls-1" d="M168,169.57a2.49,2.49,0,1,1,2.49-2.49A2.5,2.5,0,0,1,168,169.57Zm0-3.87a1.38,1.38,0,1,0,1.38,1.38A1.38,1.38,0,0,0,168,165.7Z"/><path class="cls-1" d="M166.86,202.76a2.49,2.49,0,1,1,2.49-2.49A2.5,2.5,0,0,1,166.86,202.76Zm0-3.87a1.38,1.38,0,1,0,1.37,1.38A1.38,1.38,0,0,0,166.86,198.89Z"/><path class="cls-1" d="M172.39,219a2.49,2.49,0,1,1,2.5-2.49A2.49,2.49,0,0,1,172.39,219Zm0-3.86a1.38,1.38,0,1,0,1.38,1.37A1.37,1.37,0,0,0,172.39,215.16Z"/><path class="cls-1" d="M162.13,293.17a2.5,2.5,0,1,1,2.49-2.5A2.5,2.5,0,0,1,162.13,293.17Zm0-3.87a1.38,1.38,0,1,0,1.38,1.37A1.37,1.37,0,0,0,162.13,289.3Z"/><path class="cls-1" d="M161.66,155.58a2.49,2.49,0,1,1,2.49-2.49A2.48,2.48,0,0,1,161.66,155.58Zm0-3.86a1.38,1.38,0,1,0,1.37,1.37A1.37,1.37,0,0,0,161.66,151.72Z"/><path class="cls-1" d="M134,159.63a2.49,2.49,0,1,1,2.5-2.49A2.5,2.5,0,0,1,134,159.63Zm0-3.87a1.38,1.38,0,1,0,1.38,1.38A1.38,1.38,0,0,0,134,155.76Z"/><path class="cls-1" d="M145.5,93.32a2.5,2.5,0,1,1,2.5-2.49A2.5,2.5,0,0,1,145.5,93.32Zm0-3.87a1.38,1.38,0,1,0,1.38,1.38A1.38,1.38,0,0,0,145.5,89.45Z"/><path class="cls-1" d="M156.84,23.29a2.49,2.49,0,1,1,2.49-2.49A2.49,2.49,0,0,1,156.84,23.29Zm0-3.87a1.38,1.38,0,1,0,0,2.75,1.38,1.38,0,0,0,0-2.75Z"/><path class="cls-1" d="M159.45,42.16a2.5,2.5,0,1,1,2.5-2.5A2.5,2.5,0,0,1,159.45,42.16Zm0-3.87a1.38,1.38,0,1,0,1.38,1.37A1.38,1.38,0,0,0,159.45,38.29Z"/><path class="cls-1" d="M141.18,151.77a2.49,2.49,0,1,1,2.49-2.49A2.5,2.5,0,0,1,141.18,151.77Zm0-3.87a1.38,1.38,0,1,0,1.37,1.38A1.37,1.37,0,0,0,141.18,147.9Z"/><path class="cls-1" d="M138.69,141.93a2.49,2.49,0,1,1,2.49-2.49A2.49,2.49,0,0,1,138.69,141.93Zm0-3.87a1.38,1.38,0,1,0,1.37,1.38A1.38,1.38,0,0,0,138.69,138.06Z"/><path class="cls-1" d="M144,133.24a2.49,2.49,0,1,1,2.5-2.49A2.5,2.5,0,0,1,144,133.24Zm0-3.87a1.38,1.38,0,1,0,1.38,1.38A1.38,1.38,0,0,0,144,129.37Z"/><path class="cls-1" d="M108.59,190.76a2.49,2.49,0,1,1,2.5-2.49A2.5,2.5,0,0,1,108.59,190.76Zm0-3.87a1.38,1.38,0,1,0,1.38,1.38A1.38,1.38,0,0,0,108.59,186.89Z"/><path class="cls-1" d="M87.71,213.6a2.49,2.49,0,1,1,2.49-2.49A2.5,2.5,0,0,1,87.71,213.6Zm0-3.86a1.37,1.37,0,1,0,1.38,1.37A1.37,1.37,0,0,0,87.71,209.74Z"/><path class="cls-1" d="M148.8,231.63a2.49,2.49,0,1,1,2.49-2.49A2.5,2.5,0,0,1,148.8,231.63Zm0-3.86a1.37,1.37,0,1,0,1.37,1.37A1.37,1.37,0,0,0,148.8,227.77Z"/><path class="cls-1" d="M146.58,198.93a2.49,2.49,0,1,1,2.49-2.49A2.5,2.5,0,0,1,146.58,198.93Zm0-3.87a1.38,1.38,0,1,0,1.38,1.38A1.38,1.38,0,0,0,146.58,195.06Z"/><path class="cls-1" d="M97.85,186.64a2.49,2.49,0,1,1,2.49-2.49A2.49,2.49,0,0,1,97.85,186.64Zm0-3.86a1.38,1.38,0,1,0,1.37,1.37A1.37,1.37,0,0,0,97.85,182.78Z"/><path class="cls-1" d="M88.29,259.63a2.5,2.5,0,1,1,2.49-2.49A2.5,2.5,0,0,1,88.29,259.63Zm0-3.87a1.38,1.38,0,1,0,1.38,1.38A1.38,1.38,0,0,0,88.29,255.76Z"/><path class="cls-1" d="M94.77,295.89a2.49,2.49,0,1,1,2.5-2.49A2.49,2.49,0,0,1,94.77,295.89Zm0-3.86a1.38,1.38,0,1,0,1.38,1.37A1.38,1.38,0,0,0,94.77,292Z"/><circle class="cls-1" cx="117.5" cy="20.78" r="1.93"/><rect class="cls-1" x="98.12" y="133.24" width="8.31" height="4.16"/><rect class="cls-1" x="156.6" y="242.8" width="1.83" height="4.13"/><rect class="cls-1" x="156.6" y="249.47" width="1.83" height="4.13"/><rect class="cls-1" x="156.6" y="256.13" width="1.83" height="4.13"/><rect class="cls-1" x="85.13" y="221.21" width="7.35" height="2.57"/><rect class="cls-1" x="85.13" y="225.97" width="7.35" height="2.57"/><rect class="cls-1" x="85.13" y="230.73" width="7.35" height="2.57"/><rect class="cls-1" x="165.17" y="248.72" width="7.35" height="2.57"/><rect class="cls-1" x="165.17" y="253.47" width="7.35" height="2.57"/><rect class="cls-1" x="165.17" y="258.23" width="7.35" height="2.57"/><rect class="cls-1" x="85.13" y="235.48" width="7.35" height="2.57"/><rect class="cls-1" x="85.13" y="240.24" width="7.35" height="2.57"/><rect class="cls-1" x="80.1" y="23.29" width="5.79" height="1.84"/><rect class="cls-1" x="80.1" y="26.66" width="5.79" height="1.84"/><rect class="cls-1" x="80.1" y="30.03" width="5.79" height="1.84"/><circle class="cls-1" cx="150.03" cy="43.88" r="1.06"/><circle class="cls-1" cx="132.68" cy="39.11" r="1.06"/><circle class="cls-1" cx="150.03" cy="48.93" r="1.06"/><circle class="cls-1" cx="150.03" cy="53.98" r="1.06"/><circle class="cls-1" cx="150.03" cy="59.03" r="1.06"/><circle class="cls-1" cx="157.38" cy="77.46" r="1.06"/><circle class="cls-1" cx="157.38" cy="82.51" r="1.06"/><path class="cls-1" d="M114.73,80.93a.58.58,0,1,1-.58-.58A.58.58,0,0,1,114.73,80.93Z"/><path class="cls-1" d="M114.73,83.7a.58.58,0,1,1-.58-.59A.58.58,0,0,1,114.73,83.7Z"/><path class="cls-1" d="M114.73,86.46a.58.58,0,1,1-.58-.58A.58.58,0,0,1,114.73,86.46Z"/><path class="cls-1" d="M118.26,104.4a1.14,1.14,0,1,1-1.13-1.14A1.14,1.14,0,0,1,118.26,104.4Z"/><path class="cls-1" d="M118.26,109.8a1.14,1.14,0,1,1-1.13-1.13A1.14,1.14,0,0,1,118.26,109.8Z"/><path class="cls-1" d="M118.26,115.21a1.14,1.14,0,1,1-1.13-1.14A1.14,1.14,0,0,1,118.26,115.21Z"/><rect class="cls-1" x="137.01" y="110.89" width="7.75" height="7.75"/><rect class="cls-1" x="101.28" y="109.05" width="5.51" height="8.95"/><rect class="cls-1" x="165.17" y="132.86" width="8.04" height="0.54"/><rect class="cls-1" x="179.59" y="118.57" width="8.04" height="0.54"/><rect class="cls-1" x="176.54" y="65.06" width="9.43" height="0.54"/><rect class="cls-1" x="146.02" y="36.9" width="9.43" height="0.54"/><rect class="cls-1" x="134.11" y="114.5" width="8.04" height="0.54"/><rect class="cls-1" x="104.44" y="134.9" width="4.31" height="0.54"/><rect class="cls-1" x="82.54" y="144.14" width="4.31" height="0.54"/><rect class="cls-1" x="82.54" y="146.36" width="4.31" height="0.54"/><rect class="cls-1" x="92.13" y="179.99" width="12.3" height="0.54"/><rect class="cls-1" x="170.12" y="166.83" width="7.93" height="0.54"/><rect class="cls-1" x="178.47" y="181.78" width="10.08" height="0.54"/><rect class="cls-1" x="178.47" y="179.01" width="10.08" height="0.54"/><rect class="cls-1" x="178.47" y="176.24" width="10.08" height="0.54"/><rect class="cls-1" x="178.47" y="173.47" width="10.08" height="0.54"/><rect class="cls-1" x="178.47" y="170.7" width="10.08" height="0.54"/><rect class="cls-1" x="114.05" y="156.71" width="6.15" height="0.54"/><rect class="cls-1" x="114.05" y="154.2" width="6.15" height="0.54"/><rect class="cls-1" x="114.05" y="151.7" width="6.15" height="0.54"/><rect class="cls-1" x="114.05" y="149.19" width="6.15" height="0.54"/><rect class="cls-1" x="114.05" y="146.68" width="6.15" height="0.54"/><rect class="cls-1" x="114.05" y="144.17" width="6.15" height="0.54"/><rect class="cls-1" x="114.05" y="141.66" width="6.15" height="0.54"/><rect class="cls-1" x="160.16" y="81.16" width="6.15" height="0.54"/><rect class="cls-1" x="160.16" y="78.66" width="6.15" height="0.54"/><rect class="cls-1" x="160.16" y="76.15" width="6.15" height="0.54"/><rect class="cls-1" x="147.66" y="93.12" width="10.78" height="0.54"/><rect class="cls-1" x="147.66" y="90.61" width="12.25" height="0.54"/><rect class="cls-1" x="146.15" y="88.1" width="12.3" height="0.54"/><rect class="cls-1" x="127.03" y="71.5" width="6.15" height="0.54"/><rect class="cls-1" x="113.82" y="49.37" width="12.03" height="0.54"/><rect class="cls-1" x="121.73" y="25.07" width="10.95" height="0.54"/><rect class="cls-1" x="127.87" y="287.72" width="7.91" height="0.54"/><rect class="cls-1" x="127.87" y="285.21" width="7.91" height="0.54"/><rect class="cls-1" x="127.87" y="282.7" width="7.91" height="0.54"/><rect class="cls-1" x="127.87" y="280.19" width="7.91" height="0.54"/><rect class="cls-1" x="127.87" y="277.69" width="7.91" height="0.54"/><rect class="cls-1" x="127.87" y="275.18" width="7.91" height="0.54"/><rect class="cls-1" x="127.87" y="272.67" width="7.91" height="0.54"/><rect class="cls-1" x="94.66" y="252.33" width="10.06" height="0.54"/><rect class="cls-1" x="94.66" y="249.82" width="10.06" height="0.54"/><rect class="cls-1" x="94.66" y="247.31" width="10.06" height="0.54"/><rect class="cls-1" x="94.66" y="244.8" width="10.06" height="0.54"/><rect class="cls-1" x="94.66" y="242.3" width="10.06" height="0.54"/><rect class="cls-1" x="94.66" y="239.79" width="10.06" height="0.54"/><rect class="cls-1" x="94.66" y="237.28" width="10.06" height="0.54"/><rect class="cls-1" x="114.26" y="164.32" width="6.15" height="0.54"/><rect class="cls-1" x="69.13" y="151.68" width="13.41" height="0.54"/><rect class="cls-1" x="150.8" y="183.88" width="12.45" height="0.54"/><rect class="cls-1" x="124.44" y="115.44" width="6.15" height="0.54"/><rect class="cls-1" x="94.41" y="56.81" width="6.15" height="0.54"/><rect class="cls-1" x="72.26" y="124.4" width="15.63" height="0.54"/><rect class="cls-1" x="127.67" y="152.48" width="13.51" height="0.54"/><rect class="cls-1" x="119.88" y="161.49" width="5.01" height="0.54"/><rect class="cls-1" x="82.54" y="148.58" width="4.31" height="0.54"/><rect class="cls-1" x="15.31" y="138.11" width="8.67" height="0.54"/><rect class="cls-1" x="15.31" y="140.33" width="8.67" height="0.54"/><rect class="cls-1" x="15.31" y="142.55" width="8.67" height="0.54"/><rect class="cls-1" x="172.94" y="104.16" width="0.54" height="13.28"/><rect class="cls-1" x="179.32" y="113.73" width="0.54" height="16.33"/><rect class="cls-1" x="138.68" y="116.14" width="0.54" height="15.14"/><rect class="cls-1" x="145.88" y="63.24" width="0.54" height="25.5"/><rect class="cls-1" x="98.17" y="74.56" width="0.54" height="5.98"/><rect class="cls-1" x="95.24" y="74.56" width="0.54" height="5.98"/><rect class="cls-1" x="92.3" y="74.56" width="0.54" height="5.98"/><rect class="cls-1" x="89.36" y="74.56" width="0.54" height="5.98"/><rect class="cls-1" x="86.42" y="74.56" width="0.54" height="5.98"/><rect class="cls-1" x="80.48" y="124.58" width="0.54" height="5.98"/><rect class="cls-1" x="77.54" y="124.58" width="0.54" height="5.98"/><rect class="cls-1" x="74.61" y="124.58" width="0.54" height="5.98"/><rect class="cls-1" x="94.02" y="107.37" width="0.54" height="22.74"/><rect class="cls-1" x="78.92" y="130.83" width="0.54" height="8.48"/><rect class="cls-1" x="86.3" y="130.75" width="0.54" height="8.48"/><rect class="cls-1" x="23.69" y="124.67" width="0.54" height="26.14"/><rect class="cls-1" x="94.34" y="46.6" width="0.54" height="19.87"/><rect class="cls-1" x="84.57" y="30.95" width="0.54" height="16.72"/><rect class="cls-1" x="122.54" y="33.46" width="0.54" height="19.87"/><rect class="cls-1" x="130.11" y="163.91" width="9.19" height="1.91"/><polygon class="cls-1" points="131.01 198.93 127.52 195.24 127.52 181.22 131.01 181.22 131.01 198.93"/></g></g></svg>