<svg width="50" height="50" viewBox="0 0 50 50" fill="none" xmlns="http://www.w3.org/2000/svg">
<g clip-path="url(#clip0_22545_200090)">
<g clip-path="url(#clip1_22545_200090)">
<g clip-path="url(#clip2_22545_200090)">
<path d="M33.3599 18.108C33.3599 18.4049 33.2719 18.6951 33.107 18.942C32.942 19.1889 32.7075 19.3813 32.4332 19.4949C32.1589 19.6085 31.8571 19.6383 31.5659 19.5803C31.2747 19.5224 31.0072 19.3794 30.7972 19.1695C30.5873 18.9596 30.4443 18.6921 30.3864 18.4009C30.3285 18.1097 30.3582 17.8078 30.4718 17.5335C30.5854 17.2592 30.7779 17.0247 31.0247 16.8598C31.2716 16.6948 31.5618 16.6068 31.8587 16.6068C32.2569 16.6068 32.6387 16.765 32.9203 17.0465C33.2018 17.328 33.3599 17.7098 33.3599 18.108ZM31.4651 24.82C31.4651 26.0644 31.0961 27.2808 30.4048 28.3155C29.7134 29.3502 28.7308 30.1566 27.5811 30.6328C26.4315 31.109 25.1664 31.2336 23.9459 30.9908C22.7255 30.7481 21.6044 30.1488 20.7245 29.2689C19.8446 28.389 19.2454 27.2679 19.0026 26.0475C18.7598 24.827 18.8844 23.562 19.3606 22.4123C19.8368 21.2626 20.6433 20.28 21.6779 19.5887C22.7126 18.8973 23.929 18.5283 25.1734 18.5283C26.8415 18.5301 28.4408 19.1935 29.6203 20.3731C30.7999 21.5526 31.4633 23.1519 31.4651 24.82ZM29.2033 24.82C29.2033 24.0283 28.9685 23.2543 28.5286 22.596C28.0888 21.9376 27.4635 21.4245 26.732 21.1215C26.0006 20.8186 25.1956 20.7393 24.4191 20.8937C23.6426 21.0482 22.9293 21.4295 22.3694 21.9893C21.8095 22.5492 21.4283 23.2625 21.2738 24.039C21.1193 24.8156 21.1986 25.6205 21.5016 26.352C21.8046 27.0835 22.3177 27.7087 22.976 28.1486C23.6343 28.5884 24.4083 28.8232 25.2001 28.8232C25.7258 28.8232 26.2464 28.7197 26.732 28.5185C27.2177 28.3173 27.659 28.0225 28.0308 27.6507C28.4025 27.279 28.6974 26.8377 28.8986 26.352C29.0997 25.8663 29.2033 25.3457 29.2033 24.82ZM37.8769 19.7626C37.8769 17.7277 37.0685 15.7761 35.6296 14.3372C34.1907 12.8982 32.239 12.0898 30.2041 12.0898H19.7624C17.7274 12.0898 15.7758 12.8982 14.3369 14.3372C12.898 15.7761 12.0896 17.7277 12.0896 19.7626V30.2377C12.0896 31.2453 12.2881 32.243 12.6737 33.1739C13.0593 34.1049 13.6244 34.9507 14.3369 35.6632C15.7758 37.1021 17.7274 37.9105 19.7624 37.9105H30.2374C31.2451 37.9105 32.2428 37.712 33.1737 37.3264C34.1046 36.9408 34.9505 36.3757 35.6629 35.6632C36.3754 34.9507 36.9406 34.1049 37.3262 33.1739C37.7118 32.243 37.9103 31.2453 37.9103 30.2377L37.8769 19.7626ZM35.3615 30.1176C35.3624 30.81 35.2267 31.4958 34.9621 32.1357C34.6975 32.7756 34.3093 33.357 33.8197 33.8466C33.3301 34.3363 32.7487 34.7245 32.1088 34.989C31.4689 35.2536 30.7831 35.3894 30.0907 35.3885H19.8825C19.1901 35.3894 18.5043 35.2536 17.8644 34.989C17.2245 34.7245 16.6431 34.3363 16.1535 33.8466C15.6638 33.357 15.2756 32.7756 15.011 32.1357C14.7465 31.4958 14.6107 30.81 14.6116 30.1176V19.8827C14.6107 19.1903 14.7465 18.5045 15.011 17.8646C15.2756 17.2247 15.6638 16.6433 16.1535 16.1537C16.6431 15.6641 17.2245 15.2759 17.8644 15.0113C18.5043 14.7467 19.1901 14.611 19.8825 14.6119H30.1174C31.5112 14.6172 32.846 15.175 33.8291 16.1631C34.8122 17.1512 35.3633 18.4889 35.3615 19.8827V30.1176Z" fill="white"/>
<path d="M25 0C20.0555 0 15.222 1.46622 11.1108 4.21326C6.99953 6.9603 3.79521 10.8648 1.90302 15.4329C0.0108321 20.0011 -0.484251 25.0277 0.480379 29.8773C1.44501 34.7268 3.82603 39.1814 7.32234 42.6777C10.8187 46.174 15.2732 48.555 20.1228 49.5196C24.9723 50.4843 29.9989 49.9892 34.5671 48.097C39.1353 46.2048 43.0397 43.0005 45.7868 38.8893C48.5338 34.778 50 29.9445 50 25C49.993 18.3718 47.3568 12.017 42.6699 7.33013C37.983 2.64325 31.6283 0.00706448 25 0ZM25 46.7908C20.6902 46.7908 16.4772 45.5128 12.8937 43.1184C9.31024 40.724 6.51726 37.3207 4.86797 33.339C3.21868 29.3572 2.78715 24.9758 3.62795 20.7488C4.46875 16.5218 6.54412 12.6391 9.59161 9.5916C12.6391 6.54411 16.5219 4.46874 20.7488 3.62794C24.9758 2.78714 29.3572 3.21867 33.339 4.86796C37.3207 6.51725 40.724 9.31023 43.1184 12.8937C45.5128 16.4772 46.7908 20.6902 46.7908 25C46.7837 30.7771 44.4856 36.3156 40.4006 40.4006C36.3156 44.4856 30.7771 46.7837 25 46.7908Z" fill="white"/>
</g>
</g>
</g>
<defs>
<clipPath id="clip0_22545_200090">
<rect width="50" height="50" fill="white"/>
</clipPath>
<clipPath id="clip1_22545_200090">
<rect width="50" height="50.0001" fill="white"/>
</clipPath>
<clipPath id="clip2_22545_200090">
<rect width="50" height="50" fill="white"/>
</clipPath>
</defs>
</svg>
