<svg width="50" height="50" viewBox="0 0 50 50" fill="none" xmlns="http://www.w3.org/2000/svg">
<g clip-path="url(#clip0_22545_200089)">
<g clip-path="url(#clip1_22545_200089)">
<g clip-path="url(#clip2_22545_200089)">
<path d="M13.8579 18.5883H18.635V33.9339H13.8579V18.5883ZM16.2464 10.9556C16.7943 10.9556 17.3299 11.1181 17.7854 11.4227C18.2409 11.7272 18.5958 12.1601 18.8052 12.6664C19.0145 13.1727 19.069 13.7298 18.9616 14.2671C18.8542 14.8044 18.5899 15.2977 18.202 15.6847C17.814 16.0717 17.3201 16.3349 16.7825 16.4409C16.245 16.547 15.688 16.4912 15.1822 16.2806C14.6764 16.07 14.2444 15.7141 13.9409 15.2579C13.6375 14.8017 13.4762 14.2657 13.4775 13.7178C13.4793 12.9846 13.7718 12.282 14.2909 11.7642C14.81 11.2464 15.5132 10.9556 16.2464 10.9556ZM21.6374 33.9473H26.4079V26.3479C26.4079 24.3463 26.7882 22.4047 29.2702 22.4047C31.7522 22.4047 31.7522 24.6999 31.7522 26.4813V33.9473H36.5226V25.5206C36.5226 21.3839 35.6353 18.1813 30.7981 18.1813C29.8882 18.1501 28.9869 18.3662 28.1903 18.8069C27.3937 19.2475 26.7315 19.896 26.2745 20.6833H26.2144V18.5883H21.6374V33.9473Z" fill="white"/>
<path d="M25 0C20.0555 0 15.222 1.46622 11.1108 4.21326C6.99953 6.9603 3.79521 10.8648 1.90302 15.4329C0.0108321 20.0011 -0.484251 25.0277 0.480379 29.8773C1.44501 34.7268 3.82603 39.1814 7.32234 42.6777C10.8187 46.174 15.2732 48.555 20.1228 49.5196C24.9723 50.4843 29.9989 49.9892 34.5671 48.097C39.1353 46.2048 43.0397 43.0005 45.7868 38.8893C48.5338 34.778 50 29.9445 50 25C49.993 18.3718 47.3568 12.017 42.6699 7.33013C37.983 2.64325 31.6283 0.00706448 25 0ZM25 46.7908C20.6902 46.7908 16.4772 45.5128 12.8937 43.1184C9.31024 40.724 6.51726 37.3207 4.86797 33.339C3.21868 29.3572 2.78715 24.9758 3.62795 20.7488C4.46875 16.5218 6.54412 12.6391 9.59161 9.5916C12.6391 6.54411 16.5219 4.46874 20.7488 3.62794C24.9758 2.78714 29.3572 3.21867 33.339 4.86796C37.3207 6.51725 40.724 9.31023 43.1184 12.8937C45.5128 16.4772 46.7908 20.6902 46.7908 25C46.7837 30.7771 44.4856 36.3156 40.4006 40.4006C36.3156 44.4856 30.7771 46.7837 25 46.7908Z" fill="white"/>
</g>
</g>
</g>
<defs>
<clipPath id="clip0_22545_200089">
<rect width="50" height="50" fill="white"/>
</clipPath>
<clipPath id="clip1_22545_200089">
<rect width="50" height="50.0001" fill="white"/>
</clipPath>
<clipPath id="clip2_22545_200089">
<rect width="50" height="50" fill="white"/>
</clipPath>
</defs>
</svg>
