<svg width="20" height="30" viewBox="0 0 20 30" fill="none" xmlns="http://www.w3.org/2000/svg">
<g clip-path="url(#clip0_22656_202637)">
<path d="M10 7.44541C10.9472 7.44541 11.8556 7.82733 12.5254 8.50715C13.1952 9.18697 13.5714 10.109 13.5714 11.0704C13.5714 11.5465 13.4791 12.0178 13.2996 12.4576C13.1201 12.8974 12.857 13.2971 12.5254 13.6337C12.1937 13.9703 11.8 14.2373 11.3667 14.4195C10.9334 14.6016 10.469 14.6954 10 14.6954C9.0528 14.6954 8.14439 14.3135 7.47462 13.6337C6.80485 12.9539 6.42857 12.0318 6.42857 11.0704C6.42857 10.109 6.80485 9.18697 7.47462 8.50715C8.14439 7.82733 9.0528 7.44541 10 7.44541ZM10 0.92041C12.6522 0.92041 15.1957 1.98978 17.0711 3.89328C18.9464 5.79677 20 8.37846 20 11.0704C20 18.6829 10 29.9204 10 29.9204C10 29.9204 0 18.6829 0 11.0704C0 8.37846 1.05357 5.79677 2.92893 3.89328C4.8043 1.98978 7.34784 0.92041 10 0.92041ZM10 3.82041C8.1056 3.82041 6.28878 4.58425 4.94924 5.94389C3.60969 7.30352 2.85714 9.14759 2.85714 11.0704C2.85714 12.5204 2.85714 15.4204 10 25.1499C17.1429 15.4204 17.1429 12.5204 17.1429 11.0704C17.1429 9.14759 16.3903 7.30352 15.0508 5.94389C13.7112 4.58425 11.8944 3.82041 10 3.82041Z" fill="#FF1900"/>
</g>
<defs>
<clipPath id="clip0_22656_202637">
<rect width="20" height="28.5716" fill="white" transform="translate(0 0.92041)"/>
</clipPath>
</defs>
</svg>
