<svg width="250" height="470" viewBox="0 0 250 470" fill="none" xmlns="http://www.w3.org/2000/svg">
<path d="M125 250C158.152 250 189.946 236.83 213.388 213.388C236.83 189.946 250 158.152 250 125C250 91.8479 236.83 60.0537 213.388 36.6117C189.946 13.1696 158.152 5.00582e-06 125 0L125 30C150.196 30 174.359 40.0089 192.175 57.8249C209.991 75.6408 220 99.8044 220 125C220 150.196 209.991 174.359 192.175 192.175C174.359 209.991 150.196 220 125 220V250Z" fill="#D9D9D9"/>
<path d="M125 470C108.585 470 92.3302 466.767 77.1645 460.485C61.9988 454.203 48.2189 444.996 36.6116 433.388C25.0043 421.781 15.7968 408.001 9.51501 392.835C3.23318 377.67 -2.22428e-05 361.415 1.14738e-10 345C2.2243e-05 328.585 3.23327 312.33 9.51514 297.164C15.797 281.999 25.0045 268.219 36.6118 256.611C48.2192 245.004 61.9991 235.797 77.1648 229.515C92.3306 223.233 108.585 220 125 220L125 250C112.525 250 100.171 252.457 88.6453 257.231C77.1193 262.006 66.6466 269.003 57.825 277.825C49.0034 286.646 42.0057 297.119 37.2315 308.645C32.4573 320.171 30 332.524 30 345C30 357.475 32.4572 369.829 37.2314 381.355C42.0056 392.881 49.0032 403.354 57.8248 412.175C66.6464 420.997 77.1191 427.994 88.645 432.769C100.171 437.543 112.524 440 125 440V470Z" fill="#D9D9D9"/>
<path d="M125 250C91.8479 250 60.0537 236.83 36.6117 213.388C13.1696 189.946 2.50291e-06 158.152 0 125C-2.50291e-06 91.8479 13.1696 60.0537 36.6116 36.6117C60.0537 13.1696 91.8479 5.00582e-06 125 0L125 30C99.8044 30 75.6408 40.0089 57.8248 57.8249C40.0089 75.6408 30 99.8044 30 125C30 150.196 40.0089 174.359 57.8249 192.175C75.6408 209.991 99.8044 220 125 220V250Z" fill="#D9D9D9"/>
<path d="M125 470C141.415 470 157.67 466.767 172.835 460.485C188.001 454.203 201.781 444.996 213.388 433.388C224.996 421.781 234.203 408.001 240.485 392.835C246.767 377.67 250 361.415 250 345C250 328.585 246.767 312.33 240.485 297.164C234.203 281.999 224.996 268.219 213.388 256.611C201.781 245.004 188.001 235.797 172.835 229.515C157.669 223.233 141.415 220 125 220L125 250C137.475 250 149.829 252.457 161.355 257.231C172.881 262.006 183.353 269.003 192.175 277.825C200.997 286.646 207.994 297.119 212.768 308.645C217.543 320.171 220 332.524 220 345C220 357.475 217.543 369.829 212.769 381.355C207.994 392.881 200.997 403.354 192.175 412.175C183.354 420.997 172.881 427.994 161.355 432.769C149.829 437.543 137.476 440 125 440V470Z" fill="#D9D9D9"/>
</svg>
