<svg width="50" height="50" viewBox="0 0 50 50" fill="none" xmlns="http://www.w3.org/2000/svg">
<g clip-path="url(#clip0_22534_264335)">
<g clip-path="url(#clip1_22534_264335)">
<g clip-path="url(#clip2_22534_264335)">
<path d="M50.2688 48.7749L49.2104 47.7665C48.6875 47.077 48.1313 46.4665 47.525 45.9103L47.5146 45.902C46.8924 45.3367 46.2459 44.7992 45.575 44.2895C45.0375 43.92 44.2986 43.4749 43.3584 42.954C42.5854 42.6061 41.9813 41.9957 41.6542 41.2374L41.6459 41.2165L41.5459 41.1665C41.9875 41.1228 42.3917 41.0415 42.7792 40.927L42.7313 40.9394L43.9188 40.6124C44.4104 40.4582 44.9792 40.3582 45.5688 40.3353H45.5813C46.2021 40.3103 46.7875 40.2103 47.3459 40.0457L47.2938 40.0582C47.5632 39.9915 47.8403 39.9158 48.125 39.8311C48.4098 39.7464 48.6535 39.6707 48.8563 39.604V39.252C48.6549 38.9506 48.4111 38.6061 48.125 38.2186C47.8521 37.8478 47.5459 37.5249 47.2021 37.2436L47.1917 37.2353C46.3181 36.4631 45.4132 35.7158 44.4771 34.9936C43.6521 34.3499 42.7167 33.6936 41.7459 33.0853L41.6042 33.0019C41.0917 32.6645 40.5042 32.352 39.8854 32.0957L39.8146 32.0707C39.1924 31.8179 38.5792 31.5408 37.975 31.2395C37.7729 31.1395 37.5375 31.052 37.2938 30.9915L37.2709 30.9874C37.0271 30.9374 36.8188 30.8124 36.6667 30.6353L36.6646 30.6332C36.3771 30.254 36.125 29.8228 35.925 29.3645L35.9084 29.3228C35.707 28.852 35.4889 28.3999 35.2542 27.9665C34.75 26.9915 34.2625 26.0006 33.7917 24.9936C33.3209 23.9867 32.8688 22.9783 32.4354 21.9686C32.1341 21.2964 31.857 20.6249 31.6042 19.954C31.325 19.2165 31.0104 18.5853 30.6438 17.9915L30.6709 18.0395C29.7709 16.5061 28.8729 15.1978 27.8979 13.954L27.9563 14.0332C26.9917 12.8165 25.9917 11.729 24.9167 10.7207L24.9 10.7061C23.8396 9.71029 22.6979 8.76029 21.5 7.88112L21.3979 7.8082C20.1535 6.90404 18.7924 6.01376 17.3146 5.13737C16.7209 4.78737 16.0313 4.50195 15.3042 4.31862L15.25 4.30612L12.9313 3.72695L11.6209 3.62695C11.1848 3.59362 10.7479 3.57695 10.3104 3.57695C10.0021 3.41445 9.73753 3.2207 9.5042 2.9957C9.27503 2.77695 9.02712 2.5707 8.76878 2.38112L8.74795 2.36654C7.48753 1.63112 6.02295 0.958203 4.4917 0.429036L4.31462 0.37487C3.91253 0.139453 3.4292 0.00195312 2.91462 0.00195312C2.54795 0.00195312 2.19587 0.0727865 1.87503 0.19987L1.89378 0.19362C1.10212 0.508203 0.497949 1.14779 0.237533 1.94362L0.231283 1.96445C0.0791992 2.32279 -0.00830078 2.73737 -0.00830078 3.17487C-0.00830078 3.94154 0.262533 4.64362 0.714616 5.19154L0.710449 5.18529C1.466 6.19223 2.04517 6.9839 2.44795 7.56029C2.74934 7.96445 3.06045 8.38459 3.38128 8.8207C3.67503 9.21237 3.93545 9.66029 4.14587 10.1332L4.16253 10.177C4.2792 10.4249 4.38128 10.7207 4.45628 11.0249L4.46253 11.0582C4.5292 11.3443 4.61323 11.6554 4.71462 11.9915C5.016 12.7638 5.30142 13.5554 5.57087 14.3665C5.86462 15.252 6.18962 16.002 6.5667 16.7165L6.52712 16.6332C6.7285 17.0026 6.93059 17.3638 7.13337 17.7165C7.33614 18.0693 7.5542 18.4138 7.78753 18.7499C7.92295 18.954 8.09378 19.1228 8.28962 19.254L8.29587 19.2582C8.50212 19.4082 8.63753 19.6436 8.64795 19.9103C8.41045 20.2603 8.25003 20.6811 8.19587 21.1332L8.19378 21.1457C8.12087 21.6728 8.0167 22.1415 7.87503 22.5936L7.8917 22.5311C7.42712 23.9186 7.16045 25.5186 7.16045 27.179C7.16045 27.7165 7.18753 28.2457 7.24378 28.7686L7.23753 28.704C7.36253 30.6999 7.96462 32.5332 8.9292 34.1207L8.90003 34.0686C9.31045 34.6832 9.75003 35.2186 10.2354 35.7082C10.5854 36.0999 11.0938 36.3457 11.6604 36.3457C11.9771 36.3457 12.2771 36.2686 12.5396 36.1311L12.5292 36.1353C13.2584 35.8728 13.7771 35.2061 13.8146 34.4124V34.4082C13.9146 33.4207 14.0646 32.5374 14.2709 31.6749L14.2438 31.8145C14.2938 31.6832 14.3229 31.5332 14.3229 31.3749C14.3229 31.3436 14.3209 31.3124 14.3188 31.2811V31.2853C14.3021 31.1339 14.3945 30.9908 14.5959 30.8561V30.9561C14.7973 31.427 15.007 31.8971 15.225 32.3665C15.4431 32.836 15.6695 33.3061 15.9042 33.777C16.5188 34.7124 17.1709 35.529 17.8875 36.2811L17.8813 36.2749C18.6 37.0499 19.3834 37.7457 20.2292 38.3603L20.275 38.3915C20.7167 38.729 21.1042 39.0936 21.4542 39.4915L21.4625 39.4999C21.7917 39.8874 22.1854 40.2061 22.6292 40.4457L22.65 40.4561V40.4061H22.75C22.6688 40.2249 22.5375 40.079 22.375 39.979L22.3709 39.977C22.2063 39.8853 22.0646 39.7936 21.9313 39.6936L21.9417 39.6999C21.6403 39.3985 21.3292 39.0624 21.0084 38.6915C20.6875 38.3207 20.3938 37.9679 20.1271 37.6332C19.4216 36.6582 18.7486 35.6395 18.1084 34.577C17.4681 33.5145 16.8632 32.4346 16.2938 31.3374C16.0243 30.7999 15.7639 30.2457 15.5125 29.6749C15.2611 29.104 15.0174 28.5499 14.7813 28.0124C14.6792 27.8061 14.6084 27.5686 14.5813 27.3165V27.3061C14.5688 27.0665 14.4313 26.8603 14.2313 26.754L14.2271 26.752C13.975 27.1811 13.6959 27.552 13.3771 27.8874L13.3792 27.8853C13.0479 28.2332 12.7771 28.6436 12.5834 29.0936L12.5729 29.1207C12.2792 29.8332 12.0646 30.6603 11.9709 31.5249L11.9667 31.5645C11.8667 32.4547 11.766 33.37 11.6646 34.3103L11.5646 34.3603L11.5146 34.4103C10.9729 34.2999 10.5271 33.954 10.2854 33.4874L10.2813 33.477C10.0285 32.9895 9.80212 32.5103 9.60212 32.0395C9.08545 30.7124 8.76462 29.177 8.72087 27.5728V27.554C8.70212 27.2999 8.69378 27.002 8.69378 26.704C8.69378 25.3165 8.91253 23.979 9.3167 22.7249L9.2917 22.8165C9.3917 22.4471 9.60976 21.8249 9.94587 20.9499C10.282 20.0749 10.3493 19.47 10.1479 19.1353C10.0438 18.7915 9.85003 18.502 9.59587 18.2811L9.59378 18.279C9.33962 18.0582 9.10837 17.827 8.89587 17.5811L8.88962 17.5728C8.65489 17.2339 8.4285 16.8728 8.21045 16.4895C7.99239 16.1061 7.79934 15.7283 7.63128 15.3561C7.28753 14.5603 6.93545 13.5624 6.64378 12.5374L6.59795 12.352C6.2667 11.1749 5.89795 10.179 5.46045 9.2207L5.51462 9.35404C5.28337 8.82904 5.01462 8.37487 4.70212 7.96029L4.71462 7.97695C4.37573 7.52418 4.07295 7.0957 3.80628 6.69154C3.46739 6.25542 3.13128 5.83529 2.79795 5.43112C2.45837 5.0207 2.15628 4.5582 1.91045 4.06237L1.8917 4.0207C1.7917 3.81862 1.7042 3.5832 1.64378 3.33945L1.63962 3.31654C1.6167 3.24362 1.6042 3.1582 1.6042 3.07279C1.6042 2.90195 1.6542 2.74154 1.7417 2.6082L1.73962 2.61237C1.76253 2.4957 1.8167 2.39362 1.8917 2.31029C1.97295 2.23737 2.07712 2.1832 2.18962 2.16029H2.19378C2.37087 2.0457 2.58545 1.97695 2.81878 1.97695C2.99378 1.97695 3.16253 2.01654 3.31045 2.08737L3.3042 2.08529C3.76045 2.21445 4.1292 2.34362 4.48962 2.49154L4.41462 2.46445C5.05212 2.7339 5.64031 2.99431 6.1792 3.2457C6.80003 3.54154 7.3292 3.85404 7.8292 4.20195L7.7917 4.17695C8.06114 4.34501 8.32989 4.52973 8.59795 4.73112C8.866 4.93251 9.15142 5.13459 9.4542 5.33737H10.1604C10.6979 5.33737 11.2688 5.36306 11.8729 5.41445C12.4834 5.46237 13.0479 5.57695 13.5854 5.75612L13.5354 5.74154C14.5375 6.03945 15.3979 6.39154 16.2146 6.81445L16.1292 6.77487C16.9528 7.19431 17.7341 7.63945 18.4729 8.11029C19.7 8.87487 20.7604 9.6582 21.7584 10.5145L21.7229 10.4853C22.7646 11.377 23.7104 12.2915 24.5979 13.2582L24.6188 13.2832C25.4854 14.229 26.3125 15.2561 27.0688 16.3332L27.1334 16.4311C27.8292 17.4145 28.5313 18.552 29.1625 19.7311L29.25 19.9082C29.4188 20.229 29.5896 20.6228 29.7375 21.0249L29.7604 21.0936C29.8952 21.4797 30.0459 21.8756 30.2125 22.2811C30.582 23.1214 30.9778 23.9693 31.4 24.8249C31.8223 25.6804 32.2181 26.5124 32.5875 27.3207L33.6959 29.7395C34.0854 30.5853 34.5209 31.3145 35.0271 31.9874L35.0042 31.9561C35.4271 32.4082 35.9917 32.7249 36.625 32.8353L36.6417 32.8374C37.4084 33.029 38.0542 33.2457 38.6792 33.502L38.5813 33.4665C38.8792 33.602 39.2625 33.7457 39.6563 33.8728L39.7396 33.8957C40.1813 34.0311 40.5646 34.2103 40.9167 34.4353L40.8979 34.4249C41.5792 34.8061 42.1563 35.1811 42.7063 35.5895L42.6625 35.5582C43.2334 35.9776 43.8042 36.3735 44.375 36.7457C44.6445 36.9471 45.0966 37.2408 45.7313 37.627C46.366 38.0131 46.7021 38.3742 46.7396 38.7103C46.5021 38.702 46.2209 38.6957 45.9396 38.6957C44.9146 38.6957 43.9063 38.7624 42.9188 38.8915L43.0354 38.879C41.9188 39.029 40.9063 39.302 39.9542 39.6915L40.0375 39.6624C39.8021 39.7645 39.5209 39.8582 39.2292 39.9311L39.1896 39.9395C38.8938 39.9832 38.6646 40.2207 38.6354 40.5165C38.7625 40.6749 38.8646 40.8603 38.9334 41.0603L38.9375 41.0728C39.0084 41.2853 39.0938 41.4686 39.1979 41.6395L39.1917 41.627C39.4396 42.0665 39.7063 42.4457 40.0063 42.7957L39.9979 42.7853C40.2917 43.1478 40.6229 43.4624 40.9896 43.7311L41.0042 43.7415C41.3431 44.011 41.6959 44.2881 42.0625 44.5728C42.3979 44.8353 42.7771 45.0936 43.1709 45.327L43.2209 45.354C43.8125 45.7165 44.5 46.0624 45.2167 46.352L45.3125 46.3853C46.0917 46.6978 46.7604 47.0603 47.3813 47.4915L47.3479 47.4686C47.7521 47.7033 48.1549 47.9638 48.5563 48.2499C48.9577 48.536 49.3438 48.8131 49.7146 49.0811C49.8667 49.2311 50 49.3978 50.1125 49.579L50.1188 49.5895C50.3084 49.8061 50.5709 49.954 50.8688 49.9915H50.875V49.8915C50.6917 49.752 50.5563 49.5582 50.4917 49.3353L50.4896 49.327C50.4375 49.1145 50.3604 48.929 50.2563 48.7582L50.2604 48.7665L50.2688 48.7749ZM11.5688 8.76445C11.2993 8.76445 11.0473 8.77279 10.8125 8.78945C10.5729 8.80612 10.35 8.84987 10.1396 8.9207L10.1584 8.91445V8.96445H10.2584C10.3931 9.16584 10.5625 9.39223 10.7667 9.64362C10.9709 9.89501 11.1556 10.1388 11.3209 10.3749L12.1271 12.0374L12.2271 11.9874C12.4625 11.8165 12.6438 11.5874 12.7521 11.3186L12.7563 11.3082C12.8646 11.0186 12.9271 10.6811 12.9271 10.3311C12.9271 10.2936 12.9271 10.2561 12.925 10.2186V10.2249C12.8313 10.1332 12.7542 10.0249 12.7 9.90404L12.6979 9.89779L12.5292 9.51862C12.4188 9.34362 12.2646 9.20612 12.0834 9.11862L12.0771 9.11654C11.8813 9.02279 11.7146 8.90404 11.5688 8.76445Z" fill="#00758F"/>
</g>
</g>
</g>
<defs>
<clipPath id="clip0_22534_264335">
<rect width="50" height="50" fill="white"/>
</clipPath>
<clipPath id="clip1_22534_264335">
<rect width="50" height="50.0001" fill="white"/>
</clipPath>
<clipPath id="clip2_22534_264335">
<rect width="50" height="50" fill="white"/>
</clipPath>
</defs>
</svg>
