<svg width="50" height="50" viewBox="0 0 50 50" fill="none" xmlns="http://www.w3.org/2000/svg">
<g clip-path="url(#clip0_22534_264333)">
<g clip-path="url(#clip1_22534_264333)">
<g clip-path="url(#clip2_22534_264333)">
<path d="M29.4395 0.0981445C29.0791 0.0981445 28.7437 0.175228 28.4333 0.279395C29.0916 0.716895 29.4541 1.30023 29.6333 1.95856C29.6479 2.04814 29.6729 2.11273 29.6854 2.20231C29.7008 2.27921 29.7099 2.35725 29.7125 2.43564C29.7625 3.57106 29.4145 3.71481 29.1708 4.38564C28.7958 5.25023 28.9 6.17939 29.35 6.92731C29.3912 7.02761 29.4428 7.12327 29.5041 7.21273C29.0145 3.94606 31.7395 3.45648 32.2416 2.43564C32.2812 1.54398 31.5458 0.950228 30.9645 0.537728C30.5078 0.250705 29.979 0.0990107 29.4395 0.100228V0.0981445ZM33.5458 0.833561C33.4958 1.13148 33.5333 1.05439 33.5208 1.20856C33.5083 1.31273 33.5083 1.44189 33.4958 1.54398C33.4687 1.64814 33.4437 1.75231 33.4041 1.85439C33.3791 1.95856 33.3416 2.06273 33.3 2.16481L33.1604 2.46064C33.1187 2.51273 33.0958 2.56481 33.0562 2.61689L32.9791 2.73148C32.9177 2.81989 32.853 2.90605 32.7854 2.98981C32.7083 3.06898 32.6437 3.15856 32.552 3.22314V3.23564C32.475 3.30023 32.3979 3.37731 32.3062 3.44398C32.0354 3.65023 31.727 3.80439 31.4416 3.99814C31.352 4.06064 31.2604 4.11481 31.1833 4.19189C31.0956 4.25354 31.0134 4.32254 30.9375 4.39814C30.8479 4.47523 30.7833 4.55231 30.7062 4.64398C30.6416 4.72106 30.5645 4.81064 30.5125 4.90231C30.4476 4.98954 30.3871 5.07993 30.3312 5.17314C30.2791 5.27731 30.2416 5.36689 30.1895 5.46898C30.15 5.57314 30.1125 5.66273 30.0854 5.76689C30.0512 5.87329 30.0213 5.98102 29.9958 6.08981C29.9833 6.14189 29.9833 6.20648 29.9708 6.25648C29.9562 6.30856 29.9562 6.36064 29.9437 6.41273C29.9437 6.51689 29.9312 6.63148 29.9312 6.73564C29.9312 6.81273 29.9312 6.88981 29.9437 6.96689C29.9437 7.07106 29.9562 7.17523 29.9833 7.28981C29.9958 7.39398 30.0208 7.49814 30.0458 7.60231C30.0875 7.70439 30.1125 7.80648 30.15 7.91064C30.177 7.97314 30.2145 8.03981 30.2416 8.09189L27.2708 6.94189C26.7687 6.80023 26.277 6.67106 25.7729 6.55439L24.9604 6.36064C24.1854 6.20648 23.3979 6.08981 22.6104 6.01273C22.5833 6.01273 22.5708 6.00023 22.5458 6.00023C21.2151 5.86693 19.8753 5.8495 18.5416 5.94814C17.7541 6.00023 16.9666 6.10231 16.1791 6.23148C15.5939 6.33231 15.0123 6.45322 14.4354 6.59398L13.8541 6.74814C13.6625 6.82523 13.4791 6.91481 13.3 6.99398L12.8729 7.18773C12.8479 7.20023 12.8229 7.20023 12.8104 7.21273C12.6791 7.27731 12.5645 7.32939 12.4479 7.39398C12.2801 7.46797 12.116 7.55001 11.9562 7.63981C11.8666 7.67731 11.777 7.72939 11.6979 7.76898C11.6609 7.79194 11.6226 7.8128 11.5833 7.83148C11.4666 7.89814 11.35 7.96273 11.2458 8.02731C11.1395 8.08608 11.0365 8.15077 10.9375 8.22106C10.8458 8.28356 10.7562 8.33564 10.6791 8.40023C10.6666 8.41481 10.652 8.41481 10.6395 8.42731C10.5625 8.47939 10.4729 8.54398 10.3937 8.60856L10.3687 8.63356L10.175 8.78773C10.15 8.80231 10.1229 8.82731 10.0979 8.83981C10.0333 8.89189 9.96871 8.95648 9.90412 9.00648C9.89162 9.03356 9.86454 9.04814 9.85204 9.05856C9.77495 9.13773 9.69787 9.20231 9.62079 9.27939C9.6062 9.27939 9.6062 9.29189 9.59371 9.30439C9.51341 9.37457 9.43626 9.44825 9.36246 9.52523C9.34787 9.53773 9.34787 9.55023 9.33537 9.55023C9.26756 9.6166 9.20291 9.68612 9.14162 9.75856C9.11662 9.78356 9.07912 9.80856 9.05204 9.83356C8.98285 9.91541 8.90913 9.99331 8.8312 10.0669C8.8187 10.0919 8.7937 10.1065 8.78121 10.1294C8.67704 10.2336 8.58745 10.3377 8.48329 10.4419L8.44579 10.4794C8.23746 10.7002 8.01871 10.919 7.78537 11.1127C7.55412 11.3211 7.30829 11.5127 7.06246 11.6815C6.56886 12.034 6.03616 12.3284 5.47496 12.5586C5.20412 12.6752 4.91871 12.7794 4.63537 12.869C4.09371 12.9856 3.53746 13.2044 3.06037 13.244C2.95621 13.244 2.84162 13.269 2.73746 13.2815L2.41454 13.3586L2.10412 13.4752C1.99996 13.5148 1.89787 13.5669 1.79579 13.6169C1.70412 13.6815 1.60204 13.7336 1.51037 13.7981C1.41845 13.8647 1.33206 13.9385 1.25204 14.019C1.16246 14.0815 1.07079 14.1731 0.993706 14.2502C0.916622 14.3398 0.839539 14.4169 0.774956 14.5086C0.710373 14.6127 0.633289 14.7023 0.581206 14.8065C0.513347 14.9003 0.452754 14.9992 0.399956 15.1023C0.347872 15.219 0.295789 15.3231 0.258289 15.4377C0.218706 15.5419 0.181206 15.6586 0.141622 15.7731C0.116623 15.8773 0.0895392 15.9815 0.0791225 16.0856C0.0791225 16.0961 0.0645392 16.1106 0.0645392 16.1231C0.0395392 16.2398 0.0395392 16.394 0.0249558 16.4711C0.0124558 16.5627 -4.41657e-05 16.6377 -4.41657e-05 16.7294C-0.00244108 16.9541 0.0505056 17.1759 0.154123 17.3752V17.3877C0.193706 17.4648 0.245789 17.544 0.297872 17.6211C0.347872 17.6981 0.402039 17.7752 0.464539 17.8523C0.529122 17.9169 0.606206 17.9961 0.685372 18.0606C0.760651 18.1362 0.842193 18.2052 0.929123 18.2669C1.23954 18.5377 1.31662 18.6273 1.71662 18.8336C1.78121 18.8731 1.84579 18.8981 1.92496 18.9377C1.93746 18.9377 1.94996 18.9502 1.96246 18.9502C1.96246 18.9773 1.96246 18.9898 1.97496 19.0148C2.00511 19.2278 2.06108 19.4362 2.14162 19.6356C2.18329 19.7127 2.20829 19.7898 2.24579 19.8669C2.26037 19.894 2.27287 19.919 2.28746 19.9315C2.33746 20.0356 2.38954 20.1252 2.43954 20.2169L2.63329 20.4877C2.69787 20.5648 2.77704 20.6544 2.85412 20.7336C2.93121 20.8106 3.00829 20.8752 3.09996 20.9523C3.09996 20.9523 3.11246 20.9648 3.12496 20.9648C3.20204 21.0294 3.27912 21.094 3.35829 21.1461C3.44813 21.2091 3.54288 21.2648 3.64162 21.3127C3.73121 21.3648 3.83537 21.4169 3.93746 21.4565C4.0207 21.494 4.10716 21.524 4.19579 21.5461C4.21037 21.5586 4.22287 21.5586 4.24787 21.5711C4.29996 21.5856 4.36454 21.5981 4.41454 21.6106C4.37704 22.3086 4.36454 22.9648 4.46871 23.1981C4.58329 23.4565 5.15204 22.669 5.71871 21.7648C5.64371 22.6565 5.59162 23.7023 5.71871 24.0127C5.86246 24.3356 6.63537 23.3273 7.30829 22.2169C16.4645 20.1002 24.8187 26.4252 25.6958 35.3627C25.5291 33.9669 23.8104 33.194 23.0229 33.3877C22.6354 34.3419 21.977 35.569 20.9187 36.3315C21.0083 35.4773 20.9708 34.6023 20.7895 33.7481C20.5003 34.9371 19.9534 36.048 19.1875 37.0023C17.9625 37.0919 16.7354 36.4981 16.0895 35.6065C16.0375 35.569 16.025 35.4919 15.9854 35.4398C15.9479 35.3502 15.9083 35.2586 15.8812 35.169C15.8437 35.0825 15.8178 34.9914 15.8041 34.8981C15.7916 34.8065 15.7916 34.7169 15.7916 34.6127V34.419C15.807 34.3273 15.8286 34.2369 15.8562 34.1481C15.8833 34.0586 15.9083 33.969 15.9479 33.8773C15.9979 33.7877 16.0375 33.6961 16.102 33.6065C16.3208 32.9856 16.3208 32.4815 15.9208 32.1856C15.8431 32.1349 15.7608 32.0917 15.675 32.0565C15.625 32.044 15.5604 32.019 15.5083 32.0044L15.4041 31.9669C15.3157 31.9383 15.2251 31.9167 15.1333 31.9023C15.0453 31.8766 14.9541 31.8632 14.8625 31.8627C14.7687 31.848 14.674 31.8397 14.5791 31.8377C14.5145 31.8377 14.45 31.8502 14.3854 31.8502C14.2888 31.8497 14.1927 31.863 14.1 31.8898C14.0104 31.9023 13.9208 31.9148 13.8291 31.9398C13.737 31.9645 13.6465 31.9951 13.5583 32.0315C13.4687 32.069 13.3916 32.1086 13.3 32.1481C13.2229 32.1856 13.1458 32.2377 13.0541 32.2773C10.0458 34.2398 11.8416 38.8356 13.8937 40.1669C13.1187 40.3086 12.3312 40.4752 12.1125 40.644L12.0854 40.669C12.6416 41.0044 13.2229 41.2898 13.8291 41.5356C14.6562 41.8065 15.5333 42.0502 15.9208 42.1544V42.1669C16.9906 42.3866 18.0847 42.465 19.175 42.4002C24.8958 42.0002 29.5833 37.6481 30.4354 31.9148L30.5125 32.2502C30.552 32.4836 30.602 32.7294 30.6291 32.9731V32.9856C30.6541 33.1023 30.6666 33.219 30.6812 33.3231V33.3731C30.6937 33.4898 30.7062 33.6065 30.7062 33.7106C30.7187 33.8523 30.7312 33.994 30.7312 34.1356V34.344C30.7312 34.4065 30.7458 34.4836 30.7458 34.5481C30.7458 34.6273 30.7312 34.7044 30.7312 34.7815V34.9627C30.7312 35.0523 30.7187 35.1294 30.7187 35.2211C30.7187 35.2731 30.7187 35.3252 30.7062 35.3877C30.7062 35.4794 30.6937 35.569 30.6937 35.6731C30.6812 35.7106 30.6812 35.7502 30.6812 35.7877L30.6395 36.0856C30.6395 36.1252 30.6395 36.1627 30.6291 36.2023C30.6145 36.3315 30.5895 36.4481 30.577 36.5773V36.6023L30.5 36.9648V37.0023L30.4229 37.3502C30.4229 37.3648 30.4083 37.3919 30.4083 37.4023C30.3845 37.5205 30.3546 37.6373 30.3187 37.7523V37.7898C30.2791 37.919 30.2416 38.0356 30.2145 38.1523C30.202 38.1648 30.202 38.1773 30.202 38.1773L30.0854 38.5648C30.0354 38.694 29.9958 38.8106 29.9437 38.9398C29.8916 39.069 29.8541 39.1981 29.802 39.3148C29.75 39.444 29.6979 39.5586 29.6479 39.6898H29.6333C29.5833 39.8044 29.5291 39.9336 29.4666 40.0502C29.4558 40.0811 29.4425 40.111 29.427 40.1398C29.4145 40.1523 29.4145 40.1669 29.402 40.1794C28.548 41.8891 27.305 43.3747 25.7729 44.5169C25.6687 44.5815 25.5666 44.6606 25.4625 44.7377C25.4375 44.7627 25.4 44.7752 25.3729 44.8002C25.2805 44.8685 25.186 44.9338 25.0895 44.9961L25.127 45.0731H25.1416L25.6833 44.9961H25.6958C26.0312 44.944 26.3666 44.8794 26.702 44.8148C26.7937 44.8023 26.8958 44.7752 26.9875 44.7502L27.1687 44.7106C27.2583 44.6981 27.3479 44.6731 27.4395 44.6606C27.5166 44.6336 27.5937 44.619 27.6708 44.5961C28.9625 44.2836 30.2145 43.8586 31.4166 43.3565C29.3413 46.1832 26.5812 48.4357 23.3958 49.9023C24.8833 49.7981 26.3666 49.5544 27.8 49.1398C32.9879 47.6145 37.3696 44.1133 40.002 39.3898C39.4704 42.3799 38.2844 45.2156 36.5291 47.694C37.7806 46.8685 38.937 45.9071 39.977 44.8273C42.8674 41.8098 44.7649 37.9799 45.4145 33.8523C45.852 35.894 45.9812 37.9981 45.7895 40.0752C55.1104 27.0731 46.5625 13.5919 42.9854 10.0419C42.9729 10.0148 42.9604 10.0023 42.9604 9.97731C42.9479 9.98981 42.9479 9.98981 42.9479 10.0023C42.9479 9.98981 42.9479 9.98981 42.9333 9.97731C42.9333 10.1315 42.9208 10.2856 42.9083 10.4419C42.8725 10.7311 42.8294 11.0194 42.7791 11.3065C42.7166 11.5898 42.6375 11.8752 42.5604 12.1606C42.4687 12.4315 42.3666 12.7148 42.2479 12.9856C42.1298 13.2531 42.0013 13.5158 41.8625 13.7731C41.5742 14.2793 41.2416 14.759 40.8687 15.2065C40.675 15.4377 40.4687 15.644 40.2604 15.8523C40.1386 15.9636 40.0135 16.0713 39.8854 16.1752L39.5895 16.4336C39.359 16.6155 39.1176 16.7832 38.8666 16.9356C38.6198 17.0946 38.3653 17.2413 38.1041 17.3752C37.8333 17.5044 37.5625 17.6211 37.2916 17.7377C36.74 17.9475 36.1692 18.1031 35.5875 18.2023C35.2895 18.2544 34.9937 18.2794 34.7083 18.3065C34.5023 18.321 34.296 18.3294 34.0895 18.3315C33.7958 18.3274 33.5025 18.31 33.2104 18.2794C32.9154 18.2562 32.6224 18.2131 32.3333 18.1502C32.0404 18.0971 31.7516 18.024 31.4687 17.9315H31.4541C31.7395 17.9044 32.0229 17.8794 32.3083 17.8273C32.8897 17.7265 33.4603 17.571 34.0125 17.3627C34.2958 17.2586 34.5666 17.1294 34.825 17.0002C35.0958 16.8711 35.3416 16.7294 35.6 16.5752C35.8458 16.4086 36.0895 16.2398 36.3229 16.0586C36.5562 15.8773 36.775 15.6836 36.9812 15.4773C37.2 15.2836 37.3937 15.0648 37.5875 14.844C37.7812 14.6127 37.9625 14.3794 38.1291 14.1481C38.1562 14.1086 38.1833 14.0565 38.2083 14.019C38.3375 13.8106 38.4666 13.6044 38.5833 13.3981C38.868 12.8842 39.101 12.3434 39.2791 11.7836C39.3708 11.5127 39.4354 11.2294 39.5 10.944C39.552 10.6481 39.6041 10.3648 39.6291 10.0794C39.6541 9.78356 39.6812 9.48564 39.6812 9.20231C39.6812 8.99398 39.6666 8.78773 39.6541 8.58148C39.6284 8.29227 39.5936 8.00394 39.55 7.71689C39.4997 7.42584 39.4358 7.13732 39.3583 6.85231C39.2666 6.58148 39.177 6.29606 39.0729 6.02523C38.9687 5.75439 38.8416 5.48356 38.7125 5.22523C38.5687 4.96689 38.427 4.70856 38.2729 4.46273C38.108 4.22138 37.9356 3.98515 37.7562 3.75439C37.5625 3.53356 37.3687 3.31273 37.1625 3.09398C37.0538 2.98314 36.9419 2.87546 36.827 2.77106C36.2437 2.31898 35.6395 1.89398 35.0312 1.50648C34.9478 1.45828 34.8615 1.41515 34.7729 1.37731C34.3899 1.1428 33.9772 0.95854 33.5458 0.833561Z" fill="#FF0000"/>
</g>
</g>
</g>
<defs>
<clipPath id="clip0_22534_264333">
<rect width="50" height="50" fill="white"/>
</clipPath>
<clipPath id="clip1_22534_264333">
<rect width="50" height="50.0001" fill="white"/>
</clipPath>
<clipPath id="clip2_22534_264333">
<rect width="50" height="50" fill="white"/>
</clipPath>
</defs>
</svg>
