<svg xmlns="http://www.w3.org/2000/svg" viewBox="0 0 960 960" xml:space="preserve">
    <path d="M450.995 234.686c26.974-2.338 53.518-2.109 79.358 4.477 51.62 13.157 93.982 40.407 125.504 84.127 21.015 29.147 34.53 61.11 39.222 96.59 4.104 31.032 1.657 61.713-7.65 91.75-6.72 21.688-17.207 41.331-30.596 59.643-14.046 19.21-29.887 36.466-49.287 50.426-24.146 17.375-50.877 28.626-79.68 35.673-22.907 5.605-46.191 7.85-69.39 5.485-37.105-3.784-71.658-15.572-102.435-37.58-28.048-20.058-51.731-43.982-68.74-74.104-12.736-22.556-20.792-46.64-23.9-72.53-4.264-35.514-.972-70.174 10.878-103.79 15.107-42.855 42.592-76.409 79.44-102.642 26.113-18.592 55.158-29.95 86.478-35.9 3.427-.652 6.897-1.075 10.798-1.625m-2.525 310.55c-17.96-6.019-33.496-16.08-45.552-30.492-19.264-23.028-28.777-49.51-25.326-80.016 3.862-34.15 21.735-59.003 50.354-76.785 12.82-7.966 27.39-11.168 41.942-13.936 5.121-.974 6.684-3.295 6.678-7.922-.03-23.663.076-47.327-.037-70.99-.031-6.648-.76-7.245-7.286-6.884-41.126 2.28-77.966 15.831-110.19 41.743-25.88 20.812-46.47 45.399-58.553 76.853-12.568 32.717-17.124 66.108-12.297 100.904 5.276 38.03 22.392 70.342 48.21 97.87 25.92 27.637 57.416 46.938 94.53 56.099 13.402 3.307 26.977 5.969 40.899 6.047 2.565.014 4.416-.068 4.394-3.63-.159-25.815-.08-51.633-.193-77.449-.028-6.387-.664-6.662-7.275-7.351-6.61-.689-13.209-1.59-20.298-4.061m29.953.074c-.375 3.575 1.446 4.639 4.765 4.572 6.375-.128 12.59-1.385 18.679-2.94 27.024-6.897 48.958-21.2 64.122-45.05 14.025-22.059 18.383-46.46 14.806-71.812-4.067-28.827-19.475-51.232-43.485-67.69-15.75-10.795-33.093-16.86-52.216-17.755-4.003-.188-6.431.887-6.055 5.544.267 3.31.196 6.663.045 9.986-.158 3.494 1.228 5.123 4.81 5.455 22.437 2.084 41.505 11.058 56.943 27.704 14.786 15.945 20.865 35.128 20.087 56.297-.622 16.921-6.336 32.458-16.797 46.14-6.881 9-14.853 16.505-24.857 21.93-11.166 6.056-22.997 9.597-35.66 10.3-3.311.184-4.7 1.63-4.66 4.99.044 3.82-.33 7.644-.527 12.33z"/>
</svg>
