<svg width="50" height="50" viewBox="0 0 50 50" fill="none" xmlns="http://www.w3.org/2000/svg">
<g clip-path="url(#clip0_22534_264332)">
<g clip-path="url(#clip1_22534_264332)">
<path d="M47.1274 14.4403V35.5451C47.1274 36.9147 46.3905 38.19 45.2063 38.8794L26.9204 49.4376C26.3355 49.7768 25.6721 49.9511 24.9947 49.9511C24.3269 49.9511 23.6618 49.7768 23.0768 49.4376L16.9713 45.8253C16.0605 45.3168 16.505 45.1359 16.806 45.0315C18.0222 44.6094 18.2682 44.5122 19.5666 43.7754C19.702 43.6979 19.8806 43.7282 20.0204 43.8089L24.7109 46.5939C24.8809 46.6897 25.1211 46.6897 25.2774 46.5939L43.5648 36.0387C43.7351 35.9414 43.8443 35.7473 43.8443 35.5452V14.4403C43.8443 14.2336 43.7351 14.0405 43.5605 13.9361L25.2806 3.39021C25.1121 3.29158 24.8871 3.29158 24.7174 3.39021L6.44158 13.939C6.26404 14.0406 6.15203 14.2397 6.15203 14.4403V35.5451C6.15203 35.7471 6.26394 35.9366 6.4405 36.0324L11.4502 38.9283C14.1678 40.286 15.8325 38.6856 15.8325 37.0771V16.2411C15.8325 15.9465 16.0691 15.7141 16.3636 15.7141H18.6827C18.9726 15.7141 19.2129 15.9464 19.2129 16.2411V37.0772C19.2129 40.7048 17.2367 42.7856 13.7976 42.7856C12.7414 42.7856 11.9083 42.7856 9.58494 41.6418L4.79021 38.8794C3.60535 38.1963 2.87244 36.9148 2.87244 35.5451V14.4403C2.87244 13.0689 3.60535 11.7889 4.79021 11.1068L23.0769 0.539624C24.2342 -0.114771 25.773 -0.114771 26.9204 0.539624L45.2063 11.1068C46.3905 11.7918 47.1274 13.0689 47.1274 14.4403ZM31.3643 33.5319C25.9073 33.5319 24.7066 32.16 24.3044 29.4464C24.2578 29.1567 24.0096 28.941 23.7123 28.941H21.0457C20.7154 28.941 20.4504 29.205 20.4504 29.5371C20.4504 33.0097 22.3404 37.1514 31.3643 37.1514C37.8981 37.1514 41.6445 34.5793 41.6445 30.0867C41.6445 25.6313 38.6341 24.4461 32.2979 23.6072C25.8937 22.7597 25.2429 22.3233 25.2429 20.8232C25.2429 19.5868 25.794 17.9344 30.5375 17.9344C34.7732 17.9344 36.3348 18.8474 36.9769 21.7016C37.0335 21.9707 37.278 22.167 37.5553 22.167H40.232C40.398 22.167 40.5557 22.0957 40.6685 21.9772C40.7816 21.8522 40.8417 21.6894 40.8259 21.5187C40.4117 16.5991 37.1429 14.3074 30.5374 14.3074C24.6576 14.3074 21.1509 16.7892 21.1509 20.9482C21.1509 25.4616 24.64 26.7099 30.2817 27.2668C37.0335 27.9291 37.5575 28.9155 37.5575 30.2441C37.5575 32.5487 35.7085 33.5319 31.3643 33.5319Z" fill="#6CC24A"/>
</g>
</g>
<defs>
<clipPath id="clip0_22534_264332">
<rect width="50" height="50" fill="white"/>
</clipPath>
<clipPath id="clip1_22534_264332">
<rect width="50" height="50.0001" fill="white"/>
</clipPath>
</defs>
</svg>
