<svg width="20" height="26" viewBox="0 0 20 26" fill="none" xmlns="http://www.w3.org/2000/svg">
<g clip-path="url(#clip0_22656_202597)">
<path d="M10 11.6186C11.1302 11.6186 12.235 11.2797 13.1747 10.6448C14.1144 10.0099 14.8468 9.10751 15.2793 8.05171C15.7118 6.99591 15.825 5.83414 15.6045 4.71331C15.384 3.59248 14.8398 2.56293 14.0406 1.75485C13.2415 0.946779 12.2233 0.396473 11.1148 0.173526C10.0063 -0.0494211 8.85739 0.0650035 7.81324 0.50233C6.76909 0.939657 5.87664 1.68024 5.24875 2.63044C4.62085 3.58063 4.28571 4.69776 4.28571 5.84055C4.28571 7.37298 4.88775 8.84265 5.95939 9.92625C7.03103 11.0098 8.48448 11.6186 10 11.6186ZM10 2.95153C10.5651 2.95153 11.1175 3.12096 11.5873 3.43841C12.0572 3.75587 12.4234 4.20707 12.6397 4.73497C12.8559 5.26287 12.9125 5.84376 12.8022 6.40417C12.692 6.96459 12.4199 7.47936 12.0203 7.8834C11.6207 8.28744 11.1116 8.56259 10.5574 8.67406C10.0032 8.78554 9.42869 8.72832 8.90662 8.50966C8.38454 8.291 7.93832 7.9207 7.62437 7.44561C7.31043 6.97051 7.14286 6.41195 7.14286 5.84055C7.14286 5.07433 7.44388 4.3395 7.9797 3.7977C8.51551 3.2559 9.24224 2.95153 10 2.95153ZM10 14.5076C7.34784 14.5076 4.8043 15.5729 2.92893 17.4692C1.05357 19.3655 0 21.9374 0 24.6192C0 25.0023 0.15051 25.3697 0.418419 25.6406C0.686328 25.9115 1.04969 26.0637 1.42857 26.0637C1.80745 26.0637 2.17081 25.9115 2.43872 25.6406C2.70663 25.3697 2.85714 25.0023 2.85714 24.6192C2.85714 22.7037 3.60969 20.8666 4.94924 19.5121C6.28878 18.1576 8.1056 17.3966 10 17.3966C11.8944 17.3966 13.7112 18.1576 15.0508 19.5121C16.3903 20.8666 17.1429 22.7037 17.1429 24.6192C17.1429 25.0023 17.2934 25.3697 17.5613 25.6406C17.8292 25.9115 18.1925 26.0637 18.5714 26.0637C18.9503 26.0637 19.3137 25.9115 19.5816 25.6406C19.8495 25.3697 20 25.0023 20 24.6192C20 21.9374 18.9464 19.3655 17.0711 17.4692C15.1957 15.5729 12.6522 14.5076 10 14.5076Z" fill="#FF1900"/>
</g>
<defs>
<clipPath id="clip0_22656_202597">
<rect width="20" height="25.716" fill="white" transform="translate(0 0.0625)"/>
</clipPath>
</defs>
</svg>
