<svg width="50" height="50" viewBox="0 0 50 50" fill="none" xmlns="http://www.w3.org/2000/svg">
<g clip-path="url(#clip0_22534_264334)">
<g clip-path="url(#clip1_22534_264334)">
<path d="M15.1559 7.41231C14.3717 7.86506 13.5465 9.11359 13.4507 11.837C13.4052 13.1306 12.3197 14.1424 11.0261 14.0969C9.73247 14.0514 8.72065 12.9659 8.76612 11.6723C8.88353 8.3335 9.93937 5.01141 12.8122 3.35281C15.6931 1.68951 19.1089 2.44483 22.0665 4.02269C23.2086 4.63197 23.6405 6.05172 23.0312 7.19375C22.4219 8.33581 21.0022 8.76772 19.8601 8.15847C17.4431 6.86903 15.9424 6.95819 15.1559 7.41231ZM27.7231 11.4776C28.7199 10.6518 30.1973 10.7904 31.0232 11.7872C32.7556 13.8782 34.4175 16.2626 35.9259 18.8755C39.1769 24.5059 41.1812 30.2745 41.7216 35.1131C41.9912 37.5284 41.9087 39.8268 41.3447 41.7981C40.7762 43.7843 39.6691 45.5822 37.8122 46.654C35.5656 47.9512 32.9716 47.7672 30.5973 46.9028C28.2146 46.0353 25.7623 44.3925 23.4246 42.2587C22.4685 41.3859 22.401 39.9034 23.2736 38.9475C24.1463 37.9915 25.6287 37.9237 26.5847 38.7965C28.6445 40.6765 30.5802 41.9078 32.2009 42.4981C33.8303 43.0912 34.8553 42.9487 35.4684 42.5947C35.9822 42.2981 36.4991 41.6937 36.8381 40.5084C37.1816 39.3084 37.29 37.6653 37.0631 35.6331C36.61 31.5765 34.8722 26.4252 31.8666 21.2193C30.4841 18.8248 28.9713 16.6579 27.4135 14.7777C26.5877 13.7809 26.7263 12.3034 27.7231 11.4776Z" fill="#61DBFB"/>
<path d="M45.3125 25.6423C45.3125 24.7368 44.6438 23.3978 42.3331 21.9532C41.2356 21.267 40.9022 19.821 41.5884 18.7234C42.2747 17.6259 43.7206 17.2924 44.8181 17.9786C47.6509 19.7496 50 22.3251 50 25.6423C50 28.9689 47.6381 31.5492 44.7928 33.3217C43.6941 34.0061 42.2484 33.6705 41.5641 32.5717C40.8797 31.473 41.2156 30.0276 42.3141 29.3431C44.6394 27.8947 45.3125 26.5505 45.3125 25.6423ZM35.5081 34.493C35.725 35.7692 34.8662 36.9795 33.59 37.1964C30.9131 37.6511 28.0171 37.898 25 37.898C18.4986 37.898 12.5006 36.7499 8.04019 34.7983C5.8135 33.8242 3.86434 32.6036 2.43915 31.1296C1.00305 29.6441 0 27.7863 0 25.6423C0 23.0483 1.45651 20.8936 3.39212 19.2697C5.33475 17.64 7.98347 16.3376 11.0004 15.38C12.2342 14.9884 13.5518 15.6711 13.9434 16.9048C14.335 18.1386 13.6523 19.4562 12.4186 19.8478C9.76044 20.6915 7.72625 21.7523 6.40481 22.8609C5.07631 23.9754 4.6875 24.9342 4.6875 25.6423C4.6875 26.2354 4.95237 26.9852 5.80922 27.8715C6.67697 28.769 8.04575 29.6844 9.91903 30.504C13.6586 32.1399 18.9887 33.2105 25 33.2105C27.7648 33.2105 30.3979 32.9839 32.805 32.5749C34.0812 32.3583 35.2916 33.2171 35.5081 34.493Z" fill="#61DBFB"/>
<path d="M15.2248 42.5944C16.009 43.0473 17.5028 43.1376 19.9092 41.8588C21.0523 41.2513 22.4713 41.6857 23.0787 42.8285C23.6862 43.9716 23.252 45.3907 22.1089 45.9982C19.1587 47.5657 15.7538 48.3126 12.881 46.6538C10.0001 44.9907 8.94633 41.6548 8.83398 38.3045C8.79061 37.0107 9.80417 35.9269 11.0979 35.8835C12.3915 35.8401 13.4755 36.8535 13.5189 38.1473C13.6107 40.8854 14.4382 42.1404 15.2248 42.5944ZM12.4618 29.6783C11.2483 29.2279 10.6295 27.8791 11.0799 26.6655C12.0246 24.1197 13.2586 21.4882 14.7671 18.8753C18.0179 13.2449 22.0113 8.62464 25.9315 5.73755C27.8885 4.29623 29.92 3.21848 31.9094 2.72133C33.9138 2.22036 36.0244 2.28059 37.881 3.35261C40.1275 4.64961 41.2653 6.98833 41.7038 9.47655C42.1438 11.9738 41.9475 14.9188 41.2681 18.0104C40.9903 19.2746 39.7403 20.0744 38.4763 19.7967C37.2119 19.5189 36.4122 18.2689 36.69 17.0046C37.2881 14.2808 37.3866 11.9887 37.0875 10.29C36.7866 8.58226 36.1503 7.76614 35.5372 7.41211C35.0238 7.11555 34.2419 6.97005 33.046 7.26895C31.8347 7.57167 30.3576 8.29939 28.7112 9.51189C25.4245 11.9325 21.8323 16.0131 18.8266 21.2191C17.4442 23.6135 16.324 26.0071 15.4745 28.2963C15.0242 29.5099 13.6754 30.1286 12.4618 29.6783Z" fill="#61DBFB"/>
<path d="M29.5602 25.207C29.5602 27.5531 27.6582 29.4551 25.3121 29.4551C22.966 29.4551 21.0641 27.5531 21.0641 25.207C21.0641 22.8609 22.966 20.959 25.3121 20.959C27.6582 20.959 29.5602 22.8609 29.5602 25.207Z" fill="#61DBFB"/>
</g>
</g>
<defs>
<clipPath id="clip0_22534_264334">
<rect width="50" height="50" fill="white"/>
</clipPath>
<clipPath id="clip1_22534_264334">
<rect width="50" height="50.0001" fill="white"/>
</clipPath>
</defs>
</svg>
