<svg width="20" height="21" viewBox="0 0 20 21" fill="none" xmlns="http://www.w3.org/2000/svg">
<g clip-path="url(#clip0_22659_204470)">
<path d="M18.9957 1.51339C18.3417 0.859514 17.4547 0.492188 16.5299 0.492188C15.6051 0.492188 14.7182 0.859514 14.0641 1.51339L7.52862 8.04905C7.44419 8.13323 7.38049 8.23589 7.34255 8.34892L5.42035 14.1157C5.37506 14.2511 5.36839 14.3965 5.40108 14.5355C5.43377 14.6745 5.50453 14.8017 5.60543 14.9028C5.70633 15.0038 5.83339 15.0748 5.97235 15.1077C6.11132 15.1406 6.2567 15.1342 6.39221 15.0891L12.1588 13.1669C12.2724 13.1291 12.3756 13.0654 12.4602 12.9808L18.9957 6.44512C19.6496 5.79107 20.0169 4.9041 20.0169 3.97925C20.0169 3.05441 19.6496 2.16744 18.9957 1.51339ZM15.1513 2.60061C15.5189 2.24444 16.0118 2.04708 16.5236 2.05111C17.0354 2.05515 17.5251 2.26026 17.887 2.62218C18.2489 2.9841 18.454 3.4738 18.458 3.98562C18.4621 4.49743 18.2647 4.99032 17.9085 5.35789L11.5007 11.7644L7.36408 13.1438L8.74345 9.0071L15.1513 2.60061ZM9.22478 3.59403C9.41392 3.59403 9.60153 3.60172 9.7876 3.61403L11.1454 2.25615C9.19915 1.84232 7.17123 2.06879 5.36417 2.90178C3.55711 3.73477 2.06775 5.12964 1.11824 6.87833C0.168743 8.62702 -0.190018 10.6358 0.0954746 12.6051C0.380968 14.5743 1.29542 16.3985 2.70242 17.8056C4.10942 19.2126 5.93357 20.1271 7.90279 20.4126C9.872 20.6981 11.8807 20.3393 13.6294 19.3898C15.378 18.4403 16.7729 16.9509 17.6058 15.1438C18.4388 13.3367 18.6653 11.3087 18.2515 9.36233L16.8936 10.7218C17.0064 12.2623 16.6525 13.8011 15.8782 15.1376C15.1039 16.4741 13.945 17.5465 12.5525 18.2149C11.1599 18.8833 9.59841 19.1168 8.07129 18.885C6.54417 18.6531 5.12228 17.9667 3.99087 16.9151C2.85947 15.8636 2.071 14.4956 1.72821 12.9895C1.38542 11.4833 1.50419 9.90886 2.06905 8.4712C2.63391 7.03354 3.61867 5.79934 4.89503 4.92941C6.17139 4.05947 7.68016 3.59414 9.22478 3.59403Z" fill="#FF1900"/>
</g>
<defs>
<clipPath id="clip0_22659_204470">
<rect width="20" height="19.9999" fill="white" transform="translate(0 0.492188)"/>
</clipPath>
</defs>
</svg>
