<svg width="22" height="30" viewBox="0 0 22 30" fill="none" xmlns="http://www.w3.org/2000/svg">


    <path
        d="M11 0C12.4834 0 13.9334 0.439867 15.1668 1.26398C16.4001 2.08809 17.3614 3.25943 17.9291 4.62987C18.4968 6.00032 18.6453 7.50832 18.3559 8.96318C18.0665 10.418 17.3522 11.7544 16.3033 12.8033C15.2544 13.8522 13.918 14.5665 12.4632 14.8559C11.0083 15.1453 9.50032 14.9968 8.12987 14.4291C6.75943 13.8614 5.58809 12.9001 4.76398 11.6668C3.93987 10.4334 3.5 8.98336 3.5 7.5L3.5075 7.1745C3.59138 5.24363 4.41741 3.41967 5.81333 2.08299C7.20926 0.746312 9.06731 0.000111664 11 0ZM14 18C15.9891 18 17.8968 18.7902 19.3033 20.1967C20.7098 21.6032 21.5 23.5109 21.5 25.5V27C21.5 27.7956 21.1839 28.5587 20.6213 29.1213C20.0587 29.6839 19.2956 30 18.5 30H3.5C2.70435 30 1.94129 29.6839 1.37868 29.1213C0.81607 28.5587 0.5 27.7956 0.5 27V25.5C0.5 23.5109 1.29018 21.6032 2.6967 20.1967C4.10322 18.7902 6.01088 18 8 18H14Z"
        fill="#E8E8E8" style="mix-blend-mode:plus-lighter" />
</svg>