<svg width="50" height="50" viewBox="0 0 50 50" fill="none" xmlns="http://www.w3.org/2000/svg">
<g clip-path="url(#clip0_22545_200088)">
<g clip-path="url(#clip1_22545_200088)">
<g clip-path="url(#clip2_22545_200088)">
<path d="M29.8438 26.5945C29.5911 26.3927 29.2957 26.2512 28.9801 26.1807C28.6645 26.1101 28.337 26.1125 28.0224 26.1875C27.5553 26.3809 27.2484 27.1215 26.9482 27.5219C26.8826 27.6109 26.7867 27.673 26.6786 27.6963C26.5705 27.7197 26.4575 27.7027 26.361 27.6486C24.6347 26.972 23.1868 25.7333 22.2511 24.1325C22.1805 24.0317 22.1484 23.9089 22.1606 23.7865C22.1728 23.6641 22.2286 23.5501 22.3178 23.4653C22.665 23.1336 22.9202 22.7175 23.0584 22.2577C23.084 21.7577 22.9684 21.2606 22.7248 20.8232C22.5344 20.2012 22.1683 19.6474 21.6706 19.2286C21.4132 19.108 21.126 19.0658 20.8449 19.1073C20.5637 19.1489 20.3009 19.2722 20.0894 19.4621C19.7273 19.7753 19.44 20.1656 19.2483 20.6043C19.0567 21.043 18.9656 21.519 18.9818 21.9974C18.9884 22.267 19.0219 22.5352 19.0819 22.7981C19.2521 23.4263 19.5129 24.0264 19.8558 24.5795C20.1105 24.9832 20.3867 25.373 20.6832 25.7471C21.6248 27.0443 22.81 28.1457 24.1726 28.9897C24.8516 29.4153 25.5769 29.7623 26.3344 30.0239C27.1286 30.3813 28.004 30.5195 28.8697 30.4242C29.3649 30.3446 29.833 30.1448 30.2332 29.8424C30.6333 29.54 30.9532 29.1441 31.1649 28.6895C31.2895 28.416 31.3268 28.1108 31.2716 27.8154C31.1449 27.2416 30.3309 26.888 29.8438 26.5945Z" fill="white"/>
<path d="M25.12 12.1363C22.9109 12.1319 20.739 12.705 18.8196 13.7987C16.9001 14.8923 15.2998 16.4686 14.1772 18.3713C13.0546 20.2739 12.4488 22.4369 12.4196 24.6459C12.3905 26.8548 12.9391 29.033 14.0112 30.9646L12.1697 37.8368L19.0819 35.982C20.7802 36.8938 22.664 37.4063 24.5902 37.4805C26.5163 37.5547 28.4341 37.1887 30.1975 36.4102C31.9609 35.6318 33.5236 34.4615 34.7667 32.9884C36.0098 31.5152 36.9006 29.7779 37.3713 27.9087C37.842 26.0394 37.8802 24.0875 37.4831 22.2013C37.0859 20.315 36.2639 18.5442 35.0794 17.0235C33.895 15.5027 32.3793 14.2721 30.6477 13.4253C28.9162 12.5784 27.0143 12.1375 25.0867 12.1363H25.12ZM25.12 35.1213C23.2684 35.1194 21.4518 34.6168 19.8625 33.6668L19.4288 33.4066L15.5724 34.4408L16.5999 30.6044L16.333 30.164C15.156 28.2197 14.6565 25.9402 14.9125 23.6818C15.1684 21.4234 16.1655 19.3136 17.7478 17.682C19.3301 16.0504 21.4084 14.9891 23.6578 14.6639C25.9073 14.3388 28.201 14.7682 30.1806 15.885C32.1601 17.0017 33.7138 18.7429 34.5988 20.8364C35.4837 22.9298 35.6501 25.2575 35.0719 27.4555C34.4936 29.6536 33.2034 31.598 31.4028 32.985C29.6022 34.372 27.3929 35.1232 25.12 35.1213Z" fill="white"/>
<path d="M25 0C20.0555 0 15.222 1.46622 11.1108 4.21326C6.99953 6.9603 3.79521 10.8648 1.90302 15.4329C0.0108321 20.0011 -0.484251 25.0277 0.480379 29.8773C1.44501 34.7268 3.82603 39.1814 7.32234 42.6777C10.8187 46.174 15.2732 48.555 20.1228 49.5196C24.9723 50.4843 29.9989 49.9892 34.5671 48.097C39.1353 46.2048 43.0397 43.0005 45.7868 38.8893C48.5338 34.778 50 29.9445 50 25C49.993 18.3718 47.3568 12.017 42.6699 7.33013C37.983 2.64325 31.6283 0.00706448 25 0ZM25 46.7908C20.6883 46.7921 16.4731 45.5146 12.8875 43.12C9.3019 40.7254 6.50703 37.3212 4.85641 33.3379C3.20579 29.3547 2.77356 24.9714 3.61441 20.7425C4.45526 16.5136 6.5314 12.629 9.58022 9.58021C12.6291 6.53138 16.5136 4.45524 20.7425 3.6144C24.9714 2.77355 29.3547 3.20578 33.3379 4.8564C37.3212 6.50702 40.7254 9.30189 43.12 12.8875C45.5147 16.4731 46.7921 20.6883 46.7908 25C46.7837 30.7771 44.4856 36.3156 40.4006 40.4006C36.3156 44.4856 30.7771 46.7837 25 46.7908Z" fill="white"/>
</g>
</g>
</g>
<defs>
<clipPath id="clip0_22545_200088">
<rect width="50" height="50" fill="white"/>
</clipPath>
<clipPath id="clip1_22545_200088">
<rect width="50" height="50.0001" fill="white"/>
</clipPath>
<clipPath id="clip2_22545_200088">
<rect width="50" height="50" fill="white"/>
</clipPath>
</defs>
</svg>
