<?xml version="1.0" encoding="UTF-8" standalone="no"?>
<svg
   version="1.1"
   id="Layer_1"
   x="0px"
   y="0px"
   width="100%"
   viewBox="0 0 960 960"
   enable-background="new 0 0 960 960"
   xml:space="preserve"
   sodipodi:docname="output.svg"
   inkscape:version="1.3.2 (1:1.3.2+202311252150+091e20ef0f)"
   xmlns:inkscape="http://www.inkscape.org/namespaces/inkscape"
   xmlns:sodipodi="http://sodipodi.sourceforge.net/DTD/sodipodi-0.dtd"
   xmlns="http://www.w3.org/2000/svg"
   xmlns:svg="http://www.w3.org/2000/svg"><defs
   id="defs5" /><sodipodi:namedview
   id="namedview5"
   pagecolor="#ffffff"
   bordercolor="#000000"
   borderopacity="0.25"
   inkscape:showpageshadow="2"
   inkscape:pageopacity="0.0"
   inkscape:pagecheckerboard="0"
   inkscape:deskcolor="#d1d1d1"
   inkscape:zoom="0.80208333"
   inkscape:cx="479.37662"
   inkscape:cy="480"
   inkscape:window-width="1920"
   inkscape:window-height="946"
   inkscape:window-x="0"
   inkscape:window-y="27"
   inkscape:window-maximized="1"
   inkscape:current-layer="g5" />




<g
   id="g5"
   transform="translate(-64.391107,-56.402876)"><path
     fill="#000000"
     opacity="1"
     stroke="none"
     d="m 682.33777,533.15588 c -7.22846,18.28565 -17.04779,34.70697 -28.46576,50.12049 -15.7652,21.2821 -33.99359,39.9956 -56.78516,54.08313 -25.68945,15.87878 -53.16089,26.50708 -82.96557,31.57672 -34.85437,5.92865 -68.4487,1.84686 -101.53766,-10.11664 -21.20194,-7.66577 -41.0701,-17.82788 -58.82904,-31.40247 -35.37873,-27.04266 -61.49597,-60.88391 -74.17224,-104.43719 -7.29557,-25.06616 -10.84363,-50.39026 -9.76413,-76.3887 0.7135,-17.1836 3.65252,-34.03751 8.41009,-50.56968 1.89264,-6.5769 2.94376,-13.29058 3.52136,-20.11093 0.46616,-5.50497 1.74448,-10.79528 6.82373,-16.069 1.09083,6.65103 0.86875,12.23203 0.27012,17.86872 -2.52115,23.73916 -4.64478,47.54434 3.66937,70.63546 10.22659,28.40259 26.84103,52.75153 48.78824,73.37644 28.11816,26.42395 61.36865,42.96967 99.05578,51.01056 21.68463,4.62665 43.06885,4.24084 64.69556,-0.70929 17.75198,-4.06311 34.34756,-10.86383 49.83127,-19.96442 27.94391,-16.42419 46.75146,-41.01489 60.06671,-70.24997 11.27661,-24.75891 15.1145,-50.79886 12.47803,-77.51217 -3.01172,-30.51532 -15.56568,-57.16013 -35.97107,-80.24646 -11.23621,-12.7125 -25.46344,-20.70661 -40.18939,-28.21234 -5.08332,-2.59098 -10.66816,-4.40229 -14.73877,-8.91623 1.75848,-1.78489 3.41369,-1.01706 4.92095,-0.63816 29.57538,7.43564 57.836,18.04489 83.52472,34.80646 16.11274,10.51343 29.82807,23.41138 39.91248,39.97229 2.59473,4.26117 5.77423,8.16724 8.35193,12.43756 13.35071,22.11768 19.76593,46.1828 21.30237,71.94492 1.25012,20.96066 -0.043,41.61291 -4.40375,62.04327 -1.83307,8.58841 -5.07452,16.87619 -7.80017,25.66763 z"
     id="path1"
     style="fill:#924de0;fill-opacity:1" /><path
     fill="#000000"
     opacity="1"
     stroke="none"
     d="m 461.88946,276.96573 c -27.98794,7.35516 -51.65155,21.56393 -71.57397,41.70407 -23.36493,23.62024 -36.47278,52.50235 -41.07422,85.26868 -3.88388,27.65658 0.50296,54.26083 12.52844,79.25839 7.2501,15.07077 18.10129,27.88937 30.33411,39.38174 1.81772,1.70764 3.81747,3.22406 5.76032,4.79517 2.38116,1.92548 2.28961,4.17438 1.07605,6.70288 -1.40522,2.92767 -3.62449,1.73193 -5.5737,1.07928 -12.55286,-4.20306 -23.46793,-11.38476 -32.98334,-20.27337 -15.38864,-14.37497 -28.96372,-30.36853 -38.77307,-49.21988 -13.87546,-26.66541 -18.81226,-54.71842 -14.228,-84.62399 2.82516,-18.43003 7.04749,-36.31739 15.93857,-52.75736 11.99267,-22.17499 28.67694,-40.28799 48.91409,-55.30225 23.16702,-17.18797 49.1904,-27.88963 77.15073,-33.80459 18.87079,-3.99211 38.10049,-3.57364 57.16552,-0.90175 25.29178,3.54451 49.28135,11.58252 71.74149,23.5566 12.7348,6.78924 25.05334,14.59976 35.45532,24.88348 2.73383,2.70279 5.88654,5.51157 4.16394,9.95709 -1.43896,0.74124 -2.35803,0.24329 -3.09893,-0.41668 -11.02759,-9.82303 -24.89063,-14.41504 -38.37708,-18.61747 -25.42718,-7.92319 -51.73267,-10.34811 -78.4097,-7.60901 -12.13623,1.24616 -23.83963,4.50623 -36.13657,6.93897 z"
     id="path2"
     style="fill:#e0a34c;fill-opacity:1" /><path
     fill="#000000"
     opacity="1"
     stroke="none"
     d="m 518.95978,506.19598 c -34.55115,10.49701 -66.50128,7.50507 -94.80094,-16.08584 -9.63943,-8.03553 -16.16513,-18.54743 -21.56213,-29.71439 -9.00229,-18.62677 -11.73874,-38.24038 -6.79077,-58.34012 7.27026,-29.53363 23.42648,-52.10485 51.207,-66.56381 27.88162,-14.51153 75.93902,-9.74301 101.35406,19.61472 23.07874,26.65905 32.36219,57.01651 22.85529,91.76437 -2.41303,8.81955 -6.17059,17.45197 -11.65533,24.77179 -10.7865,14.39526 -22.51929,27.99698 -40.60718,34.55328 m -70.23087,-27.47717 c 4.12299,3.22751 8.71289,5.50797 13.80585,6.73846 10.7229,2.59077 21.4126,4.05484 32.58014,2.44617 17.82437,-2.56756 32.38058,-10.75336 42.61087,-25.20352 22.26233,-31.44519 14.84833,-77.77734 -14.79956,-98.85233 -20.05234,-14.25405 -46.51218,-19.10229 -68.85474,-5.16732 -8.72821,5.44381 -17.66467,10.65609 -23.53103,19.66638 -5.25464,8.07077 -8.00031,17.02252 -10.55851,26.16717 -8.03158,28.71033 2.98441,57.86832 28.74698,74.20499 z"
     id="path3"
     style="fill:#4ce078;fill-opacity:1" /><path
     fill="#000000"
     opacity="1"
     stroke="none"
     d="m 491.21018,395.28314 c 8.96234,4.00857 13.55377,10.49438 13.39251,20.07489 -0.13879,8.24606 -2.91668,14.90344 -10.90399,18.61758 -8.77539,4.08066 -17.04272,3.7348 -24.76178,-2.43231 -6.95392,-5.55576 -8.29626,-21.21454 -2.50299,-28.91144 6.82568,-9.06854 13.50214,-11.11926 24.77625,-7.34872 z"
     id="path4"
     style="fill:#bd2525;fill-opacity:1" /><path
     fill="#000000"
     opacity="1"
     stroke="none"
     d="m 512.64642,285.03416 c 6.06183,5.05847 8.31964,12.74054 5.69348,18.46308 -2.52209,5.4956 -10.44067,9.99792 -15.97638,9.08386 -6.70709,-1.10754 -13.30426,-7.7945 -14.18713,-14.38013 -1.31842,-9.83429 9.23578,-18.45587 19.12622,-15.55127 1.73791,0.51038 3.34985,1.44965 5.34381,2.38446 z"
     id="path5" /></g>
</svg>
