<svg version="1.1" id="Layer_1" xmlns="http://www.w3.org/2000/svg" xmlns:xlink="http://www.w3.org/1999/xlink" x="0px" y="0px"
	 width="100%" viewBox="0 0 960 960" enable-background="new 0 0 960 960" xml:space="preserve">
<path fill="#000000" opacity="1.000000" stroke="none" 
	d="
M450.995300,234.686188 
	C477.968994,232.347900 504.512848,232.577209 530.352783,239.163101 
	C581.972961,252.319702 624.334534,279.569611 655.857117,323.290192 
	C676.872131,352.437164 690.386597,384.400238 695.079224,419.880615 
	C699.183289,450.911621 696.735596,481.593018 687.428162,511.630524 
	C680.708130,533.318115 670.221558,552.961243 656.832764,571.273193 
	C642.787109,590.483826 626.945801,607.739197 607.545959,621.698792 
	C583.399963,639.073608 556.669495,650.325195 527.865784,657.372192 
	C504.958710,662.976562 481.674744,665.222717 458.476135,662.856689 
	C421.371307,659.072693 386.817596,647.285461 356.041138,625.276367 
	C327.993347,605.218567 304.309845,581.294861 287.301331,551.172668 
	C274.565247,528.617065 266.509064,504.532745 263.400787,478.643372 
	C259.136932,443.128937 262.429047,408.469208 274.279358,374.852936 
	C289.386383,331.998016 316.870941,298.444244 353.718109,272.210663 
	C379.831879,253.618790 408.876831,242.260483 440.196686,236.310486 
	C443.623688,235.659424 447.094086,235.236496 450.995300,234.686188 
M448.470367,545.235657 
	C430.510040,539.216980 414.974152,529.156433 402.917908,514.744202 
	C383.654053,491.715820 374.140991,465.233612 377.591614,434.728058 
	C381.454437,400.578339 399.326691,375.725159 427.945526,357.942871 
	C440.765717,349.977020 455.335876,346.774597 469.888275,344.006897 
	C475.009064,343.032928 476.571808,340.711823 476.565857,336.085144 
	C476.535370,312.421906 476.641663,288.758209 476.529358,265.095490 
	C476.497803,258.446808 475.768402,257.849518 469.242706,258.211304 
	C428.117401,260.491333 391.277252,274.042328 359.053375,299.954132 
	C333.172394,320.765503 312.582550,345.352997 300.499939,376.807159 
	C287.932190,409.524231 283.375824,442.914581 288.203186,477.711456 
	C293.479034,515.741394 310.595490,548.053040 336.413666,575.581848 
	C362.332153,603.217651 393.829346,622.518982 430.943939,631.679626 
	C444.344757,634.987244 457.920258,637.648987 471.842041,637.726685 
	C474.406952,637.740967 476.257935,637.658936 476.236023,634.097778 
	C476.077148,608.281799 476.155304,582.464478 476.042938,556.648010 
	C476.015137,550.260864 475.379150,549.985962 468.768158,549.296936 
	C462.158630,548.608154 455.558990,547.707336 448.470367,545.235657 
M478.422821,545.310486 
	C478.047821,548.885437 479.868530,549.948914 483.188293,549.882080 
	C489.562775,549.753662 495.778839,548.496643 501.866882,546.942688 
	C528.890991,540.044800 550.824951,525.741577 565.988953,501.891876 
	C580.014343,479.832977 584.372131,455.432190 580.794983,430.079926 
	C576.727661,401.253357 561.319946,378.847565 537.309937,362.390594 
	C521.560364,351.595490 504.217346,345.529663 485.094238,344.634766 
	C481.090515,344.447388 478.662659,345.522217 479.038818,350.179199 
	C479.306122,353.488953 479.234955,356.841980 479.084229,360.165222 
	C478.925751,363.659302 480.312378,365.287842 483.893738,365.620453 
	C506.330994,367.704285 525.399475,376.677979 540.836792,393.324432 
	C555.622803,409.268555 561.702087,428.452332 560.924072,449.620575 
	C560.302185,466.542267 554.587952,482.078522 544.126709,495.761475 
	C537.245972,504.761322 529.274231,512.266052 519.269897,517.691589 
	C508.103729,523.747253 496.272675,527.287659 483.609161,527.990967 
	C480.298950,528.174744 478.910889,529.620972 478.949646,532.981384 
	C478.993683,536.800781 478.620605,540.624939 478.422821,545.310486 
z"/>
<path fill="#000000" opacity="1.000000" stroke="none" 
	d="
M463.851196,706.226318 
	C469.203949,705.955139 474.310852,706.187012 479.135834,704.207214 
	C479.588104,704.021606 480.193359,703.626587 480.510437,703.779419 
	C487.619781,707.206543 495.407104,702.814880 502.641815,705.800171 
	C505.325531,706.907593 508.115662,705.340027 510.151672,703.529663 
	C511.442047,703.908691 511.058746,704.596863 510.926575,705.211121 
	C515.287659,704.715149 519.893433,704.900146 523.913940,703.456116 
	C526.163147,702.648193 527.817993,701.433777 530.351013,703.304382 
	C530.351013,701.632568 530.351013,700.542114 530.351013,698.817139 
	C532.945190,700.476868 534.912903,700.497498 537.223450,698.673523 
	C541.751038,695.099121 547.269653,697.293518 552.222473,697.357239 
	C561.793884,697.480469 571.405334,698.145813 580.890320,699.838318 
	C582.701721,700.161560 584.539734,700.118164 585.861877,701.702820 
	C586.161682,702.062134 586.858154,702.554932 587.093689,702.435852 
	C594.127197,698.878296 601.109863,707.311096 608.175110,702.502563 
	C609.326904,701.718750 610.924072,702.311035 611.995178,703.012207 
	C614.174988,704.439209 615.840759,704.532043 618.268005,703.037476 
	C620.679626,701.552429 622.975952,703.165527 623.946350,704.971802 
	C633.306641,704.060120 642.116272,703.306580 650.169861,708.742065 
	C650.713379,709.108887 651.415588,709.701294 651.920288,709.596008 
	C660.013306,707.907776 660.439026,715.312866 663.415405,719.453979 
	C665.416626,722.238464 662.559021,724.192505 660.650574,724.629761 
	C655.845215,725.730469 651.745667,729.971497 645.453552,727.388062 
	C645.371704,727.319641 647.678223,726.145752 645.985962,725.661743 
	C645.091431,725.405884 643.279846,725.408813 643.204590,725.672485 
	C641.767639,730.705566 635.552002,728.409363 634.185120,733.014099 
	C632.617859,731.353333 633.697327,730.637329 633.524475,729.849426 
	C629.604553,735.614441 625.628235,725.089478 621.583557,730.396179 
	C621.762756,731.838562 625.153137,729.754639 624.672485,732.346008 
	C624.360840,734.026306 623.103882,734.766785 621.661743,735.414673 
	C620.305664,733.764587 618.973938,732.144226 617.722229,730.621155 
	C615.566589,730.910278 615.056519,732.879822 613.678284,733.706970 
	C607.879211,737.186768 601.531921,736.256104 595.160583,736.550720 
	C589.655151,736.805298 584.640869,734.847717 579.228455,734.710571 
	C574.213623,734.583496 569.319763,739.606323 564.367432,735.257751 
	C560.538452,738.913391 557.247009,734.729736 554.383057,733.777771 
	C546.074402,731.016052 537.180176,734.557251 528.985596,730.336914 
	C526.342346,728.975586 521.590637,729.741638 518.476685,730.617004 
	C513.395020,732.045532 508.037598,729.133118 503.107544,732.684204 
	C500.841278,734.316650 497.231140,731.978943 493.998993,732.545654 
	C491.628754,732.961365 489.610413,733.226746 488.208832,735.520325 
	C481.665192,730.341858 474.492218,730.651978 467.222198,732.077820 
	C466.195770,732.279053 465.883728,731.681152 465.275574,731.523987 
	C462.820526,730.889465 460.016083,729.237793 458.132904,732.651978 
	C457.236603,734.276978 455.962280,733.601990 454.656738,733.249023 
	C448.012360,731.452637 432.099731,731.431091 426.081970,734.574524 
	C426.135345,733.771973 426.183502,733.047974 426.213715,732.593872 
	C422.617920,732.593872 419.015594,732.735046 415.429474,732.554565 
	C411.779999,732.370850 408.175323,731.954712 404.679565,733.545898 
	C403.828339,733.933289 402.405823,734.265442 401.814850,733.837402 
	C396.450470,729.952820 391.775787,734.075073 387.046173,735.269592 
	C382.898499,736.317200 379.684570,737.963684 375.101135,735.167419 
	C372.565643,733.620667 367.787079,730.570740 363.913483,734.711060 
	C363.670105,734.971130 362.675690,734.660400 362.090942,734.448669 
	C356.901428,732.570068 350.992554,735.112793 345.999939,731.743286 
	C344.788422,730.925598 343.351532,731.809265 342.429382,732.821655 
	C341.061676,734.323181 339.339661,734.579590 337.560516,734.696411 
	C337.079254,732.932739 336.620117,731.250061 336.192749,729.683838 
	C332.780151,728.844910 332.035889,731.140076 331.165466,733.976624 
	C326.498840,731.093445 321.663605,729.769714 316.365936,729.924988 
	C312.444733,730.039795 313.356781,726.035156 312.520966,723.926208 
	C311.597504,721.595886 309.822144,718.405945 313.017090,716.202454 
	C317.104584,713.383301 319.605988,707.809326 326.570465,709.785583 
	C328.356964,710.292603 331.930725,706.598083 335.020752,705.458008 
	C337.489685,704.547058 340.020691,703.588318 340.290253,706.187195 
	C347.903625,708.946228 354.217773,704.796875 361.491028,705.247864 
	C368.563690,705.686523 376.080292,703.970093 383.437714,702.646057 
	C383.320740,705.620239 380.549500,703.832642 380.091888,705.845642 
	C383.529449,707.467163 384.607452,703.928894 386.965973,702.829102 
	C389.070526,703.787292 391.308044,705.592651 393.906525,703.524902 
	C394.611511,702.963867 395.824310,702.746765 396.172119,703.448730 
	C398.139526,707.419128 401.381226,705.504761 404.159363,705.250793 
	C407.778442,704.919922 410.836731,707.729065 414.789764,706.333740 
	C423.866760,703.129822 432.776489,706.575378 441.792084,707.534363 
	C447.104706,708.099487 452.772919,707.114258 457.784943,705.024719 
	C460.559814,703.867920 461.556702,706.434509 463.851196,706.226318 
z"/>
</svg>